<svg width="420" height="153" viewBox="0 0 420 153" fill="none" xmlns="http://www.w3.org/2000/svg">
<path fill-rule="evenodd" clip-rule="evenodd" d="M19.9966 10C13.3692 10 7.99658 15.3726 7.99658 22V73.2362C12.759 73.2362 16.6197 77.0969 16.6197 81.8593C16.6197 86.6217 12.759 90.4824 7.99658 90.4824V141C7.99658 147.627 13.3692 153 19.9966 153H337.112V151.024H339.112V153H407.75C414.378 153 419.75 147.627 419.75 141V90.4824C414.988 90.4824 411.127 86.6217 411.127 81.8593C411.127 77.0969 414.988 73.2362 419.75 73.2362V22C419.75 15.3726 414.378 10 407.75 10H19.9966ZM337.112 10.7186V12.6947H339.112V10.7186L337.112 10.7186ZM337.112 16.647V20.5992H339.112V16.647H337.112ZM337.112 24.5515V28.5038H339.112V24.5515H337.112ZM337.112 32.456V36.4083H339.112V32.456H337.112ZM337.112 40.3606V44.3128H339.112V40.3606H337.112ZM337.112 48.2651V52.2173H339.112V48.2651H337.112ZM337.112 56.1696V60.1219H339.112V56.1696H337.112ZM337.112 64.0741V68.0264H339.112V64.0741H337.112ZM337.112 71.9787V75.9309H339.112V71.9787H337.112ZM337.112 83.8354H339.112V79.8832H337.112V83.8354ZM337.112 87.7877V91.74H339.112V87.7877H337.112ZM337.112 95.6922V99.6445H339.112V95.6922H337.112ZM337.112 103.597V107.549H339.112V103.597H337.112ZM337.112 111.501V115.454H339.112V111.501H337.112ZM337.112 119.406V123.358H339.112V119.406H337.112ZM337.112 127.31V131.263H339.112V127.31H337.112ZM337.112 135.215V139.167H339.112V135.215H337.112ZM337.112 143.119V147.072H339.112V143.119H337.112Z" fill="url(#paint0_linear_141_25)"/>
<line x1="355.514" y1="40.093" x2="390.997" y2="40.093" stroke="white"/>
<line x1="355.514" y1="43.9045" x2="390.997" y2="43.9045" stroke="white" stroke-width="2"/>
<line x1="355.514" y1="47.2789" x2="390.997" y2="47.2789" stroke="white"/>
<line x1="355.514" y1="51.0906" x2="390.997" y2="51.0906" stroke="white" stroke-width="2"/>
<line x1="355.514" y1="127.261" x2="390.997" y2="127.261" stroke="white" stroke-width="2"/>
<line x1="355.514" y1="65.9624" x2="390.997" y2="65.9624" stroke="white"/>
<line x1="355.514" y1="55.1833" x2="390.997" y2="55.1833" stroke="white"/>
<line x1="355.514" y1="53.7463" x2="390.997" y2="53.7463" stroke="white"/>
<line x1="355.514" y1="62.3694" x2="390.997" y2="62.3694" stroke="white"/>
<line x1="355.514" y1="56.6206" x2="390.997" y2="56.6206" stroke="white"/>
<line x1="355.514" y1="60.9321" x2="390.997" y2="60.9321" stroke="white"/>
<line x1="355.514" y1="80.3342" x2="390.997" y2="80.3342" stroke="white"/>
<line x1="355.514" y1="99.0176" x2="390.997" y2="99.0176" stroke="white"/>
<line x1="355.514" y1="117.701" x2="390.997" y2="117.701" stroke="white"/>
<line x1="355.514" y1="119.138" x2="390.997" y2="119.138" stroke="white"/>
<line x1="355.514" y1="125.605" x2="390.997" y2="125.605" stroke="white"/>
<line x1="355.514" y1="122.731" x2="390.997" y2="122.731" stroke="white"/>
<line x1="355.514" y1="82.49" x2="390.997" y2="82.49" stroke="white"/>
<line x1="355.514" y1="88.676" x2="390.997" y2="88.676" stroke="white" stroke-width="3"/>
<line x1="355.514" y1="130.354" x2="390.997" y2="130.354" stroke="white" stroke-width="3"/>
<line x1="355.514" y1="103.766" x2="390.997" y2="103.766" stroke="white" stroke-width="3"/>
<line x1="355.514" y1="35.5" x2="390.997" y2="35.5" stroke="white" stroke-width="3"/>
<line x1="355.514" y1="113.827" x2="390.997" y2="113.827" stroke="white" stroke-width="3"/>
<line x1="355.514" y1="69.7739" x2="390.997" y2="69.7739" stroke="white" stroke-width="2"/>
<line x1="355.514" y1="106.922" x2="390.997" y2="106.922" stroke="white"/>
<line x1="355.514" y1="110.734" x2="390.997" y2="110.734" stroke="white" stroke-width="2"/>
<line x1="355.514" y1="93.2688" x2="390.997" y2="93.2688" stroke="white"/>
<line x1="355.514" y1="97.0803" x2="390.997" y2="97.0803" stroke="white" stroke-width="2"/>
<line x1="355.514" y1="73.8669" x2="390.997" y2="73.8669" stroke="white"/>
<line x1="355.514" y1="77.6785" x2="390.997" y2="77.6785" stroke="white" stroke-width="2"/>
<path d="M7.49733 30.999L32.4973 9.49909L48.4966 9.49909L7.49637 46L7.49733 30.999Z" fill="#FF4343"/>
<path d="M395.724 117.905L402.997 117.905L402.997 119.442L397.183 119.442L397.183 119.485L398.227 121.15L396.864 121.15L395.724 119.35L395.724 117.905ZM402.997 116.176L401.889 116.176L399.492 113.587C399.279 113.367 399.087 113.183 398.916 113.033C398.746 112.882 398.579 112.767 398.416 112.689C398.25 112.611 398.071 112.572 397.879 112.572C397.666 112.572 397.483 112.62 397.329 112.717C397.173 112.814 397.053 112.947 396.97 113.115C396.885 113.283 396.842 113.474 396.842 113.687C396.842 113.909 396.887 114.103 396.977 114.269C397.067 114.435 397.196 114.563 397.364 114.653C397.533 114.743 397.733 114.788 397.965 114.788L397.965 116.247C397.489 116.247 397.076 116.139 396.725 115.924C396.375 115.709 396.104 115.407 395.912 115.018C395.72 114.63 395.624 114.183 395.624 113.676C395.624 113.155 395.717 112.702 395.901 112.316C396.084 111.928 396.337 111.626 396.661 111.411C396.986 111.195 397.357 111.087 397.776 111.087C398.051 111.087 398.322 111.142 398.59 111.251C398.857 111.357 399.154 111.548 399.481 111.822C399.805 112.097 400.195 112.484 400.649 112.984L401.69 114.045L401.739 114.045L401.739 110.991L402.997 110.991L402.997 116.176ZM403.156 107.026C403.154 107.637 403.004 108.162 402.705 108.602C402.407 109.04 401.975 109.378 401.409 109.615C400.843 109.849 400.163 109.965 399.367 109.963C398.574 109.963 397.898 109.845 397.34 109.611C396.781 109.374 396.356 109.037 396.065 108.599C395.771 108.159 395.624 107.634 395.624 107.026C395.624 106.417 395.771 105.894 396.065 105.456C396.358 105.016 396.784 104.677 397.343 104.441C397.9 104.204 398.574 104.087 399.367 104.089C400.165 104.089 400.847 104.207 401.413 104.444C401.979 104.678 402.411 105.015 402.709 105.453C403.007 105.891 403.156 106.415 403.156 107.026ZM401.882 107.026C401.882 106.609 401.672 106.276 401.253 106.028C400.834 105.779 400.205 105.656 399.367 105.659C398.816 105.659 398.356 105.715 397.989 105.829C397.623 105.94 397.347 106.099 397.162 106.305C396.977 106.508 396.885 106.749 396.885 107.026C396.885 107.44 397.092 107.771 397.507 108.02C397.921 108.269 398.541 108.394 399.367 108.396C399.926 108.396 400.392 108.341 400.766 108.23C401.138 108.116 401.418 107.956 401.605 107.75C401.789 107.544 401.882 107.303 401.882 107.026ZM403.096 100.336C403.096 100.838 403.004 101.286 402.819 101.679C402.634 102.069 402.38 102.379 402.056 102.609C401.731 102.839 401.36 102.958 400.94 102.968L400.94 101.476C401.222 101.46 401.451 101.341 401.626 101.121C401.801 100.901 401.889 100.639 401.889 100.336C401.889 100.095 401.835 99.8817 401.729 99.6971C401.62 99.5101 401.47 99.3645 401.278 99.2603C401.084 99.1538 400.861 99.1005 400.61 99.1005C400.355 99.1005 400.13 99.1549 399.936 99.2638C399.741 99.3704 399.59 99.5183 399.481 99.7077C399.372 99.8971 399.316 100.114 399.314 100.358C399.314 100.571 399.358 100.778 399.445 100.979C399.533 101.178 399.653 101.333 399.804 101.444L399.559 102.811L395.724 102.467L395.724 98.021L396.981 98.021L396.981 101.199L398.803 101.387L398.803 101.345C398.623 101.217 398.474 101.024 398.355 100.766C398.237 100.508 398.178 100.219 398.178 99.8995C398.178 99.4615 398.281 99.0709 398.487 98.7276C398.693 98.3844 398.976 98.1133 399.335 97.9144C399.693 97.7156 400.105 97.6173 400.571 97.6197C401.061 97.6173 401.497 97.7309 401.878 97.9606C402.257 98.1879 402.555 98.5063 402.773 98.9158C402.988 99.323 403.096 99.7965 403.096 100.336ZM403.096 91.5446C403.096 92.0749 403.005 92.5472 402.823 92.9615C402.638 93.3734 402.385 93.6989 402.063 93.938C401.738 94.1748 401.364 94.2967 400.94 94.3038L400.94 92.7555C401.118 92.746 401.274 92.688 401.409 92.5815C401.542 92.4726 401.645 92.3282 401.718 92.1483C401.792 91.9683 401.828 91.7659 401.828 91.541C401.828 91.3066 401.787 91.0995 401.704 90.9196C401.621 90.7396 401.506 90.5988 401.36 90.497C401.213 90.3952 401.043 90.3443 400.852 90.3443C400.658 90.3443 400.486 90.3987 400.337 90.5076C400.185 90.6142 400.067 90.7681 399.982 90.9693C399.896 91.1681 399.854 91.4049 399.854 91.6795L399.854 92.3578L398.725 92.3578L398.725 91.6795C398.725 91.4475 398.684 91.2427 398.604 91.0652C398.523 90.8852 398.412 90.7456 398.27 90.6461C398.126 90.5467 397.958 90.497 397.766 90.497C397.583 90.497 397.424 90.5408 397.286 90.6284C397.147 90.7136 397.038 90.8343 396.96 90.9906C396.882 91.1445 396.842 91.3244 396.842 91.5304C396.842 91.7387 396.88 91.9293 396.956 92.1021C397.029 92.2749 397.135 92.4134 397.272 92.5176C397.409 92.6217 397.57 92.6774 397.755 92.6845L397.755 94.1582C397.336 94.1511 396.967 94.0315 396.647 93.7995C396.328 93.5675 396.078 93.255 395.898 92.862C395.716 92.4667 395.624 92.0204 395.624 91.5233C395.624 91.0214 395.716 90.5822 395.898 90.2058C396.08 89.8294 396.326 89.537 396.636 89.3287C396.944 89.118 397.29 89.0138 397.673 89.0162C398.081 89.0138 398.42 89.1404 398.693 89.3961C398.965 89.6494 399.138 89.9797 399.211 90.3869L399.268 90.3869C399.337 89.8519 399.522 89.4447 399.825 89.1653C400.126 88.8836 400.502 88.7439 400.955 88.7463C401.369 88.7439 401.737 88.8635 402.059 89.1049C402.381 89.344 402.634 89.6743 402.819 90.0957C403.004 90.5171 403.096 91.0001 403.096 91.5446ZM402.997 87.641L401.889 87.641L399.492 85.0522C399.279 84.832 399.087 84.6474 398.916 84.4982C398.746 84.3467 398.579 84.2319 398.416 84.1538C398.25 84.0756 398.071 84.0366 397.879 84.0366C397.666 84.0366 397.483 84.0851 397.329 84.1822C397.173 84.2792 397.053 84.4118 396.97 84.5799C396.885 84.748 396.842 84.9386 396.842 85.1516C396.842 85.3742 396.887 85.5683 396.977 85.734C397.067 85.8997 397.196 86.0276 397.364 86.1175C397.533 86.2075 397.733 86.2525 397.965 86.2525L397.965 87.712C397.489 87.712 397.076 87.6043 396.725 87.3888C396.375 87.1734 396.104 86.8716 395.912 86.4833C395.72 86.0951 395.624 85.6476 395.624 85.141C395.624 84.6201 395.717 84.1668 395.901 83.7809C396.084 83.3926 396.337 83.0908 396.661 82.8754C396.986 82.6599 397.357 82.5522 397.776 82.5522C398.051 82.5522 398.322 82.6067 398.59 82.7156C398.857 82.8221 399.154 83.0127 399.481 83.2873C399.805 83.5619 400.195 83.949 400.649 84.4485L401.69 85.5103L401.739 85.5103L401.739 82.4563L402.997 82.4563L402.997 87.641ZM402.997 81.3422L401.889 81.3422L399.492 78.7534C399.279 78.5332 399.087 78.3485 398.916 78.1994C398.746 78.0479 398.579 77.9331 398.416 77.8549C398.25 77.7768 398.071 77.7377 397.879 77.7377C397.666 77.7377 397.483 77.7863 397.329 77.8833C397.173 77.9804 397.053 78.113 396.97 78.2811C396.885 78.4492 396.842 78.6397 396.842 78.8528C396.842 79.0753 396.887 79.2695 396.977 79.4352C397.067 79.6009 397.196 79.7288 397.364 79.8187C397.533 79.9087 397.733 79.9537 397.965 79.9537L397.965 81.4132C397.489 81.4132 397.076 81.3055 396.725 81.09C396.375 80.8746 396.104 80.5727 395.912 80.1845C395.72 79.7962 395.624 79.3488 395.624 78.8422C395.624 78.3213 395.717 77.868 395.901 77.4821C396.084 77.0938 396.337 76.792 396.661 76.5765C396.986 76.3611 397.357 76.2534 397.776 76.2534C398.051 76.2534 398.322 76.3078 398.59 76.4167C398.857 76.5233 399.154 76.7138 399.481 76.9885C399.805 77.2631 400.195 77.6502 400.649 78.1497L401.69 79.2115L401.739 79.2115L401.739 76.1575L402.997 76.1575L402.997 81.3422ZM395.724 71.8793L402.997 71.8793L402.997 73.4169L397.183 73.4169L397.183 73.4595L398.227 75.125L396.864 75.125L395.724 73.3246L395.724 71.8793ZM395.624 65.2049C395.624 64.8308 395.687 64.471 395.813 64.1254C395.938 63.7773 396.138 63.4672 396.413 63.195C396.687 62.9203 397.052 62.7037 397.507 62.5451C397.959 62.3841 398.514 62.3024 399.172 62.3001C399.79 62.3001 400.342 62.3699 400.827 62.5096C401.31 62.6469 401.721 62.8446 402.059 63.1026C402.398 63.3607 402.656 63.672 402.833 64.0366C403.008 64.4012 403.096 64.8084 403.096 65.2582C403.096 65.7435 403.002 66.172 402.815 66.5437C402.626 66.9154 402.369 67.2148 402.045 67.4421C401.718 67.667 401.351 67.8031 400.944 67.8505L400.944 66.3342C401.209 66.275 401.415 66.1507 401.562 65.9613C401.706 65.7719 401.779 65.5375 401.779 65.2582C401.779 64.7847 401.573 64.4248 401.161 64.1786C400.746 63.9324 400.179 63.8081 399.46 63.8058L399.46 63.8555C399.673 63.9644 399.856 64.1112 400.01 64.2958C400.162 64.4805 400.279 64.6924 400.362 64.9315C400.444 65.1682 400.486 65.4203 400.486 65.6879C400.486 66.1164 400.385 66.4987 400.184 66.8349C399.983 67.171 399.706 67.4362 399.353 67.6303C399 67.8245 398.598 67.9215 398.146 67.9215C397.658 67.9239 397.224 67.8114 396.842 67.5842C396.461 67.3569 396.163 67.0397 395.948 66.6325C395.73 66.2229 395.622 65.747 395.624 65.2049ZM396.832 65.1942C396.832 65.4334 396.889 65.6464 397.002 65.8335C397.116 66.0181 397.269 66.1649 397.46 66.2738C397.652 66.3803 397.866 66.4324 398.103 66.43C398.342 66.43 398.558 66.378 398.749 66.2738C398.939 66.1673 399.09 66.0228 399.204 65.8406C399.315 65.6559 399.371 65.4452 399.371 65.2085C399.371 65.0309 399.338 64.8664 399.271 64.7148C399.205 64.5633 399.114 64.4319 398.998 64.3207C398.88 64.207 398.744 64.1183 398.59 64.0543C398.436 63.9904 398.272 63.9585 398.1 63.9585C397.87 63.9608 397.659 64.0153 397.467 64.1218C397.276 64.2283 397.122 64.3751 397.006 64.5621C396.89 64.7492 396.832 64.9599 396.832 65.1942ZM403.096 58.5465C403.096 59.0768 403.005 59.5491 402.823 59.9634C402.638 60.3754 402.385 60.7009 402.063 60.94C401.738 61.1767 401.364 61.2987 400.94 61.3058L400.94 59.7575C401.118 59.748 401.274 59.69 401.409 59.5835C401.542 59.4745 401.645 59.3301 401.718 59.1502C401.792 58.9703 401.828 58.7679 401.828 58.543C401.828 58.3086 401.787 58.1014 401.704 57.9215C401.621 57.7416 401.506 57.6007 401.36 57.4989C401.213 57.3971 401.043 57.3462 400.852 57.3462C400.658 57.3462 400.486 57.4007 400.337 57.5096C400.185 57.6161 400.067 57.77 399.982 57.9712C399.896 58.1701 399.854 58.4068 399.854 58.6815L399.854 59.3597L398.725 59.3597L398.725 58.6815C398.725 58.4495 398.684 58.2447 398.604 58.0671C398.523 57.8872 398.412 57.7475 398.27 57.6481C398.126 57.5487 397.958 57.4989 397.766 57.4989C397.583 57.4989 397.424 57.5427 397.286 57.6303C397.147 57.7156 397.038 57.8363 396.96 57.9925C396.882 58.1464 396.842 58.3263 396.842 58.5323C396.842 58.7406 396.88 58.9312 396.956 59.104C397.029 59.2769 397.135 59.4154 397.272 59.5195C397.409 59.6237 397.57 59.6793 397.755 59.6864L397.755 61.1602C397.336 61.1531 396.967 61.0335 396.647 60.8015C396.328 60.5695 396.078 60.257 395.898 59.864C395.716 59.4686 395.624 59.0224 395.624 58.5252C395.624 58.0233 395.716 57.5842 395.898 57.2077C396.08 56.8313 396.326 56.5389 396.636 56.3306C396.944 56.1199 397.29 56.0157 397.673 56.0181C398.081 56.0157 398.42 56.1424 398.693 56.3981C398.965 56.6514 399.138 56.9817 399.211 57.3888L399.268 57.3888C399.337 56.8538 399.522 56.4466 399.825 56.1673C400.126 55.8855 400.502 55.7459 400.955 55.7482C401.369 55.7459 401.737 55.8654 402.059 56.1069C402.381 56.346 402.634 56.6763 402.819 57.0977C403.004 57.5191 403.096 58.002 403.096 58.5465ZM402.997 54.6429L401.889 54.6429L399.492 52.0542C399.279 51.834 399.087 51.6493 398.916 51.5002C398.746 51.3487 398.579 51.2338 398.416 51.1557C398.25 51.0776 398.071 51.0385 397.879 51.0385C397.666 51.0385 397.483 51.0871 397.329 51.1841C397.173 51.2812 397.053 51.4138 396.97 51.5819C396.885 51.7499 396.842 51.9405 396.842 52.1536C396.842 52.3761 396.887 52.5703 396.977 52.736C397.067 52.9017 397.196 53.0295 397.364 53.1195C397.533 53.2095 397.733 53.2544 397.965 53.2544L397.965 54.714C397.489 54.714 397.076 54.6062 396.725 54.3908C396.375 54.1754 396.104 53.8735 395.912 53.4853C395.72 53.097 395.624 52.6496 395.624 52.1429C395.624 51.6221 395.717 51.1687 395.901 50.7828C396.084 50.3946 396.337 50.0927 396.661 49.8773C396.986 49.6619 397.357 49.5542 397.776 49.5542C398.051 49.5542 398.322 49.6086 398.59 49.7175C398.857 49.824 399.154 50.0146 399.481 50.2892C399.805 50.5639 400.195 50.9509 400.649 51.4505L401.69 52.5123L401.739 52.5123L401.739 49.4583L402.997 49.4583L402.997 54.6429ZM403.096 45.6559C403.096 46.1862 403.005 46.6585 402.823 47.0728C402.638 47.4847 402.385 47.8103 402.063 48.0494C401.738 48.2861 401.364 48.408 400.94 48.4151L400.94 46.8668C401.118 46.8574 401.274 46.7994 401.409 46.6928C401.542 46.5839 401.645 46.4395 401.718 46.2596C401.792 46.0797 401.828 45.8772 401.828 45.6523C401.828 45.418 401.787 45.2108 401.704 45.0309C401.621 44.851 401.506 44.7101 401.36 44.6083C401.213 44.5065 401.043 44.4556 400.852 44.4556C400.658 44.4556 400.486 44.5101 400.337 44.619C400.185 44.7255 400.067 44.8794 399.982 45.0806C399.896 45.2795 399.854 45.5162 399.854 45.7908L399.854 46.4691L398.725 46.4691L398.725 45.7908C398.725 45.5588 398.684 45.354 398.604 45.1765C398.523 44.9966 398.412 44.8569 398.27 44.7575C398.126 44.658 397.958 44.6083 397.766 44.6083C397.583 44.6083 397.424 44.6521 397.286 44.7397C397.147 44.8249 397.038 44.9457 396.96 45.1019C396.882 45.2558 396.842 45.4357 396.842 45.6417C396.842 45.85 396.88 46.0406 396.956 46.2134C397.029 46.3862 397.135 46.5247 397.272 46.6289C397.409 46.7331 397.57 46.7887 397.755 46.7958L397.755 48.2695C397.336 48.2624 396.967 48.1429 396.647 47.9109C396.328 47.6789 396.078 47.3664 395.898 46.9734C395.716 46.578 395.624 46.1317 395.624 45.6346C395.624 45.1327 395.716 44.6935 395.898 44.3171C396.08 43.9407 396.326 43.6483 396.636 43.44C396.944 43.2293 397.29 43.1251 397.673 43.1275C398.081 43.1251 398.42 43.2518 398.693 43.5075C398.965 43.7608 399.138 44.091 399.211 44.4982L399.268 44.4982C399.337 43.9632 399.522 43.556 399.825 43.2766C400.126 42.9949 400.502 42.8552 400.955 42.8576C401.369 42.8552 401.737 42.9748 402.059 43.2163C402.381 43.4554 402.634 43.7856 402.819 44.207C403.004 44.6284 403.096 45.1114 403.096 45.6559Z" fill="white"/>
<path d="M69.2948 94.4L84.2228 76.88C85.9028 74.816 86.9588 71.84 86.9588 70.352L86.9108 68.768C86.9108 66.704 84.2228 64.64 82.2068 64.64H80.9108C78.8468 64.64 76.5908 66.704 76.5908 68.768V69.68H70.9748V68.384C70.9748 63.008 75.5348 58.928 81.6788 58.928C90.1748 58.928 94.0628 63.968 94.0628 69.392C94.0628 73.088 93.2948 75.392 90.7988 78.272C89.3108 79.952 86.6228 82.736 81.7748 87.584H93.4868V94.4H69.2948ZM112.841 94.4H107.849C103.097 94.4 98.8253 92.144 98.8253 85.808V68C98.8253 61.616 105.209 59.36 109.481 59.36H111.689C116.873 59.36 122.345 61.664 122.345 68.048V85.376C122.345 90.608 118.793 94.4 112.841 94.4ZM109.049 87.968H111.065C113.177 87.968 113.801 85.856 113.801 83.744V68C113.801 65.84 113.129 63.68 111.113 63.68H109.001C106.889 63.68 105.209 65.84 105.209 68V83.744C105.209 85.856 104.777 87.968 109.049 87.968ZM155.242 60.896L137.53 93.008H131.386L149.242 60.896H155.242ZM154.474 96.32H149.962C147.706 96.32 144.73 95.168 144.73 91.616V85.76C144.73 82.88 147.322 80.624 150.01 80.624H154.186C157.45 80.624 158.746 82.88 158.746 86.288V91.664C158.746 94.496 156.73 96.32 154.474 96.32ZM151.45 93.056H152.794C154.282 93.056 154.618 91.904 154.618 90.944V86.432C154.618 85.328 154.282 84.32 152.602 84.32H151.69C149.626 84.32 149.53 85.76 149.53 86.864V90.464C149.53 91.184 149.53 93.056 151.45 93.056ZM136.042 74.96H131.674C129.418 74.96 126.922 73.808 126.922 70.256V64.4C126.922 61.52 128.986 59.264 131.722 59.264H135.898C139.162 59.264 140.938 61.52 140.938 64.928V70.304C140.938 73.136 138.298 74.96 136.042 74.96ZM132.97 71.696H134.314C135.802 71.696 136.33 70.544 136.33 69.584V65.072C136.33 63.968 135.994 62.96 134.314 62.96H133.402C131.338 62.96 131.242 64.4 131.242 65.504V69.104C131.242 69.824 131.05 71.696 132.97 71.696ZM181.857 97.904V87.296H203.649V85.088H181.857V81.2H210.321V91.568H187.953V93.392H210.321V97.904H181.857ZM191.409 59.504H198.321V63.392H194.625C195.585 64.4 196.209 65.792 196.209 67.328V73.04C196.209 76.112 193.617 78.704 190.689 78.704H185.361C182.433 78.704 179.649 76.112 179.649 73.04V67.328C179.649 65.792 180.225 64.496 181.329 63.392H178.689V59.504H185.553V57.2H191.409V59.504ZM215.553 65.456V71.12H210.033V78.608H203.985V56.96H210.033V65.456H215.553ZM191.361 71.888V68.432C191.361 67.088 190.401 66.08 188.913 66.08H187.137C185.745 66.08 184.497 67.088 184.497 68.432V71.888C184.497 73.232 185.745 74.336 187.137 74.336H188.913C190.401 74.336 191.361 73.232 191.361 71.888ZM225.628 57.776H232.156C235.804 57.776 238.876 60.8 238.876 64.688V71.6C238.876 75.44 235.804 78.56 232.156 78.56H225.628C221.98 78.56 218.668 75.44 218.668 71.6V64.688C218.668 60.8 221.98 57.776 225.628 57.776ZM222.988 96.896V83.216H229.564V91.04H251.26V96.896H222.988ZM251.26 82.64H244.876V56.96H251.26V82.64ZM232.924 70.208V66.032C232.924 64.352 231.676 63.104 229.996 63.104H227.74C226.06 63.104 224.62 64.352 224.62 66.032V70.208C224.62 71.936 226.06 73.184 227.74 73.184H229.996C231.676 73.184 232.924 71.936 232.924 70.208Z" fill="white"/>
<path d="M95.5714 45.08H94.3814C94.9414 44.45 95.8234 42.854 96.2294 41.888C96.4954 41.258 96.7894 40.404 96.8734 39.872H97.8394C98.1054 41.006 99.7154 44.086 100.387 44.996H99.2254C98.6654 44.086 97.8954 42.518 97.4054 41.398C96.9294 42.784 96.0614 44.45 95.5714 45.08ZM95.5854 50.12V46.69H96.5514V49.252H103.005V50.12H95.5854ZM101.703 45.85V39.214H102.753V45.85H101.703ZM107.851 46.116V45.178H117.623V46.116H115.369V50.176H114.501V46.116H111.113V50.176H110.133V46.116H107.851ZM108.803 40.334V39.452H116.657V40.264C116.657 41.482 116.363 42.476 116.181 43.134C116.097 43.456 115.999 43.736 115.901 44.044H114.865C115.159 43.316 115.439 42.14 115.537 41.342C115.579 41.034 115.607 40.768 115.621 40.334H108.803ZM129.741 41.384V40.446H134.781V41.454C134.781 43.33 133.661 44.996 132.079 46.746C131.505 47.39 130.833 47.936 130.105 48.51V47.25C132.219 45.612 133.759 43.064 133.731 41.384H129.741ZM136.965 49.91V39.256H137.973V43.036H139.681V44.03H137.973V49.91H136.965ZM144.324 43.176V41.146C144.324 40.334 145.01 39.592 145.92 39.592H147.558C148.482 39.592 149.112 40.334 149.112 41.146V43.176C149.112 43.974 148.426 44.73 147.502 44.73H145.962C145.052 44.73 144.324 43.974 144.324 43.176ZM145.234 41.482V42.84C145.234 43.54 145.71 43.946 146.368 43.946H147.124C147.824 43.946 148.244 43.54 148.244 42.84V41.482C148.244 40.782 147.852 40.39 147.152 40.39H146.368C145.71 40.39 145.234 40.782 145.234 41.482ZM145.696 50.176V46.298H146.662V47.544H151.646V46.298H152.556V50.176H145.696ZM146.662 49.574H151.646V48.062H146.662V49.574ZM151.632 45.262V39.172H152.514V45.262H151.632ZM164.752 40.88V40.068H169.834V40.782C169.834 42.294 169.582 43.092 169.106 44.128C168.924 44.506 168.644 44.94 168.392 45.262H167.314C168.532 43.666 168.756 42.168 168.756 40.88H164.752ZM166.054 50.176V46.55H173.264V50.176H166.054ZM166.81 49.406H172.466V47.306H166.81V49.406ZM172.2 45.444V39.172H173.096V41.706H174.776V42.588H173.096V45.444H172.2ZM179.243 47.012V46.046C179.495 45.948 179.831 45.71 180.139 45.444C181.595 44.184 181.679 42.826 181.679 40.978V39.998H182.673V40.964C182.673 42.91 182.687 44.086 184.045 45.416C184.283 45.64 184.647 45.976 184.927 46.074V47.026C183.835 46.592 182.561 45.388 182.127 44.436C181.735 45.374 180.419 46.578 179.243 47.012ZM186.593 50.148V39.368H187.573V43.106H189.183V44.1H187.573V50.148H186.593ZM200.894 46.298V45.388H207.586C207.964 44.59 208.202 44.03 208.398 43.008H202.812V42.294H208.482C208.552 41.65 208.552 41.02 208.524 40.292H202.448V39.494H209.518V40.334C209.518 42.616 208.958 44.492 208.552 45.388H210.96V46.298H206.424V50.162H205.402V46.298H200.894ZM215.556 45.724V44.982H220.232V43.498H216.83V42.728H219.21L217.908 40.6H218.902L220.162 42.658H221.114L222.15 40.6H223.144L221.968 42.728H224.418V43.498H221.226V44.982H225.762V45.724H215.556ZM216.802 49.966V46.634H217.824V49.028H224.838V49.966H216.802ZM216.83 39.956V39.158H224.418V39.956H216.83Z" fill="white"/>
<path d="M107.565 119.564H112.549C113.683 119.564 114.369 120.152 114.369 121.048V122.056C114.369 123.134 113.557 123.582 112.703 123.582H107.411C106.501 123.582 105.745 123.008 105.745 122.224V121.048C105.745 119.97 106.809 119.564 107.565 119.564ZM109.091 111.612H110.995V112.55H114.607V113.936H111.751C112.339 114.636 113.025 114.93 114.411 115.294V116.54C112.703 116.386 111.247 115.924 110.169 114.622C109.497 115.812 106.767 116.47 105.801 116.624V115.28C106.627 115.098 107.635 114.818 108.545 113.936H105.759V112.55H109.091V111.612ZM111.107 117.212H115.531V118.836H104.723V117.212H109.315V115.784H111.107V117.212ZM112.073 121.062H108.265C107.719 121.062 107.551 121.258 107.551 121.468V121.832C107.551 122.252 107.901 122.224 108.265 122.224H112.143C112.479 122.224 112.703 122.028 112.703 121.762V121.496C112.703 121.216 112.451 121.062 112.073 121.062ZM130.53 112.088V113.558C130.516 115.084 130.18 116.162 129.802 116.876C129.592 117.296 129.34 117.646 129.074 117.912H127.156C128.458 116.54 128.598 114.496 128.598 113.628H124.986V112.088H130.53ZM134.758 111.78V117.94H132.98V116.988H131.174V115.476H132.98V114.468H131.202V112.984H132.98V111.78H134.758ZM126.47 123.582V120.53H132.84V119.914H126.47V118.682H134.744V121.79H128.22V122.308H134.744V123.582H126.47ZM144.893 114.342H142.555C142.499 115.168 142.387 118.808 144.725 119.592V121.23C144.277 121.146 143.857 120.992 143.451 120.768C142.765 120.39 141.967 119.76 141.561 118.64C141.225 119.69 140.455 120.32 139.783 120.712C139.377 120.95 138.957 121.118 138.509 121.23V119.592C140.833 118.794 140.637 115.168 140.581 114.342H138.369V112.844H144.893V114.342ZM145.551 111.78H147.259V123.568H145.551V117.744H143.969V115.756H145.551V111.78ZM149.765 111.78V123.568H148.085V111.78H149.765ZM169.54 119.004V123.344H161.196V119.004H169.54ZM169.344 111.892V113.614C169.344 114.356 169.204 115.042 169.078 115.546C169.008 115.84 168.924 116.12 168.826 116.358H167.09C167.37 115.7 167.51 115 167.566 114.482C167.608 114.174 167.622 113.88 167.608 113.614H161.574V111.892H169.344ZM170.814 118.22H159.922V116.778H170.814V118.22ZM168.112 120.516H162.722V121.832H168.112V120.516ZM176.082 112.354H177.328C178.35 112.354 179.344 113.208 179.344 114.272V116.204C179.344 117.282 178.35 118.136 177.328 118.136H176.082C175.074 118.136 174.01 117.282 174.01 116.204V114.272C174.01 113.208 175.074 112.354 176.082 112.354ZM177.692 115.826V114.664C177.692 114.174 177.496 113.838 177.006 113.838H176.404C175.914 113.838 175.648 114.174 175.648 114.664V115.826C175.648 116.288 175.914 116.652 176.404 116.652H177.006C177.496 116.652 177.692 116.288 177.692 115.826ZM182.788 111.794H184.384V118.598H182.788V116.092H181.752V118.598H180.156V111.794H181.752V114.748H182.788V111.794ZM175.788 119.27H184.244V120.922H184.23C184.216 121.636 184.076 122.28 183.922 122.77C183.824 123.064 183.726 123.33 183.628 123.568H181.878C182.2 122.938 182.354 122.266 182.424 121.762C182.466 121.468 182.48 121.188 182.48 120.922H175.788V119.27ZM195.615 123.722V120.628H201.971V119.984H195.615V118.85H203.917V121.874H197.393V122.406H203.917V123.722H195.615ZM198.401 112.522H200.417V113.656H199.339C199.619 113.95 199.801 114.356 199.801 114.804V116.47C199.801 117.366 199.045 118.122 198.191 118.122H196.637C195.783 118.122 194.971 117.366 194.971 116.47V114.804C194.971 114.356 195.139 113.978 195.461 113.656H194.691V112.522H196.693V111.85H198.401V112.522ZM205.443 114.258V115.91H203.833V118.094H202.069V111.78H203.833V114.258H205.443ZM198.387 116.134V115.126C198.387 114.734 198.107 114.44 197.673 114.44H197.155C196.749 114.44 196.385 114.734 196.385 115.126V116.134C196.385 116.526 196.749 116.848 197.155 116.848H197.673C198.107 116.848 198.387 116.526 198.387 116.134ZM210.382 112.018H212.286C213.35 112.018 214.246 112.9 214.246 114.034V116.05C214.246 117.17 213.35 118.08 212.286 118.08H210.382C209.318 118.08 208.352 117.17 208.352 116.05V114.034C208.352 112.9 209.318 112.018 210.382 112.018ZM209.612 123.428V119.438H211.53V121.72H217.858V123.428H209.612ZM217.858 119.27H215.996V111.78H217.858V119.27ZM212.51 115.644V114.426C212.51 113.936 212.146 113.572 211.656 113.572H210.998C210.508 113.572 210.088 113.936 210.088 114.426V115.644C210.088 116.148 210.508 116.512 210.998 116.512H211.656C212.146 116.512 212.51 116.148 212.51 115.644Z" fill="white"/>
<path d="M279.374 38L301.798 45.3324L274.685 90.82L265.016 87.7271L279.374 38Z" fill="#FFD663"/>
<path d="M302.075 45.447H306.931L279.734 90.776H274.877L302.075 45.447Z" fill="#DFBA53"/>
<path d="M285.238 38L306.931 45.1231H301.75L280.057 38H285.238Z" fill="#FFD663"/>
<path d="M263.333 90.6538L274.925 94.5697L269.754 103.815L261.466 100.403L263.333 90.6538Z" fill="#FFD663"/>
<path d="M275.024 94.6095L278.021 94.1577L273.166 103.328L269.753 103.815L275.024 94.6095Z" fill="#DFBA53"/>
<path d="M267.963 90.5717L272.154 92.0622L278.021 94.1576L275.047 94.5026L263.411 90.5716L267.963 90.5717Z" fill="#FFD663"/>
<defs>
<linearGradient id="paint0_linear_141_25" x1="213.873" y1="-13.7136" x2="213.873" y2="176.714" gradientUnits="userSpaceOnUse">
<stop stop-color="#04C066"/>
<stop offset="0.078125" stop-color="#04C066" stop-opacity="0.8"/>
<stop offset="0.5" stop-color="#04C066"/>
<stop offset="0.927083" stop-color="#04C066" stop-opacity="0.8"/>
<stop offset="1" stop-color="#04C066"/>
</linearGradient>
</defs>
</svg>
