<svg width="421" height="153" viewBox="0 0 421 153" fill="none" xmlns="http://www.w3.org/2000/svg">
<path fill-rule="evenodd" clip-rule="evenodd" d="M20.7471 10.0001C14.1197 10.0001 8.74707 15.3727 8.74707 22.0001V73.2363C13.5095 73.2363 17.3702 77.097 17.3702 81.8594C17.3702 86.6218 13.5095 90.4825 8.74707 90.4825V141C8.74707 147.628 14.1197 153 20.7471 153H337.863V151.024H339.863V153H408.501C415.128 153 420.501 147.628 420.501 141V90.4825C415.738 90.4825 411.878 86.6218 411.878 81.8594C411.878 77.097 415.738 73.2363 420.501 73.2363V22.0001C420.501 15.3727 415.128 10.0001 408.501 10.0001H20.7471ZM337.863 10.7187V12.6948H339.863V10.7187L337.863 10.7187ZM337.863 16.6471V20.5994H339.863V16.6471H337.863ZM337.863 24.5516V28.5039H339.863V24.5516H337.863ZM337.863 32.4562V36.4084H339.863V32.4562H337.863ZM337.863 40.3607V44.3129H339.863V40.3607H337.863ZM337.863 48.2652V52.2175H339.863V48.2652H337.863ZM337.863 56.1697V60.122H339.863V56.1697H337.863ZM337.863 64.0742V68.0265H339.863V64.0742H337.863ZM337.863 71.9788V75.931H339.863V71.9788H337.863ZM337.863 83.8356H339.863V79.8833H337.863V83.8356ZM337.863 87.7878V91.7401H339.863V87.7878H337.863ZM337.863 95.6923V99.6446H339.863V95.6923H337.863ZM337.863 103.597V107.549H339.863V103.597H337.863ZM337.863 111.501V115.454H339.863V111.501H337.863ZM337.863 119.406V123.358H339.863V119.406H337.863ZM337.863 127.31V131.263H339.863V127.31H337.863ZM337.863 135.215V139.167H339.863V135.215H337.863ZM337.863 143.119V147.072H339.863V143.119H337.863Z" fill="url(#paint0_linear_141_27)"/>
<line x1="356.265" y1="40.0931" x2="391.747" y2="40.0931" stroke="white"/>
<line x1="356.265" y1="43.9047" x2="391.747" y2="43.9047" stroke="white" stroke-width="2"/>
<line x1="356.265" y1="47.2789" x2="391.747" y2="47.2789" stroke="white"/>
<line x1="356.265" y1="51.0908" x2="391.747" y2="51.0908" stroke="white" stroke-width="2"/>
<line x1="356.265" y1="127.261" x2="391.747" y2="127.261" stroke="white" stroke-width="2"/>
<line x1="356.265" y1="65.9624" x2="391.747" y2="65.9624" stroke="white"/>
<line x1="356.265" y1="55.1836" x2="391.747" y2="55.1836" stroke="white"/>
<line x1="356.265" y1="53.7466" x2="391.747" y2="53.7466" stroke="white"/>
<line x1="356.265" y1="62.3696" x2="391.747" y2="62.3696" stroke="white"/>
<line x1="356.265" y1="56.6206" x2="391.747" y2="56.6206" stroke="white"/>
<line x1="356.265" y1="60.9321" x2="391.747" y2="60.9321" stroke="white"/>
<line x1="356.265" y1="80.3345" x2="391.747" y2="80.3345" stroke="white"/>
<line x1="356.265" y1="99.0176" x2="391.747" y2="99.0176" stroke="white"/>
<line x1="356.265" y1="117.701" x2="391.747" y2="117.701" stroke="white"/>
<line x1="356.265" y1="119.138" x2="391.747" y2="119.138" stroke="white"/>
<line x1="356.265" y1="125.605" x2="391.747" y2="125.605" stroke="white"/>
<line x1="356.265" y1="122.731" x2="391.747" y2="122.731" stroke="white"/>
<line x1="356.265" y1="82.4902" x2="391.747" y2="82.4902" stroke="white"/>
<line x1="356.265" y1="88.6763" x2="391.747" y2="88.6763" stroke="white" stroke-width="3"/>
<line x1="356.265" y1="130.354" x2="391.747" y2="130.354" stroke="white" stroke-width="3"/>
<line x1="356.265" y1="103.767" x2="391.747" y2="103.767" stroke="white" stroke-width="3"/>
<line x1="356.265" y1="35.5001" x2="391.747" y2="35.5001" stroke="white" stroke-width="3"/>
<line x1="356.265" y1="113.827" x2="391.747" y2="113.827" stroke="white" stroke-width="3"/>
<line x1="356.265" y1="69.7739" x2="391.747" y2="69.7739" stroke="white" stroke-width="2"/>
<line x1="356.265" y1="106.922" x2="391.747" y2="106.922" stroke="white"/>
<line x1="356.265" y1="110.734" x2="391.747" y2="110.734" stroke="white" stroke-width="2"/>
<line x1="356.265" y1="93.269" x2="391.747" y2="93.269" stroke="white"/>
<line x1="356.265" y1="97.0806" x2="391.747" y2="97.0806" stroke="white" stroke-width="2"/>
<line x1="356.265" y1="73.8672" x2="391.747" y2="73.8672" stroke="white"/>
<line x1="356.265" y1="77.6787" x2="391.747" y2="77.6787" stroke="white" stroke-width="2"/>
<path d="M87.7364 61.36V96.4H79.0964V67.888H74.6324V61.36H87.7364ZM107.526 96.4H102.534C97.7819 96.4 93.5099 94.144 93.5099 87.808V70C93.5099 63.616 99.8939 61.36 104.166 61.36H106.374C111.558 61.36 117.03 63.664 117.03 70.048V87.376C117.03 92.608 113.478 96.4 107.526 96.4ZM103.734 89.968H105.75C107.862 89.968 108.486 87.856 108.486 85.744V70C108.486 67.84 107.814 65.68 105.798 65.68H103.686C101.574 65.68 99.8939 67.84 99.8939 70V85.744C99.8939 87.856 99.4619 89.968 103.734 89.968ZM149.927 62.896L132.215 95.008H126.071L143.927 62.896H149.927ZM149.159 98.32H144.647C142.391 98.32 139.415 97.168 139.415 93.616V87.76C139.415 84.88 142.007 82.624 144.695 82.624H148.871C152.135 82.624 153.431 84.88 153.431 88.288V93.664C153.431 96.496 151.415 98.32 149.159 98.32ZM146.135 95.056H147.479C148.967 95.056 149.303 93.904 149.303 92.944V88.432C149.303 87.328 148.967 86.32 147.287 86.32H146.375C144.311 86.32 144.215 87.76 144.215 88.864V92.464C144.215 93.184 144.215 95.056 146.135 95.056ZM130.727 76.96H126.359C124.103 76.96 121.607 75.808 121.607 72.256V66.4C121.607 63.52 123.671 61.264 126.407 61.264H130.583C133.847 61.264 135.623 63.52 135.623 66.928V72.304C135.623 75.136 132.983 76.96 130.727 76.96ZM127.655 73.696H128.999C130.487 73.696 131.015 72.544 131.015 71.584V67.072C131.015 65.968 130.679 64.96 128.999 64.96H128.087C126.023 64.96 125.927 66.4 125.927 67.504V71.104C125.927 71.824 125.735 73.696 127.655 73.696ZM176.542 99.904V89.296H198.334V87.088H176.542V83.2H205.006V93.568H182.638V95.392H205.006V99.904H176.542ZM186.094 61.504H193.006V65.392H189.31C190.27 66.4 190.894 67.792 190.894 69.328V75.04C190.894 78.112 188.302 80.704 185.374 80.704H180.046C177.118 80.704 174.334 78.112 174.334 75.04V69.328C174.334 67.792 174.91 66.496 176.014 65.392H173.374V61.504H180.238V59.2H186.094V61.504ZM210.238 67.456V73.12H204.718V80.608H198.67V58.96H204.718V67.456H210.238ZM186.046 73.888V70.432C186.046 69.088 185.086 68.08 183.598 68.08H181.822C180.43 68.08 179.182 69.088 179.182 70.432V73.888C179.182 75.232 180.43 76.336 181.822 76.336H183.598C185.086 76.336 186.046 75.232 186.046 73.888ZM220.312 59.776H226.84C230.488 59.776 233.56 62.8 233.56 66.688V73.6C233.56 77.44 230.488 80.56 226.84 80.56H220.312C216.664 80.56 213.352 77.44 213.352 73.6V66.688C213.352 62.8 216.664 59.776 220.312 59.776ZM217.672 98.896V85.216H224.248V93.04H245.944V98.896H217.672ZM245.944 84.64H239.56V58.96H245.944V84.64ZM227.608 72.208V68.032C227.608 66.352 226.36 65.104 224.68 65.104H222.424C220.744 65.104 219.304 66.352 219.304 68.032V72.208C219.304 73.936 220.744 75.184 222.424 75.184H224.68C226.36 75.184 227.608 73.936 227.608 72.208Z" fill="white"/>
<path d="M86.3184 47.0801H85.1284C85.6884 46.4501 86.5704 44.8541 86.9764 43.8881C87.2424 43.2581 87.5364 42.4041 87.6204 41.8721H88.5864C88.8524 43.0061 90.4624 46.0861 91.1344 46.9961H89.9724C89.4124 46.0861 88.6424 44.5181 88.1524 43.3981C87.6764 44.7841 86.8084 46.4501 86.3184 47.0801ZM86.3324 52.1201V48.6901H87.2984V51.2521H93.7524V52.1201H86.3324ZM92.4504 47.8501V41.2141H93.5004V47.8501H92.4504ZM100.598 48.1161V47.1781H110.37V48.1161H108.116V52.1761H107.248V48.1161H103.86V52.1761H102.88V48.1161H100.598ZM101.55 42.3341V41.4521H109.404V42.2641C109.404 43.4821 109.11 44.4761 108.928 45.1341C108.844 45.4561 108.746 45.7361 108.648 46.0441H107.612C107.906 45.3161 108.186 44.1401 108.284 43.3421C108.326 43.0341 108.354 42.7681 108.368 42.3341H101.55ZM126.488 43.3841V42.4461H131.528V43.4541C131.528 45.3301 130.408 46.9961 128.826 48.7461C128.252 49.3901 127.58 49.9361 126.852 50.5101V49.2501C128.966 47.6121 130.506 45.0641 130.478 43.3841H126.488ZM133.712 51.9101V41.2561H134.72V45.0361H136.428V46.0301H134.72V51.9101H133.712ZM143.071 45.1761V43.1461C143.071 42.3341 143.757 41.5921 144.667 41.5921H146.305C147.229 41.5921 147.859 42.3341 147.859 43.1461V45.1761C147.859 45.9741 147.173 46.7301 146.249 46.7301H144.709C143.799 46.7301 143.071 45.9741 143.071 45.1761ZM143.981 43.4821V44.8401C143.981 45.5401 144.457 45.9461 145.115 45.9461H145.871C146.571 45.9461 146.991 45.5401 146.991 44.8401V43.4821C146.991 42.7821 146.599 42.3901 145.899 42.3901H145.115C144.457 42.3901 143.981 42.7821 143.981 43.4821ZM144.443 52.1761V48.2981H145.409V49.5441H150.393V48.2981H151.303V52.1761H144.443ZM145.409 51.5741H150.393V50.0621H145.409V51.5741ZM150.379 47.2621V41.1721H151.261V47.2621H150.379ZM167.499 42.8801V42.0681H172.581V42.7821C172.581 44.2941 172.329 45.0921 171.853 46.1281C171.671 46.5061 171.391 46.9401 171.139 47.2621H170.061C171.279 45.6661 171.503 44.1681 171.503 42.8801H167.499ZM168.801 52.1761V48.5501H176.011V52.1761H168.801ZM169.557 51.4061H175.213V49.3061H169.557V51.4061ZM174.947 47.4441V41.1721H175.843V43.7061H177.523V44.5881H175.843V47.4441H174.947ZM183.99 49.0121V48.0461C184.242 47.9481 184.578 47.7101 184.886 47.4441C186.342 46.1841 186.426 44.8261 186.426 42.9781V41.9981H187.42V42.9641C187.42 44.9101 187.434 46.0861 188.792 47.4161C189.03 47.6401 189.394 47.9761 189.674 48.0741V49.0261C188.582 48.5921 187.308 47.3881 186.874 46.4361C186.482 47.3741 185.166 48.5781 183.99 49.0121ZM191.34 52.1481V41.3681H192.32V45.1061H193.93V46.1001H192.32V52.1481H191.34ZM209.641 48.2981V47.3881H216.333C216.711 46.5901 216.949 46.0301 217.145 45.0081H211.559V44.2941H217.229C217.299 43.6501 217.299 43.0201 217.271 42.2921H211.195V41.4941H218.265V42.3341C218.265 44.6161 217.705 46.4921 217.299 47.3881H219.707V48.2981H215.171V52.1621H214.149V48.2981H209.641ZM226.303 47.7241V46.9821H230.979V45.4981H227.577V44.7281H229.957L228.655 42.6001H229.649L230.909 44.6581H231.861L232.897 42.6001H233.891L232.715 44.7281H235.165V45.4981H231.973V46.9821H236.509V47.7241H226.303ZM227.549 51.9661V48.6341H228.571V51.0281H235.585V51.9661H227.549ZM227.577 41.9561V41.1581H235.165V41.9561H227.577Z" fill="white"/>
<path d="M107.312 121.564H112.296C113.43 121.564 114.116 122.152 114.116 123.048V124.056C114.116 125.134 113.304 125.582 112.45 125.582H107.158C106.248 125.582 105.492 125.008 105.492 124.224V123.048C105.492 121.97 106.556 121.564 107.312 121.564ZM108.838 113.612H110.742V114.55H114.354V115.936H111.498C112.086 116.636 112.772 116.93 114.158 117.294V118.54C112.45 118.386 110.994 117.924 109.916 116.622C109.244 117.812 106.514 118.47 105.548 118.624V117.28C106.374 117.098 107.382 116.818 108.292 115.936H105.506V114.55H108.838V113.612ZM110.854 119.212H115.278V120.836H104.47V119.212H109.062V117.784H110.854V119.212ZM111.82 123.062H108.012C107.466 123.062 107.298 123.258 107.298 123.468V123.832C107.298 124.252 107.648 124.224 108.012 124.224H111.89C112.226 124.224 112.45 124.028 112.45 123.762V123.496C112.45 123.216 112.198 123.062 111.82 123.062ZM130.277 114.088V115.558C130.263 117.084 129.927 118.162 129.549 118.876C129.339 119.296 129.087 119.646 128.821 119.912H126.903C128.205 118.54 128.345 116.496 128.345 115.628H124.733V114.088H130.277ZM134.505 113.78V119.94H132.727V118.988H130.921V117.476H132.727V116.468H130.949V114.984H132.727V113.78H134.505ZM126.217 125.582V122.53H132.587V121.914H126.217V120.682H134.491V123.79H127.967V124.308H134.491V125.582H126.217ZM144.64 116.342H142.302C142.246 117.168 142.134 120.808 144.472 121.592V123.23C144.024 123.146 143.604 122.992 143.198 122.768C142.512 122.39 141.714 121.76 141.308 120.64C140.972 121.69 140.202 122.32 139.53 122.712C139.124 122.95 138.704 123.118 138.256 123.23V121.592C140.58 120.794 140.384 117.168 140.328 116.342H138.116V114.844H144.64V116.342ZM145.298 113.78H147.006V125.568H145.298V119.744H143.716V117.756H145.298V113.78ZM149.512 113.78V125.568H147.832V113.78H149.512ZM169.287 121.004V125.344H160.943V121.004H169.287ZM169.091 113.892V115.614C169.091 116.356 168.951 117.042 168.825 117.546C168.755 117.84 168.671 118.12 168.573 118.358H166.837C167.117 117.7 167.257 117 167.313 116.482C167.355 116.174 167.369 115.88 167.355 115.614H161.321V113.892H169.091ZM170.561 120.22H159.669V118.778H170.561V120.22ZM167.859 122.516H162.469V123.832H167.859V122.516ZM175.829 114.354H177.075C178.097 114.354 179.091 115.208 179.091 116.272V118.204C179.091 119.282 178.097 120.136 177.075 120.136H175.829C174.821 120.136 173.757 119.282 173.757 118.204V116.272C173.757 115.208 174.821 114.354 175.829 114.354ZM177.439 117.826V116.664C177.439 116.174 177.243 115.838 176.753 115.838H176.151C175.661 115.838 175.395 116.174 175.395 116.664V117.826C175.395 118.288 175.661 118.652 176.151 118.652H176.753C177.243 118.652 177.439 118.288 177.439 117.826ZM182.535 113.794H184.131V120.598H182.535V118.092H181.499V120.598H179.903V113.794H181.499V116.748H182.535V113.794ZM175.535 121.27H183.991V122.922H183.977C183.963 123.636 183.823 124.28 183.669 124.77C183.571 125.064 183.473 125.33 183.375 125.568H181.625C181.947 124.938 182.101 124.266 182.171 123.762C182.213 123.468 182.227 123.188 182.227 122.922H175.535V121.27ZM195.362 125.722V122.628H201.718V121.984H195.362V120.85H203.664V123.874H197.14V124.406H203.664V125.722H195.362ZM198.148 114.522H200.164V115.656H199.086C199.366 115.95 199.548 116.356 199.548 116.804V118.47C199.548 119.366 198.792 120.122 197.938 120.122H196.384C195.53 120.122 194.718 119.366 194.718 118.47V116.804C194.718 116.356 194.886 115.978 195.208 115.656H194.438V114.522H196.44V113.85H198.148V114.522ZM205.19 116.258V117.91H203.58V120.094H201.816V113.78H203.58V116.258H205.19ZM198.134 118.134V117.126C198.134 116.734 197.854 116.44 197.42 116.44H196.902C196.496 116.44 196.132 116.734 196.132 117.126V118.134C196.132 118.526 196.496 118.848 196.902 118.848H197.42C197.854 118.848 198.134 118.526 198.134 118.134ZM210.129 114.018H212.033C213.097 114.018 213.993 114.9 213.993 116.034V118.05C213.993 119.17 213.097 120.08 212.033 120.08H210.129C209.065 120.08 208.099 119.17 208.099 118.05V116.034C208.099 114.9 209.065 114.018 210.129 114.018ZM209.359 125.428V121.438H211.277V123.72H217.605V125.428H209.359ZM217.605 121.27H215.743V113.78H217.605V121.27ZM212.257 117.644V116.426C212.257 115.936 211.893 115.572 211.403 115.572H210.745C210.255 115.572 209.835 115.936 209.835 116.426V117.644C209.835 118.148 210.255 118.512 210.745 118.512H211.403C211.893 118.512 212.257 118.148 212.257 117.644Z" fill="white"/>
<path d="M274.121 40.0001L296.545 47.3325L269.432 92.8202L259.764 89.7273L274.121 40.0001Z" fill="#FFD663"/>
<path d="M296.822 47.4471H301.679L274.481 92.7761H269.625L296.822 47.4471Z" fill="#DFBA53"/>
<path d="M279.985 40.0001L301.678 47.1232H296.497L274.804 40.0001H279.985Z" fill="#FFD663"/>
<path d="M258.081 92.6541L269.672 96.57L264.501 105.815L256.213 102.403L258.081 92.6541Z" fill="#FFD663"/>
<path d="M269.771 96.6097L272.768 96.1579L267.913 105.328L264.5 105.816L269.771 96.6097Z" fill="#DFBA53"/>
<path d="M262.71 92.572L266.901 94.0624L272.768 96.1579L269.794 96.5028L258.158 92.5718L262.71 92.572Z" fill="#FFD663"/>
<path d="M8.24782 30.9037L33.2478 9.40376L49.2471 9.40375L8.24686 45.9047L8.24782 30.9037Z" fill="#FF4343"/>
<path d="M396.474 117.905L403.747 117.905L403.747 119.442L397.934 119.442L397.934 119.485L398.978 121.15L397.614 121.15L396.474 119.35L396.474 117.905ZM403.747 116.176L402.639 116.176L400.242 113.587C400.029 113.367 399.837 113.183 399.667 113.033C399.496 112.882 399.329 112.767 399.166 112.689C399 112.611 398.822 112.572 398.63 112.572C398.417 112.572 398.233 112.62 398.079 112.717C397.923 112.814 397.804 112.947 397.721 113.115C397.636 113.283 397.593 113.474 397.593 113.687C397.593 113.909 397.638 114.103 397.728 114.269C397.818 114.435 397.947 114.563 398.115 114.653C398.283 114.743 398.483 114.788 398.715 114.788L398.715 116.247C398.239 116.247 397.826 116.139 397.476 115.924C397.125 115.709 396.854 115.407 396.663 115.018C396.471 114.63 396.375 114.183 396.375 113.676C396.375 113.155 396.467 112.702 396.652 112.316C396.834 111.928 397.088 111.626 397.412 111.411C397.736 111.195 398.108 111.087 398.527 111.087C398.802 111.087 399.073 111.142 399.34 111.251C399.608 111.357 399.905 111.548 400.231 111.822C400.556 112.097 400.945 112.484 401.4 112.984L402.44 114.045L402.49 114.045L402.49 110.991L403.747 110.991L403.747 116.176ZM403.907 107.026C403.905 107.637 403.754 108.162 403.456 108.602C403.158 109.04 402.726 109.378 402.16 109.615C401.594 109.849 400.913 109.965 400.118 109.963C399.325 109.963 398.649 109.845 398.09 109.611C397.531 109.374 397.106 109.037 396.815 108.599C396.522 108.159 396.375 107.634 396.375 107.026C396.375 106.417 396.522 105.894 396.815 105.456C397.109 105.016 397.535 104.677 398.094 104.441C398.65 104.204 399.325 104.087 400.118 104.089C400.916 104.089 401.597 104.207 402.163 104.444C402.729 104.678 403.161 105.015 403.459 105.453C403.758 105.891 403.907 106.415 403.907 107.026ZM402.632 107.026C402.632 106.609 402.422 106.276 402.003 106.028C401.584 105.779 400.956 105.656 400.118 105.659C399.566 105.659 399.107 105.715 398.74 105.829C398.373 105.94 398.097 106.099 397.913 106.305C397.728 106.508 397.636 106.749 397.636 107.026C397.636 107.44 397.843 107.771 398.257 108.02C398.671 108.269 399.292 108.394 400.118 108.396C400.677 108.396 401.143 108.341 401.517 108.23C401.889 108.116 402.168 107.956 402.355 107.75C402.54 107.544 402.632 107.303 402.632 107.026ZM403.847 100.336C403.847 100.838 403.754 101.286 403.57 101.679C403.385 102.069 403.13 102.379 402.806 102.609C402.482 102.839 402.11 102.958 401.691 102.968L401.691 101.476C401.973 101.46 402.201 101.341 402.376 101.121C402.552 100.901 402.639 100.639 402.639 100.336C402.639 100.095 402.586 99.8817 402.479 99.6971C402.37 99.5101 402.22 99.3645 402.028 99.2603C401.834 99.1538 401.612 99.1005 401.361 99.1005C401.105 99.1005 400.88 99.1549 400.686 99.2638C400.492 99.3704 400.34 99.5183 400.231 99.7077C400.123 99.8971 400.067 100.114 400.065 100.358C400.065 100.571 400.108 100.778 400.196 100.979C400.284 101.178 400.403 101.333 400.555 101.444L400.31 102.811L396.474 102.467L396.474 98.021L397.731 98.021L397.731 101.199L399.553 101.387L399.553 101.345C399.373 101.217 399.224 101.024 399.106 100.766C398.987 100.508 398.928 100.219 398.928 99.8995C398.928 99.4615 399.031 99.0709 399.237 98.7276C399.443 98.3844 399.726 98.1133 400.086 97.9144C400.443 97.7156 400.855 97.6173 401.322 97.6197C401.812 97.6173 402.247 97.7309 402.628 97.9606C403.007 98.1879 403.306 98.5063 403.523 98.9158C403.739 99.323 403.847 99.7965 403.847 100.336ZM403.847 91.5446C403.847 92.0749 403.755 92.5472 403.573 92.9615C403.388 93.3734 403.135 93.6989 402.813 93.938C402.489 94.1748 402.115 94.2967 401.691 94.3038L401.691 92.7555C401.869 92.746 402.025 92.688 402.16 92.5815C402.292 92.4726 402.395 92.3282 402.469 92.1483C402.542 91.9683 402.579 91.7659 402.579 91.541C402.579 91.3066 402.537 91.0995 402.454 90.9196C402.372 90.7396 402.257 90.5988 402.11 90.497C401.963 90.3952 401.794 90.3443 401.602 90.3443C401.408 90.3443 401.236 90.3987 401.087 90.5076C400.936 90.6142 400.817 90.7681 400.732 90.9693C400.647 91.1681 400.604 91.4049 400.604 91.6795L400.604 92.3578L399.475 92.3578L399.475 91.6795C399.475 91.4475 399.435 91.2427 399.354 91.0652C399.274 90.8852 399.163 90.7456 399.021 90.6461C398.876 90.5467 398.708 90.497 398.516 90.497C398.334 90.497 398.174 90.5408 398.037 90.6284C397.897 90.7136 397.788 90.8343 397.71 90.9906C397.632 91.1445 397.593 91.3244 397.593 91.5304C397.593 91.7387 397.631 91.9293 397.707 92.1021C397.78 92.2749 397.885 92.4134 398.023 92.5176C398.16 92.6217 398.321 92.6774 398.506 92.6845L398.506 94.1582C398.087 94.1511 397.717 94.0315 397.398 93.7995C397.078 93.5675 396.828 93.255 396.648 92.862C396.466 92.4667 396.375 92.0204 396.375 91.5233C396.375 91.0214 396.466 90.5822 396.648 90.2058C396.831 89.8294 397.077 89.537 397.387 89.3287C397.695 89.118 398.04 89.0138 398.424 89.0162C398.831 89.0138 399.171 89.1404 399.443 89.3961C399.715 89.6494 399.888 89.9797 399.962 90.3869L400.018 90.3869C400.087 89.8519 400.273 89.4447 400.576 89.1653C400.877 88.8836 401.253 88.7439 401.705 88.7463C402.119 88.7439 402.488 88.8635 402.81 89.1049C403.132 89.344 403.385 89.6743 403.57 90.0957C403.754 90.5171 403.847 91.0001 403.847 91.5446ZM403.747 87.641L402.639 87.641L400.242 85.0522C400.029 84.832 399.837 84.6474 399.667 84.4982C399.496 84.3467 399.329 84.2319 399.166 84.1538C399 84.0756 398.822 84.0366 398.63 84.0366C398.417 84.0366 398.233 84.0851 398.079 84.1822C397.923 84.2792 397.804 84.4118 397.721 84.5799C397.636 84.748 397.593 84.9386 397.593 85.1516C397.593 85.3742 397.638 85.5683 397.728 85.734C397.818 85.8997 397.947 86.0276 398.115 86.1175C398.283 86.2075 398.483 86.2525 398.715 86.2525L398.715 87.712C398.239 87.712 397.826 87.6043 397.476 87.3888C397.125 87.1734 396.854 86.8716 396.663 86.4833C396.471 86.0951 396.375 85.6476 396.375 85.141C396.375 84.6201 396.467 84.1668 396.652 83.7809C396.834 83.3926 397.088 83.0908 397.412 82.8754C397.736 82.6599 398.108 82.5522 398.527 82.5522C398.802 82.5522 399.073 82.6067 399.34 82.7156C399.608 82.8221 399.905 83.0127 400.231 83.2873C400.556 83.5619 400.945 83.949 401.4 84.4485L402.44 85.5103L402.49 85.5103L402.49 82.4563L403.747 82.4563L403.747 87.641ZM403.747 81.3422L402.639 81.3422L400.242 78.7534C400.029 78.5332 399.837 78.3485 399.667 78.1994C399.496 78.0479 399.329 77.9331 399.166 77.8549C399 77.7768 398.822 77.7377 398.63 77.7377C398.417 77.7377 398.233 77.7863 398.079 77.8833C397.923 77.9804 397.804 78.113 397.721 78.2811C397.636 78.4492 397.593 78.6397 397.593 78.8528C397.593 79.0753 397.638 79.2695 397.728 79.4352C397.818 79.6009 397.947 79.7288 398.115 79.8187C398.283 79.9087 398.483 79.9537 398.715 79.9537L398.715 81.4132C398.239 81.4132 397.826 81.3055 397.476 81.09C397.125 80.8746 396.854 80.5727 396.663 80.1845C396.471 79.7962 396.375 79.3488 396.375 78.8422C396.375 78.3213 396.467 77.868 396.652 77.4821C396.834 77.0938 397.088 76.792 397.412 76.5765C397.736 76.3611 398.108 76.2534 398.527 76.2534C398.802 76.2534 399.073 76.3078 399.34 76.4167C399.608 76.5233 399.905 76.7138 400.231 76.9885C400.556 77.2631 400.945 77.6502 401.4 78.1497L402.44 79.2115L402.49 79.2115L402.49 76.1575L403.747 76.1575L403.747 81.3422ZM396.474 71.8793L403.747 71.8793L403.747 73.4169L397.934 73.4169L397.934 73.4595L398.978 75.125L397.614 75.125L396.474 73.3246L396.474 71.8793ZM396.375 65.2049C396.375 64.8308 396.438 64.471 396.563 64.1254C396.689 63.7773 396.889 63.4672 397.163 63.195C397.438 62.9203 397.802 62.7037 398.257 62.5451C398.709 62.3841 399.264 62.3024 399.922 62.3001C400.54 62.3001 401.092 62.3699 401.577 62.5096C402.06 62.6469 402.471 62.8446 402.81 63.1026C403.148 63.3607 403.406 63.672 403.584 64.0366C403.759 64.4012 403.846 64.8084 403.846 65.2582C403.846 65.7435 403.753 66.172 403.566 66.5437C403.377 66.9154 403.12 67.2148 402.795 67.4421C402.469 67.667 402.102 67.8031 401.695 67.8505L401.695 66.3342C401.96 66.275 402.166 66.1507 402.312 65.9613C402.457 65.7719 402.529 65.5375 402.529 65.2582C402.529 64.7847 402.323 64.4248 401.911 64.1786C401.497 63.9324 400.93 63.8081 400.21 63.8058L400.21 63.8555C400.423 63.9644 400.607 64.1112 400.761 64.2958C400.912 64.4805 401.029 64.6924 401.112 64.9315C401.195 65.1682 401.236 65.4203 401.236 65.6879C401.236 66.1164 401.136 66.4987 400.935 66.8349C400.733 67.171 400.456 67.4362 400.104 67.6303C399.751 67.8245 399.348 67.9215 398.896 67.9215C398.409 67.9239 397.974 67.8114 397.593 67.5842C397.212 67.3569 396.913 67.0397 396.698 66.6325C396.48 66.2229 396.373 65.747 396.375 65.2049ZM397.582 65.1942C397.582 65.4334 397.639 65.6464 397.753 65.8335C397.866 66.0181 398.019 66.1649 398.211 66.2738C398.403 66.3803 398.617 66.4324 398.854 66.43C399.093 66.43 399.308 66.378 399.5 66.2738C399.689 66.1673 399.841 66.0228 399.954 65.8406C400.066 65.6559 400.121 65.4452 400.121 65.2085C400.121 65.0309 400.088 64.8664 400.022 64.7148C399.956 64.5633 399.864 64.4319 399.748 64.3207C399.63 64.207 399.494 64.1183 399.34 64.0543C399.186 63.9904 399.023 63.9585 398.85 63.9585C398.62 63.9608 398.41 64.0153 398.218 64.1218C398.026 64.2283 397.872 64.3751 397.756 64.5621C397.64 64.7492 397.582 64.9599 397.582 65.1942ZM403.846 58.5465C403.846 59.0768 403.755 59.5491 403.573 59.9634C403.388 60.3754 403.135 60.7009 402.813 60.94C402.489 61.1767 402.115 61.2987 401.691 61.3058L401.691 59.7575C401.869 59.748 402.025 59.69 402.16 59.5835C402.292 59.4745 402.395 59.3301 402.469 59.1502C402.542 58.9703 402.579 58.7679 402.579 58.543C402.579 58.3086 402.537 58.1014 402.454 57.9215C402.372 57.7416 402.257 57.6007 402.11 57.4989C401.963 57.3971 401.794 57.3462 401.602 57.3462C401.408 57.3462 401.236 57.4007 401.087 57.5096C400.936 57.6161 400.817 57.77 400.732 57.9712C400.647 58.1701 400.604 58.4068 400.604 58.6815L400.604 59.3597L399.475 59.3597L399.475 58.6815C399.475 58.4495 399.435 58.2447 399.354 58.0671C399.274 57.8872 399.163 57.7475 399.021 57.6481C398.876 57.5487 398.708 57.4989 398.516 57.4989C398.334 57.4989 398.174 57.5427 398.037 57.6303C397.897 57.7156 397.788 57.8363 397.71 57.9925C397.632 58.1464 397.593 58.3263 397.593 58.5323C397.593 58.7406 397.631 58.9312 397.707 59.104C397.78 59.2769 397.885 59.4154 398.023 59.5195C398.16 59.6237 398.321 59.6793 398.506 59.6864L398.506 61.1602C398.087 61.1531 397.717 61.0335 397.398 60.8015C397.078 60.5695 396.828 60.257 396.648 59.864C396.466 59.4686 396.375 59.0224 396.375 58.5252C396.375 58.0233 396.466 57.5842 396.648 57.2077C396.831 56.8313 397.077 56.5389 397.387 56.3306C397.695 56.1199 398.04 56.0157 398.424 56.0181C398.831 56.0157 399.171 56.1424 399.443 56.3981C399.715 56.6514 399.888 56.9817 399.962 57.3888L400.018 57.3888C400.087 56.8538 400.273 56.4466 400.576 56.1673C400.877 55.8855 401.253 55.7459 401.705 55.7482C402.119 55.7459 402.488 55.8654 402.81 56.1069C403.132 56.346 403.385 56.6763 403.57 57.0977C403.754 57.5191 403.846 58.002 403.846 58.5465ZM403.747 54.6429L402.639 54.6429L400.242 52.0542C400.029 51.834 399.837 51.6493 399.667 51.5002C399.496 51.3487 399.329 51.2338 399.166 51.1557C399 51.0776 398.822 51.0385 398.63 51.0385C398.417 51.0385 398.233 51.0871 398.079 51.1841C397.923 51.2812 397.804 51.4138 397.721 51.5819C397.636 51.7499 397.593 51.9405 397.593 52.1536C397.593 52.3761 397.638 52.5703 397.728 52.736C397.818 52.9017 397.947 53.0295 398.115 53.1195C398.283 53.2095 398.483 53.2544 398.715 53.2544L398.715 54.714C398.239 54.714 397.826 54.6062 397.476 54.3908C397.125 54.1754 396.854 53.8735 396.663 53.4853C396.471 53.097 396.375 52.6496 396.375 52.1429C396.375 51.6221 396.467 51.1687 396.652 50.7828C396.834 50.3946 397.088 50.0927 397.412 49.8773C397.736 49.6619 398.108 49.5542 398.527 49.5542C398.802 49.5542 399.073 49.6086 399.34 49.7175C399.608 49.824 399.905 50.0146 400.231 50.2892C400.556 50.5639 400.945 50.9509 401.4 51.4505L402.44 52.5123L402.49 52.5123L402.49 49.4583L403.747 49.4583L403.747 54.6429ZM403.846 45.6559C403.846 46.1862 403.755 46.6585 403.573 47.0728C403.388 47.4847 403.135 47.8103 402.813 48.0494C402.489 48.2861 402.115 48.408 401.691 48.4151L401.691 46.8668C401.869 46.8574 402.025 46.7994 402.16 46.6928C402.292 46.5839 402.395 46.4395 402.469 46.2596C402.542 46.0797 402.579 45.8772 402.579 45.6523C402.579 45.418 402.537 45.2108 402.454 45.0309C402.372 44.851 402.257 44.7101 402.11 44.6083C401.963 44.5065 401.794 44.4556 401.602 44.4556C401.408 44.4556 401.236 44.5101 401.087 44.619C400.936 44.7255 400.817 44.8794 400.732 45.0806C400.647 45.2795 400.604 45.5162 400.604 45.7908L400.604 46.4691L399.475 46.4691L399.475 45.7908C399.475 45.5588 399.435 45.354 399.354 45.1765C399.274 44.9966 399.163 44.8569 399.021 44.7575C398.876 44.658 398.708 44.6083 398.516 44.6083C398.334 44.6083 398.174 44.6521 398.037 44.7397C397.897 44.8249 397.788 44.9457 397.71 45.1019C397.632 45.2558 397.593 45.4357 397.593 45.6417C397.593 45.85 397.631 46.0406 397.707 46.2134C397.78 46.3862 397.885 46.5247 398.023 46.6289C398.16 46.7331 398.321 46.7887 398.506 46.7958L398.506 48.2695C398.087 48.2624 397.717 48.1429 397.398 47.9109C397.078 47.6789 396.828 47.3664 396.648 46.9734C396.466 46.578 396.375 46.1317 396.375 45.6346C396.375 45.1327 396.466 44.6935 396.648 44.3171C396.831 43.9407 397.077 43.6483 397.387 43.44C397.695 43.2293 398.04 43.1251 398.424 43.1275C398.831 43.1251 399.171 43.2518 399.443 43.5075C399.715 43.7608 399.888 44.091 399.962 44.4982L400.018 44.4982C400.087 43.9632 400.273 43.556 400.576 43.2766C400.877 42.9949 401.253 42.8552 401.705 42.8576C402.119 42.8552 402.488 42.9748 402.81 43.2163C403.132 43.4554 403.385 43.7856 403.57 44.207C403.754 44.6284 403.846 45.1114 403.846 45.6559Z" fill="white"/>
<defs>
<linearGradient id="paint0_linear_141_27" x1="214.624" y1="10.0001" x2="214.624" y2="153" gradientUnits="userSpaceOnUse">
<stop stop-color="#04C066"/>
<stop offset="0.0625" stop-color="#04C066" stop-opacity="0.8"/>
<stop offset="0.505208" stop-color="#04C066"/>
<stop offset="0.932292" stop-color="#04C066" stop-opacity="0.8"/>
<stop offset="1" stop-color="#04C066"/>
</linearGradient>
</defs>
</svg>
