<svg width="420" height="153" viewBox="0 0 420 153" fill="none" xmlns="http://www.w3.org/2000/svg">
<path fill-rule="evenodd" clip-rule="evenodd" d="M346 10C346 14.0409 343.004 17.382 339.112 17.9233V20.5992H337.112V17.9513C333.112 17.5096 330 14.1182 330 10H19.9966C13.3692 10 7.99658 15.3726 7.99658 22V141C7.99658 147.627 13.3692 153 19.9966 153H330C330 148.882 333.112 145.49 337.112 145.049V143.119H339.112V145.077C343.004 145.618 346 148.959 346 153H407.75C413.709 153 418.653 148.657 419.59 142.964C417.635 142.702 416.127 141.027 416.127 139C416.127 136.918 417.718 135.208 419.75 135.018V130.982C417.718 130.792 416.127 129.082 416.127 127C416.127 124.918 417.718 123.208 419.75 123.018V117.982C417.718 117.792 416.127 116.082 416.127 114C416.127 111.918 417.718 110.208 419.75 110.018V105.982C417.718 105.792 416.127 104.082 416.127 102C416.127 99.918 417.718 98.2076 419.75 98.0175V93.2185C417.718 93.0285 416.127 91.318 416.127 89.2361C416.127 87.1541 417.718 85.4437 419.75 85.2536V81.2185C417.718 81.0285 416.127 79.318 416.127 77.2361C416.127 75.1541 417.718 73.4437 419.75 73.2536V68.9825C417.718 68.7924 416.127 67.082 416.127 65C416.127 62.918 417.718 61.2076 419.75 61.0175V56.9825C417.718 56.7924 416.127 55.082 416.127 53C416.127 50.918 417.718 49.2076 419.75 49.0175V43.9825C417.718 43.7924 416.127 42.082 416.127 40C416.127 37.918 417.718 36.2076 419.75 36.0175V31.9825C417.718 31.7924 416.127 30.082 416.127 28C416.127 25.918 417.718 24.2076 419.75 24.0175V22C419.75 15.3726 414.378 10 407.75 10H346ZM337.112 24.5515V28.5038H339.112V24.5515H337.112ZM337.112 32.456V36.4083H339.112V32.456H337.112ZM337.112 40.3606V44.3128H339.112V40.3606H337.112ZM337.112 48.2651V52.2173H339.112V48.2651H337.112ZM337.112 56.1696V60.1219H339.112V56.1696H337.112ZM337.112 64.0741V68.0264H339.112V64.0741H337.112ZM337.112 71.9787V75.9309H339.112V71.9787H337.112ZM337.112 79.8832V83.8354H339.112V79.8832H337.112ZM337.112 87.7877V91.74H339.112V87.7877H337.112ZM337.112 95.6922V99.6445H339.112V95.6922H337.112ZM337.112 103.597V107.549H339.112V103.597H337.112ZM337.112 111.501V115.454H339.112V111.501H337.112ZM337.112 119.406V123.358H339.112V119.406H337.112ZM337.112 127.31V131.263H339.112V127.31H337.112ZM337.112 135.215V139.167H339.112V135.215H337.112Z" fill="url(#paint0_linear_258_25)"/>
<line x1="355.514" y1="40.093" x2="390.997" y2="40.093" stroke="white"/>
<line x1="355.514" y1="43.9045" x2="390.997" y2="43.9045" stroke="white" stroke-width="2"/>
<line x1="355.514" y1="47.2788" x2="390.997" y2="47.2788" stroke="white"/>
<line x1="355.514" y1="51.0906" x2="390.997" y2="51.0906" stroke="white" stroke-width="2"/>
<line x1="355.514" y1="127.261" x2="390.997" y2="127.261" stroke="white" stroke-width="2"/>
<line x1="355.514" y1="65.9624" x2="390.997" y2="65.9624" stroke="white"/>
<line x1="355.514" y1="55.1833" x2="390.997" y2="55.1833" stroke="white"/>
<line x1="355.514" y1="53.7463" x2="390.997" y2="53.7463" stroke="white"/>
<line x1="355.514" y1="62.3694" x2="390.997" y2="62.3694" stroke="white"/>
<line x1="355.514" y1="56.6206" x2="390.997" y2="56.6206" stroke="white"/>
<line x1="355.514" y1="60.9321" x2="390.997" y2="60.9321" stroke="white"/>
<line x1="355.514" y1="80.3342" x2="390.997" y2="80.3342" stroke="white"/>
<line x1="355.514" y1="99.0176" x2="390.997" y2="99.0176" stroke="white"/>
<line x1="355.514" y1="117.701" x2="390.997" y2="117.701" stroke="white"/>
<line x1="355.514" y1="119.138" x2="390.997" y2="119.138" stroke="white"/>
<line x1="355.514" y1="125.605" x2="390.997" y2="125.605" stroke="white"/>
<line x1="355.514" y1="122.731" x2="390.997" y2="122.731" stroke="white"/>
<line x1="355.514" y1="82.49" x2="390.997" y2="82.49" stroke="white"/>
<line x1="355.514" y1="88.676" x2="390.997" y2="88.676" stroke="white" stroke-width="3"/>
<line x1="355.514" y1="130.354" x2="390.997" y2="130.354" stroke="white" stroke-width="3"/>
<line x1="355.514" y1="103.766" x2="390.997" y2="103.766" stroke="white" stroke-width="3"/>
<line x1="355.514" y1="35.5" x2="390.997" y2="35.5" stroke="white" stroke-width="3"/>
<line x1="355.514" y1="113.827" x2="390.997" y2="113.827" stroke="white" stroke-width="3"/>
<line x1="355.514" y1="69.7739" x2="390.997" y2="69.7739" stroke="white" stroke-width="2"/>
<line x1="355.514" y1="106.922" x2="390.997" y2="106.922" stroke="white"/>
<line x1="355.514" y1="110.734" x2="390.997" y2="110.734" stroke="white" stroke-width="2"/>
<line x1="355.514" y1="93.2688" x2="390.997" y2="93.2688" stroke="white"/>
<line x1="355.514" y1="97.0803" x2="390.997" y2="97.0803" stroke="white" stroke-width="2"/>
<line x1="355.514" y1="73.8669" x2="390.997" y2="73.8669" stroke="white"/>
<line x1="355.514" y1="77.6785" x2="390.997" y2="77.6785" stroke="white" stroke-width="2"/>
<path d="M7.49733 30.9036L32.4973 9.40363L48.4966 9.40363L7.49637 45.9046L7.49733 30.9036Z" fill="#FF4343"/>
<path d="M395.724 117.905L402.997 117.905L402.997 119.442L397.183 119.442L397.183 119.485L398.227 121.15L396.864 121.15L395.724 119.35L395.724 117.905ZM402.997 116.176L401.889 116.176L399.492 113.587C399.279 113.367 399.087 113.183 398.916 113.033C398.746 112.882 398.579 112.767 398.416 112.689C398.25 112.611 398.071 112.572 397.879 112.572C397.666 112.572 397.483 112.62 397.329 112.717C397.173 112.814 397.053 112.947 396.97 113.115C396.885 113.283 396.842 113.474 396.842 113.687C396.842 113.909 396.887 114.103 396.977 114.269C397.067 114.435 397.196 114.563 397.364 114.653C397.533 114.743 397.733 114.788 397.965 114.788L397.965 116.247C397.489 116.247 397.076 116.139 396.725 115.924C396.375 115.709 396.104 115.407 395.912 115.018C395.72 114.63 395.624 114.183 395.624 113.676C395.624 113.155 395.717 112.702 395.901 112.316C396.084 111.928 396.337 111.626 396.661 111.411C396.986 111.195 397.357 111.087 397.776 111.087C398.051 111.087 398.322 111.142 398.59 111.251C398.857 111.357 399.154 111.548 399.481 111.822C399.805 112.097 400.195 112.484 400.649 112.984L401.69 114.045L401.739 114.045L401.739 110.991L402.997 110.991L402.997 116.176ZM403.156 107.026C403.154 107.637 403.004 108.162 402.705 108.602C402.407 109.04 401.975 109.378 401.409 109.615C400.843 109.849 400.163 109.965 399.367 109.963C398.574 109.963 397.898 109.845 397.34 109.611C396.781 109.374 396.356 109.037 396.065 108.599C395.771 108.159 395.624 107.634 395.624 107.026C395.624 106.417 395.771 105.894 396.065 105.456C396.358 105.016 396.784 104.677 397.343 104.441C397.9 104.204 398.574 104.087 399.367 104.089C400.165 104.089 400.847 104.207 401.413 104.444C401.979 104.678 402.411 105.015 402.709 105.453C403.007 105.891 403.156 106.415 403.156 107.026ZM401.882 107.026C401.882 106.609 401.672 106.276 401.253 106.028C400.834 105.779 400.205 105.656 399.367 105.659C398.816 105.659 398.356 105.715 397.989 105.829C397.623 105.94 397.347 106.099 397.162 106.305C396.977 106.508 396.885 106.749 396.885 107.026C396.885 107.44 397.092 107.771 397.507 108.02C397.921 108.269 398.541 108.394 399.367 108.396C399.926 108.396 400.392 108.341 400.766 108.23C401.138 108.116 401.418 107.956 401.605 107.75C401.789 107.544 401.882 107.303 401.882 107.026ZM403.096 100.336C403.096 100.838 403.004 101.286 402.819 101.679C402.634 102.069 402.38 102.379 402.056 102.609C401.731 102.839 401.36 102.958 400.94 102.968L400.94 101.476C401.222 101.46 401.451 101.341 401.626 101.121C401.801 100.901 401.889 100.639 401.889 100.336C401.889 100.095 401.835 99.8817 401.729 99.6971C401.62 99.5101 401.47 99.3645 401.278 99.2603C401.084 99.1538 400.861 99.1005 400.61 99.1005C400.355 99.1005 400.13 99.1549 399.936 99.2638C399.741 99.3704 399.59 99.5183 399.481 99.7077C399.372 99.8971 399.316 100.114 399.314 100.358C399.314 100.571 399.358 100.778 399.445 100.979C399.533 101.178 399.653 101.333 399.804 101.444L399.559 102.811L395.724 102.467L395.724 98.021L396.981 98.021L396.981 101.199L398.803 101.387L398.803 101.345C398.623 101.217 398.474 101.024 398.355 100.766C398.237 100.508 398.178 100.219 398.178 99.8995C398.178 99.4615 398.281 99.0709 398.487 98.7276C398.693 98.3844 398.976 98.1133 399.335 97.9144C399.693 97.7156 400.105 97.6173 400.571 97.6197C401.061 97.6173 401.497 97.7309 401.878 97.9606C402.257 98.1879 402.555 98.5063 402.773 98.9158C402.988 99.323 403.096 99.7965 403.096 100.336ZM403.096 91.5446C403.096 92.0749 403.005 92.5472 402.823 92.9615C402.638 93.3734 402.385 93.6989 402.063 93.938C401.738 94.1748 401.364 94.2967 400.94 94.3038L400.94 92.7555C401.118 92.746 401.274 92.688 401.409 92.5815C401.542 92.4726 401.645 92.3282 401.718 92.1483C401.792 91.9683 401.828 91.7659 401.828 91.541C401.828 91.3066 401.787 91.0995 401.704 90.9196C401.621 90.7396 401.506 90.5988 401.36 90.497C401.213 90.3952 401.043 90.3443 400.852 90.3443C400.658 90.3443 400.486 90.3987 400.337 90.5076C400.185 90.6142 400.067 90.7681 399.982 90.9693C399.896 91.1681 399.854 91.4049 399.854 91.6795L399.854 92.3578L398.725 92.3578L398.725 91.6795C398.725 91.4475 398.684 91.2427 398.604 91.0652C398.523 90.8852 398.412 90.7456 398.27 90.6461C398.126 90.5467 397.958 90.497 397.766 90.497C397.583 90.497 397.424 90.5408 397.286 90.6284C397.147 90.7136 397.038 90.8343 396.96 90.9906C396.882 91.1445 396.842 91.3244 396.842 91.5304C396.842 91.7387 396.88 91.9293 396.956 92.1021C397.029 92.2749 397.135 92.4134 397.272 92.5176C397.409 92.6217 397.57 92.6774 397.755 92.6845L397.755 94.1582C397.336 94.1511 396.967 94.0315 396.647 93.7995C396.328 93.5675 396.078 93.255 395.898 92.862C395.716 92.4667 395.624 92.0204 395.624 91.5233C395.624 91.0214 395.716 90.5822 395.898 90.2058C396.08 89.8294 396.326 89.537 396.636 89.3287C396.944 89.118 397.29 89.0138 397.673 89.0162C398.081 89.0138 398.42 89.1404 398.693 89.3961C398.965 89.6494 399.138 89.9797 399.211 90.3869L399.268 90.3869C399.337 89.8519 399.522 89.4447 399.825 89.1653C400.126 88.8836 400.502 88.7439 400.955 88.7463C401.369 88.7439 401.737 88.8635 402.059 89.1049C402.381 89.344 402.634 89.6743 402.819 90.0957C403.004 90.5171 403.096 91.0001 403.096 91.5446ZM402.997 87.641L401.889 87.641L399.492 85.0522C399.279 84.832 399.087 84.6474 398.916 84.4982C398.746 84.3467 398.579 84.2319 398.416 84.1538C398.25 84.0756 398.071 84.0366 397.879 84.0366C397.666 84.0366 397.483 84.0851 397.329 84.1822C397.173 84.2792 397.053 84.4118 396.97 84.5799C396.885 84.748 396.842 84.9386 396.842 85.1516C396.842 85.3742 396.887 85.5683 396.977 85.734C397.067 85.8997 397.196 86.0276 397.364 86.1175C397.533 86.2075 397.733 86.2525 397.965 86.2525L397.965 87.712C397.489 87.712 397.076 87.6043 396.725 87.3888C396.375 87.1734 396.104 86.8716 395.912 86.4833C395.72 86.0951 395.624 85.6476 395.624 85.141C395.624 84.6201 395.717 84.1668 395.901 83.7809C396.084 83.3926 396.337 83.0908 396.661 82.8754C396.986 82.6599 397.357 82.5522 397.776 82.5522C398.051 82.5522 398.322 82.6067 398.59 82.7156C398.857 82.8221 399.154 83.0127 399.481 83.2873C399.805 83.5619 400.195 83.949 400.649 84.4485L401.69 85.5103L401.739 85.5103L401.739 82.4563L402.997 82.4563L402.997 87.641ZM402.997 81.3422L401.889 81.3422L399.492 78.7534C399.279 78.5332 399.087 78.3485 398.916 78.1994C398.746 78.0479 398.579 77.9331 398.416 77.8549C398.25 77.7768 398.071 77.7377 397.879 77.7377C397.666 77.7377 397.483 77.7863 397.329 77.8833C397.173 77.9804 397.053 78.113 396.97 78.2811C396.885 78.4492 396.842 78.6397 396.842 78.8528C396.842 79.0753 396.887 79.2695 396.977 79.4352C397.067 79.6009 397.196 79.7288 397.364 79.8187C397.533 79.9087 397.733 79.9537 397.965 79.9537L397.965 81.4132C397.489 81.4132 397.076 81.3055 396.725 81.09C396.375 80.8746 396.104 80.5727 395.912 80.1845C395.72 79.7962 395.624 79.3488 395.624 78.8422C395.624 78.3213 395.717 77.868 395.901 77.4821C396.084 77.0938 396.337 76.792 396.661 76.5765C396.986 76.3611 397.357 76.2534 397.776 76.2534C398.051 76.2534 398.322 76.3078 398.59 76.4167C398.857 76.5233 399.154 76.7138 399.481 76.9885C399.805 77.2631 400.195 77.6502 400.649 78.1497L401.69 79.2115L401.739 79.2115L401.739 76.1575L402.997 76.1575L402.997 81.3422ZM395.724 71.8793L402.997 71.8793L402.997 73.4169L397.183 73.4169L397.183 73.4595L398.227 75.125L396.864 75.125L395.724 73.3246L395.724 71.8793ZM395.624 65.2049C395.624 64.8308 395.687 64.471 395.813 64.1254C395.938 63.7773 396.138 63.4672 396.413 63.195C396.687 62.9203 397.052 62.7037 397.507 62.5451C397.959 62.3841 398.514 62.3024 399.172 62.3001C399.79 62.3001 400.342 62.3699 400.827 62.5096C401.31 62.6469 401.721 62.8446 402.059 63.1026C402.398 63.3607 402.656 63.672 402.833 64.0366C403.008 64.4012 403.096 64.8084 403.096 65.2582C403.096 65.7435 403.002 66.172 402.815 66.5437C402.626 66.9154 402.369 67.2148 402.045 67.4421C401.718 67.667 401.351 67.8031 400.944 67.8505L400.944 66.3342C401.209 66.275 401.415 66.1507 401.562 65.9613C401.706 65.7719 401.779 65.5375 401.779 65.2582C401.779 64.7847 401.573 64.4248 401.161 64.1786C400.746 63.9324 400.179 63.8081 399.46 63.8058L399.46 63.8555C399.673 63.9644 399.856 64.1112 400.01 64.2958C400.162 64.4805 400.279 64.6924 400.362 64.9315C400.444 65.1682 400.486 65.4203 400.486 65.6879C400.486 66.1164 400.385 66.4987 400.184 66.8349C399.983 67.171 399.706 67.4362 399.353 67.6303C399 67.8245 398.598 67.9215 398.146 67.9215C397.658 67.9239 397.224 67.8114 396.842 67.5842C396.461 67.3569 396.163 67.0397 395.948 66.6325C395.73 66.2229 395.622 65.747 395.624 65.2049ZM396.832 65.1942C396.832 65.4334 396.889 65.6464 397.002 65.8335C397.116 66.0181 397.269 66.1649 397.46 66.2738C397.652 66.3803 397.866 66.4324 398.103 66.43C398.342 66.43 398.558 66.378 398.749 66.2738C398.939 66.1673 399.09 66.0228 399.204 65.8406C399.315 65.6559 399.371 65.4452 399.371 65.2085C399.371 65.0309 399.338 64.8664 399.271 64.7148C399.205 64.5633 399.114 64.4319 398.998 64.3207C398.88 64.207 398.744 64.1183 398.59 64.0543C398.436 63.9904 398.272 63.9585 398.1 63.9585C397.87 63.9608 397.659 64.0153 397.467 64.1218C397.276 64.2283 397.122 64.3751 397.006 64.5621C396.89 64.7492 396.832 64.9599 396.832 65.1942ZM403.096 58.5465C403.096 59.0768 403.005 59.5491 402.823 59.9634C402.638 60.3754 402.385 60.7009 402.063 60.94C401.738 61.1767 401.364 61.2987 400.94 61.3058L400.94 59.7575C401.118 59.748 401.274 59.69 401.409 59.5835C401.542 59.4745 401.645 59.3301 401.718 59.1502C401.792 58.9703 401.828 58.7679 401.828 58.543C401.828 58.3086 401.787 58.1014 401.704 57.9215C401.621 57.7416 401.506 57.6007 401.36 57.4989C401.213 57.3971 401.043 57.3462 400.852 57.3462C400.658 57.3462 400.486 57.4007 400.337 57.5096C400.185 57.6161 400.067 57.77 399.982 57.9712C399.896 58.1701 399.854 58.4068 399.854 58.6815L399.854 59.3597L398.725 59.3597L398.725 58.6815C398.725 58.4495 398.684 58.2447 398.604 58.0671C398.523 57.8872 398.412 57.7475 398.27 57.6481C398.126 57.5487 397.958 57.4989 397.766 57.4989C397.583 57.4989 397.424 57.5427 397.286 57.6303C397.147 57.7156 397.038 57.8363 396.96 57.9925C396.882 58.1464 396.842 58.3263 396.842 58.5323C396.842 58.7406 396.88 58.9312 396.956 59.104C397.029 59.2769 397.135 59.4154 397.272 59.5195C397.409 59.6237 397.57 59.6793 397.755 59.6864L397.755 61.1602C397.336 61.1531 396.967 61.0335 396.647 60.8015C396.328 60.5695 396.078 60.257 395.898 59.864C395.716 59.4686 395.624 59.0224 395.624 58.5252C395.624 58.0233 395.716 57.5842 395.898 57.2077C396.08 56.8313 396.326 56.5389 396.636 56.3306C396.944 56.1199 397.29 56.0157 397.673 56.0181C398.081 56.0157 398.42 56.1424 398.693 56.3981C398.965 56.6514 399.138 56.9817 399.211 57.3888L399.268 57.3888C399.337 56.8538 399.522 56.4466 399.825 56.1673C400.126 55.8855 400.502 55.7459 400.955 55.7482C401.369 55.7459 401.737 55.8654 402.059 56.1069C402.381 56.346 402.634 56.6763 402.819 57.0977C403.004 57.5191 403.096 58.002 403.096 58.5465ZM402.997 54.6429L401.889 54.6429L399.492 52.0542C399.279 51.834 399.087 51.6493 398.916 51.5002C398.746 51.3487 398.579 51.2338 398.416 51.1557C398.25 51.0776 398.071 51.0385 397.879 51.0385C397.666 51.0385 397.483 51.0871 397.329 51.1841C397.173 51.2812 397.053 51.4138 396.97 51.5819C396.885 51.7499 396.842 51.9405 396.842 52.1536C396.842 52.3761 396.887 52.5703 396.977 52.736C397.067 52.9017 397.196 53.0295 397.364 53.1195C397.533 53.2095 397.733 53.2544 397.965 53.2544L397.965 54.714C397.489 54.714 397.076 54.6062 396.725 54.3908C396.375 54.1754 396.104 53.8735 395.912 53.4853C395.72 53.097 395.624 52.6496 395.624 52.1429C395.624 51.6221 395.717 51.1687 395.901 50.7828C396.084 50.3946 396.337 50.0927 396.661 49.8773C396.986 49.6619 397.357 49.5542 397.776 49.5542C398.051 49.5542 398.322 49.6086 398.59 49.7175C398.857 49.824 399.154 50.0146 399.481 50.2892C399.805 50.5639 400.195 50.9509 400.649 51.4505L401.69 52.5123L401.739 52.5123L401.739 49.4583L402.997 49.4583L402.997 54.6429ZM403.096 45.6559C403.096 46.1862 403.005 46.6585 402.823 47.0728C402.638 47.4847 402.385 47.8103 402.063 48.0494C401.738 48.2861 401.364 48.408 400.94 48.4151L400.94 46.8668C401.118 46.8574 401.274 46.7994 401.409 46.6928C401.542 46.5839 401.645 46.4395 401.718 46.2596C401.792 46.0797 401.828 45.8772 401.828 45.6523C401.828 45.418 401.787 45.2108 401.704 45.0309C401.621 44.851 401.506 44.7101 401.36 44.6083C401.213 44.5065 401.043 44.4556 400.852 44.4556C400.658 44.4556 400.486 44.5101 400.337 44.619C400.185 44.7255 400.067 44.8794 399.982 45.0806C399.896 45.2795 399.854 45.5162 399.854 45.7908L399.854 46.4691L398.725 46.4691L398.725 45.7908C398.725 45.5588 398.684 45.354 398.604 45.1765C398.523 44.9966 398.412 44.8569 398.27 44.7575C398.126 44.658 397.958 44.6083 397.766 44.6083C397.583 44.6083 397.424 44.6521 397.286 44.7397C397.147 44.8249 397.038 44.9457 396.96 45.1019C396.882 45.2558 396.842 45.4357 396.842 45.6417C396.842 45.85 396.88 46.0406 396.956 46.2134C397.029 46.3862 397.135 46.5247 397.272 46.6289C397.409 46.7331 397.57 46.7887 397.755 46.7958L397.755 48.2695C397.336 48.2624 396.967 48.1429 396.647 47.9109C396.328 47.6789 396.078 47.3664 395.898 46.9734C395.716 46.578 395.624 46.1317 395.624 45.6346C395.624 45.1327 395.716 44.6935 395.898 44.3171C396.08 43.9407 396.326 43.6483 396.636 43.44C396.944 43.2293 397.29 43.1251 397.673 43.1275C398.081 43.1251 398.42 43.2518 398.693 43.5075C398.965 43.7608 399.138 44.091 399.211 44.4982L399.268 44.4982C399.337 43.9632 399.522 43.556 399.825 43.2766C400.126 42.9949 400.502 42.8552 400.955 42.8576C401.369 42.8552 401.737 42.9748 402.059 43.2163C402.381 43.4554 402.634 43.7856 402.819 44.207C403.004 44.6284 403.096 45.1114 403.096 45.6559Z" fill="white"/>
<path d="M77.2948 97.4L92.2228 79.88C93.9028 77.816 94.9588 74.84 94.9588 73.352L94.9108 71.768C94.9108 69.704 92.2228 67.64 90.2068 67.64H88.9108C86.8468 67.64 84.5908 69.704 84.5908 71.768V72.68H78.9748V71.384C78.9748 66.008 83.5348 61.928 89.6788 61.928C98.1748 61.928 102.063 66.968 102.063 72.392C102.063 76.088 101.295 78.392 98.7988 81.272C97.3108 82.952 94.6228 85.736 89.7748 90.584H101.487V97.4H77.2948ZM120.841 97.4H115.849C111.097 97.4 106.825 95.144 106.825 88.808V71C106.825 64.616 113.209 62.36 117.481 62.36H119.689C124.873 62.36 130.345 64.664 130.345 71.048V88.376C130.345 93.608 126.793 97.4 120.841 97.4ZM117.049 90.968H119.065C121.177 90.968 121.801 88.856 121.801 86.744V71C121.801 68.84 121.129 66.68 119.113 66.68H117.001C114.889 66.68 113.209 68.84 113.209 71V86.744C113.209 88.856 112.777 90.968 117.049 90.968ZM163.242 63.896L145.53 96.008H139.386L157.242 63.896H163.242ZM162.474 99.32H157.962C155.706 99.32 152.73 98.168 152.73 94.616V88.76C152.73 85.88 155.322 83.624 158.01 83.624H162.186C165.45 83.624 166.746 85.88 166.746 89.288V94.664C166.746 97.496 164.73 99.32 162.474 99.32ZM159.45 96.056H160.794C162.282 96.056 162.618 94.904 162.618 93.944V89.432C162.618 88.328 162.282 87.32 160.602 87.32H159.69C157.626 87.32 157.53 88.76 157.53 89.864V93.464C157.53 94.184 157.53 96.056 159.45 96.056ZM144.042 77.96H139.674C137.418 77.96 134.922 76.808 134.922 73.256V67.4C134.922 64.52 136.986 62.264 139.722 62.264H143.898C147.162 62.264 148.938 64.52 148.938 67.928V73.304C148.938 76.136 146.298 77.96 144.042 77.96ZM140.97 74.696H142.314C143.802 74.696 144.33 73.544 144.33 72.584V68.072C144.33 66.968 143.994 65.96 142.314 65.96H141.402C139.338 65.96 139.242 67.4 139.242 68.504V72.104C139.242 72.824 139.05 74.696 140.97 74.696ZM189.857 100.904V90.296H211.649V88.088H189.857V84.2H218.321V94.568H195.953V96.392H218.321V100.904H189.857ZM199.409 62.504H206.321V66.392H202.625C203.585 67.4 204.209 68.792 204.209 70.328V76.04C204.209 79.112 201.617 81.704 198.689 81.704H193.361C190.433 81.704 187.649 79.112 187.649 76.04V70.328C187.649 68.792 188.225 67.496 189.329 66.392H186.689V62.504H193.553V60.2H199.409V62.504ZM223.553 68.456V74.12H218.033V81.608H211.985V59.96H218.033V68.456H223.553ZM199.361 74.888V71.432C199.361 70.088 198.401 69.08 196.913 69.08H195.137C193.745 69.08 192.497 70.088 192.497 71.432V74.888C192.497 76.232 193.745 77.336 195.137 77.336H196.913C198.401 77.336 199.361 76.232 199.361 74.888ZM233.628 60.776H240.156C243.804 60.776 246.876 63.8 246.876 67.688V74.6C246.876 78.44 243.804 81.56 240.156 81.56H233.628C229.98 81.56 226.668 78.44 226.668 74.6V67.688C226.668 63.8 229.98 60.776 233.628 60.776ZM230.988 99.896V86.216H237.564V94.04H259.26V99.896H230.988ZM259.26 85.64H252.876V59.96H259.26V85.64ZM240.924 73.208V69.032C240.924 67.352 239.676 66.104 237.996 66.104H235.74C234.06 66.104 232.62 67.352 232.62 69.032V73.208C232.62 74.936 234.06 76.184 235.74 76.184H237.996C239.676 76.184 240.924 74.936 240.924 73.208Z" fill="white"/>
<path d="M105.957 45.662V44.582C107.397 43.898 108.945 42.332 109.161 40.388H105.957V39.524H109.071V37.814H110.637V39.524H113.733V40.388H110.547C110.853 41.9 112.167 43.592 113.715 44.294V45.392C112.365 45.014 110.637 43.664 109.899 42.224C109.287 43.61 107.505 45.104 105.957 45.662ZM110.781 51.692H109.071C110.043 50.702 110.943 49.55 111.465 48.812C111.789 48.362 112.185 47.822 112.383 47.426H113.805C114.417 48.794 115.785 50.504 116.865 51.692H115.245C114.507 50.828 113.913 50 113.031 48.704C112.293 49.766 111.465 50.936 110.781 51.692ZM113.877 43.088V41.972H116.325V37.436H117.549V46.652H116.325V43.088H113.877ZM125.755 46.148V44.978H138.355V46.148H132.703V51.494H131.389V46.148H125.755ZM126.799 38.858V37.724H136.897V38.768C136.897 40.334 136.519 41.612 136.285 42.458C136.177 42.872 136.051 43.232 135.925 43.628H134.593C134.971 42.692 135.331 41.18 135.457 40.154C135.511 39.758 135.547 39.416 135.565 38.858H126.799ZM140.775 46.85V38.786H146.355V46.85H140.775ZM141.873 45.734H145.275V40.136H141.873V45.734ZM148.749 51.35V37.562H149.919V42.458H152.313V37.562H153.375V51.35H152.313V43.7H149.919V51.35H148.749ZM161.364 39.56V38.516H167.898V39.434C167.898 41.378 167.574 42.404 166.962 43.736C166.728 44.222 166.368 44.78 166.044 45.194H164.658C166.224 43.142 166.512 41.216 166.512 39.56H161.364ZM163.038 51.512V46.85H172.308V51.512H163.038ZM164.01 50.522H171.282V47.822H164.01V50.522ZM170.94 45.428V37.364H172.092V40.622H174.252V41.756H172.092V45.428H170.94ZM176.138 47.444V46.202C176.462 46.076 176.894 45.77 177.29 45.428C179.162 43.808 179.27 42.062 179.27 39.686V38.426H180.548V39.668C180.548 42.17 180.566 43.682 182.312 45.392C182.618 45.68 183.086 46.112 183.446 46.238V47.462C182.042 46.904 180.404 45.356 179.846 44.132C179.342 45.338 177.65 46.886 176.138 47.444ZM185.588 51.476V37.616H186.848V42.422H188.918V43.7H186.848V51.476H185.588Z" fill="white"/>
<path d="M233.471 44.12C233.671 45.1 233.871 46.1 234.051 47.1C234.091 47.26 233.971 47.44 233.811 47.48C229.131 48.36 224.431 49.06 219.731 49.86C213.731 50.86 207.791 52.2 201.711 52.66C201.511 52.68 201.351 52.56 201.271 52.4C200.811 51.52 200.791 50.6 200.711 49.62C200.691 49.48 200.751 49.36 200.871 49.28C201.591 48.62 201.471 48 200.531 47.42C200.351 47.42 200.151 47.3 200.091 47.14C199.791 46.26 199.591 45.38 199.431 44.44C199.411 44.3 199.491 44.18 199.591 44.1C200.571 43.4 200.371 41.86 199.131 41.66C198.971 41.64 198.791 41.48 198.771 41.3C198.731 40.44 198.631 39.78 198.331 38.92C198.271 38.78 198.291 38.56 198.451 38.48C198.791 38.32 199.371 37.58 199.231 37.06C199.151 36.78 198.651 36.08 198.271 36.08C198.071 36.1 197.851 35.94 197.811 35.72C197.631 34.48 197.371 33.26 197.191 32C197.111 31.5 197.931 31.5 197.991 31.96C198.111 32.72 198.111 34.26 198.511 34.94C198.811 35.44 198.691 35.06 199.151 35.46C199.511 35.7 199.771 35.98 199.931 36.48C200.371 37.76 199.311 38.58 199.391 39.7C199.511 41.28 201.031 41.3 201.011 43.02C201.011 43.76 200.551 44.12 200.411 44.76C200.291 45.3 200.531 46.26 200.931 46.6C201.071 46.72 201.371 46.58 201.531 46.74C202.591 47.72 201.931 48.64 201.631 49.76C201.491 50.38 201.531 51.16 202.031 51.54C202.631 52.04 203.551 51.74 204.311 51.66C205.971 51.46 207.631 51.22 209.291 50.94C214.471 50.1 219.631 49.08 224.791 48.24C227.291 47.82 229.791 47.42 232.271 46.98C233.351 46.78 233.271 47.24 233.031 46.04C232.931 45.56 232.831 45.06 232.751 44.58C228.411 45.38 224.051 45.98 219.731 46.72C214.531 47.64 209.391 48.72 204.111 49.12C203.931 49.12 203.771 49 203.691 48.84C203.231 47.96 203.211 47.04 203.131 46.08C203.111 45.9 203.211 45.74 203.371 45.7C204.151 45.46 204.711 43.42 203.031 43.84C202.831 43.9 202.571 43.8 202.511 43.6C202.191 42.7 202.011 41.84 201.851 40.9C201.831 40.76 201.891 40.62 202.011 40.56C203.531 39.32 203.411 38.5 201.651 38.12C201.371 38.16 201.191 37.96 201.191 37.76C201.151 36.88 201.051 36.22 200.731 35.38C200.671 35.18 200.751 34.96 200.971 34.9C201.651 34.68 201.671 34.76 202.051 34.04C202.591 33.04 202.051 32.12 200.791 32.54C200.551 32.62 200.271 32.44 200.231 32.2C200.071 30.94 199.771 29.72 199.591 28.46C199.531 27.94 200.351 27.94 200.411 28.42C200.551 29.52 200.791 30.6 200.971 31.68C202.171 31.44 203.031 31.94 203.191 33.38C203.291 34.18 203.171 34.76 202.471 35.2C202.331 35.3 201.711 35.4 201.651 35.5C201.571 35.64 201.951 37.08 201.971 37.1C202.331 37.44 202.911 37.28 203.311 37.68C203.831 38.16 204.031 39.18 203.831 39.84C203.491 40.88 202.551 40.82 202.891 42.14C203.231 43.44 203.671 42.64 204.451 43.2C204.871 43.52 205.191 44.46 205.111 44.98C204.991 45.8 204.271 45.76 204.011 46.3C203.931 46.5 203.951 47.44 204.091 47.72C204.671 48.72 206.211 48.16 207.111 48.06C209.131 47.82 211.131 47.5 213.151 47.16C219.731 46 226.351 45 232.911 43.76C233.171 43.72 233.411 43.84 233.471 44.12ZM235.811 43.44C235.871 43.96 235.051 43.96 235.011 43.48C234.951 42.96 234.671 41.28 234.531 40.9C234.131 40.52 233.731 40.72 233.311 40.52C232.811 40.28 232.491 39.82 232.371 39.26C232.271 38.72 232.351 38.3 232.751 37.9C233.011 37.6 234.171 37.46 234.311 37.28C234.191 37.36 233.631 35.34 233.511 35.24C233.411 35.12 232.591 34.96 232.431 34.88C231.871 34.54 231.471 34.06 231.431 33.38C231.351 31.84 234.111 31.02 232.571 29.4C232.111 28.9 231.151 29.06 230.691 28.32C230.071 27.28 230.611 26.06 231.791 25.42C231.691 24.3 231.491 23.62 231.251 22.98C230.031 23.22 228.491 23.68 227.931 23.82C226.951 24.06 225.971 24.3 224.971 24.52C217.411 26.24 209.751 27.52 202.051 28.5C201.551 28.56 201.411 27.8 201.951 27.74C211.891 26.46 221.711 24.62 231.431 22.14C231.711 22.1 231.871 22.14 231.951 22.4C232.331 23.42 232.511 24.48 232.771 25.54C232.791 25.66 232.711 25.82 232.611 25.88C230.751 26.92 231.311 28.34 232.951 28.64C233.171 28.66 233.351 28.78 233.391 29C233.571 29.86 233.711 30.72 233.831 31.58C233.851 31.76 233.751 31.9 233.591 31.96C231.571 32.7 232.051 34.32 234.071 34.52C234.251 34.54 234.391 34.72 234.431 34.88C234.571 35.8 234.731 36.7 234.851 37.62C234.891 37.84 234.711 38 234.511 38.02C232.891 38.16 232.911 39.96 234.751 39.86C234.971 39.84 235.171 40 235.211 40.22C235.411 41.3 235.711 42.36 235.811 43.44ZM214.891 36.64L216.691 36.34L216.951 37.72L213.211 38.38L213.771 41.58L212.231 41.86L211.671 38.64L207.951 39.3L207.711 37.9L213.431 36.9C213.571 36.4 213.611 36.04 213.611 35.46L209.051 36.26L208.851 35.1L213.551 34.28C213.511 34.06 213.471 33.48 213.371 33.18L208.371 34.06L208.151 32.78L214.651 31.66L214.871 32.9C215.211 34.88 215.051 36.04 214.891 36.64ZM223.051 34.16L223.191 34.88L226.911 34.22L227.131 35.42L218.011 37L217.811 35.82L221.671 35.14L221.551 34.42L218.731 34.92L218.531 33.68L220.171 33.4L219.091 32.22L220.611 31.96L221.611 33.08L222.451 32.94L222.771 31.58L224.251 31.32L223.791 32.76L225.471 32.48L225.671 33.7L223.051 34.16ZM226.731 37.68L226.991 39.12L219.671 40.4L219.111 37.22L220.651 36.94L220.971 38.68L226.731 37.68ZM218.231 32L218.011 30.76L224.951 29.54L225.171 30.8L218.231 32Z" fill="#FF4343"/>
<path d="M121.565 124.564H126.549C127.683 124.564 128.369 125.152 128.369 126.048V127.056C128.369 128.134 127.557 128.582 126.703 128.582H121.411C120.501 128.582 119.745 128.008 119.745 127.224V126.048C119.745 124.97 120.809 124.564 121.565 124.564ZM123.091 116.612H124.995V117.55H128.607V118.936H125.751C126.339 119.636 127.025 119.93 128.411 120.294V121.54C126.703 121.386 125.247 120.924 124.169 119.622C123.497 120.812 120.767 121.47 119.801 121.624V120.28C120.627 120.098 121.635 119.818 122.545 118.936H119.759V117.55H123.091V116.612ZM125.107 122.212H129.531V123.836H118.723V122.212H123.315V120.784H125.107V122.212ZM126.073 126.062H122.265C121.719 126.062 121.551 126.258 121.551 126.468V126.832C121.551 127.252 121.901 127.224 122.265 127.224H126.143C126.479 127.224 126.703 127.028 126.703 126.762V126.496C126.703 126.216 126.451 126.062 126.073 126.062ZM144.53 117.088V118.558C144.516 120.084 144.18 121.162 143.802 121.876C143.592 122.296 143.34 122.646 143.074 122.912H141.156C142.458 121.54 142.598 119.496 142.598 118.628H138.986V117.088H144.53ZM148.758 116.78V122.94H146.98V121.988H145.174V120.476H146.98V119.468H145.202V117.984H146.98V116.78H148.758ZM140.47 128.582V125.53H146.84V124.914H140.47V123.682H148.744V126.79H142.22V127.308H148.744V128.582H140.47ZM158.893 119.342H156.555C156.499 120.168 156.387 123.808 158.725 124.592V126.23C158.277 126.146 157.857 125.992 157.451 125.768C156.765 125.39 155.967 124.76 155.561 123.64C155.225 124.69 154.455 125.32 153.783 125.712C153.377 125.95 152.957 126.118 152.509 126.23V124.592C154.833 123.794 154.637 120.168 154.581 119.342H152.369V117.844H158.893V119.342ZM159.551 116.78H161.259V128.568H159.551V122.744H157.969V120.756H159.551V116.78ZM163.765 116.78V128.568H162.085V116.78H163.765ZM183.54 124.004V128.344H175.196V124.004H183.54ZM183.344 116.892V118.614C183.344 119.356 183.204 120.042 183.078 120.546C183.008 120.84 182.924 121.12 182.826 121.358H181.09C181.37 120.7 181.51 120 181.566 119.482C181.608 119.174 181.622 118.88 181.608 118.614H175.574V116.892H183.344ZM184.814 123.22H173.922V121.778H184.814V123.22ZM182.112 125.516H176.722V126.832H182.112V125.516ZM190.082 117.354H191.328C192.35 117.354 193.344 118.208 193.344 119.272V121.204C193.344 122.282 192.35 123.136 191.328 123.136H190.082C189.074 123.136 188.01 122.282 188.01 121.204V119.272C188.01 118.208 189.074 117.354 190.082 117.354ZM191.692 120.826V119.664C191.692 119.174 191.496 118.838 191.006 118.838H190.404C189.914 118.838 189.648 119.174 189.648 119.664V120.826C189.648 121.288 189.914 121.652 190.404 121.652H191.006C191.496 121.652 191.692 121.288 191.692 120.826ZM196.788 116.794H198.384V123.598H196.788V121.092H195.752V123.598H194.156V116.794H195.752V119.748H196.788V116.794ZM189.788 124.27H198.244V125.922H198.23C198.216 126.636 198.076 127.28 197.922 127.77C197.824 128.064 197.726 128.33 197.628 128.568H195.878C196.2 127.938 196.354 127.266 196.424 126.762C196.466 126.468 196.48 126.188 196.48 125.922H189.788V124.27ZM209.615 128.722V125.628H215.971V124.984H209.615V123.85H217.917V126.874H211.393V127.406H217.917V128.722H209.615ZM212.401 117.522H214.417V118.656H213.339C213.619 118.95 213.801 119.356 213.801 119.804V121.47C213.801 122.366 213.045 123.122 212.191 123.122H210.637C209.783 123.122 208.971 122.366 208.971 121.47V119.804C208.971 119.356 209.139 118.978 209.461 118.656H208.691V117.522H210.693V116.85H212.401V117.522ZM219.443 119.258V120.91H217.833V123.094H216.069V116.78H217.833V119.258H219.443ZM212.387 121.134V120.126C212.387 119.734 212.107 119.44 211.673 119.44H211.155C210.749 119.44 210.385 119.734 210.385 120.126V121.134C210.385 121.526 210.749 121.848 211.155 121.848H211.673C212.107 121.848 212.387 121.526 212.387 121.134ZM224.382 117.018H226.286C227.35 117.018 228.246 117.9 228.246 119.034V121.05C228.246 122.17 227.35 123.08 226.286 123.08H224.382C223.318 123.08 222.352 122.17 222.352 121.05V119.034C222.352 117.9 223.318 117.018 224.382 117.018ZM223.612 128.428V124.438H225.53V126.72H231.858V128.428H223.612ZM231.858 124.27H229.996V116.78H231.858V124.27ZM226.51 120.644V119.426C226.51 118.936 226.146 118.572 225.656 118.572H224.998C224.508 118.572 224.088 118.936 224.088 119.426V120.644C224.088 121.148 224.508 121.512 224.998 121.512H225.656C226.146 121.512 226.51 121.148 226.51 120.644Z" fill="white"/>
<defs>
<linearGradient id="paint0_linear_258_25" x1="213.873" y1="10" x2="213.873" y2="153" gradientUnits="userSpaceOnUse">
<stop stop-color="#55ADFF"/>
<stop offset="0.0001" stop-color="#55ADFF"/>
<stop offset="0.09375" stop-color="#55ADFF" stop-opacity="0.8"/>
<stop offset="0.494792" stop-color="#55ADFF"/>
<stop offset="0.9375" stop-color="#55ADFF" stop-opacity="0.8"/>
<stop offset="1" stop-color="#55ADFF"/>
</linearGradient>
</defs>
</svg>
