<svg xmlns="http://www.w3.org/2000/svg" height="800" width="1200" viewBox="-17.98182 -3.66 155.84244 21.96"><path d="M11.7038.2387l.0212 3.7263-.225.0337C10.5913 1.7449 9.9062.605 7.14.605h-.3138V12.6c0 .595.0663 1.0075.3688 1.2875.21.1912.9775.2825 1.5987.2825v.2687H2.9325V14.17c.6212 0 1.3887-.0913 1.5975-.2825.3025-.28.37-.6925.37-1.2875V.605h-.315c-2.7663 0-3.45 1.14-4.3588 3.3937L0 3.965.0213.2388h11.6825m3.5025 12.4987c0 .5463-.0675.9788-.3425 1.2087-.23.1913-.6963.2438-1.38.2438v.2487h5.2925V14.19c-.685 0-1.1513-.0525-1.3813-.2437-.275-.23-.3425-.6626-.3425-1.2088v-7.76c0-.5475.0675-.98.3425-1.21.23-.1913.6963-.2425 1.3813-.2425v-.25h-5.2925v.25c.6837 0 1.15.0512 1.38.2425.275.23.3425.6625.3425 1.21v7.76M29.1275 3.275H20.95v.25c.6213 0 1.06.0512 1.2688.2425.2512.23.3112.6625.3112 1.21v7.76c0 .5463-.06.9788-.3112 1.2087-.2088.1913-.6475.2438-1.2688.2438v.2487h5.195V14.19c-.685 0-1.1962-.0525-1.425-.2437-.2762-.23-.3425-.6626-.3425-1.2088v-3.755h.8138c.86 0 1.2925.1425 1.655.4187.3012.23.54.7288.54 1.1813h.2175V7.035h-.2175c0 .4525-.2388.97-.54 1.2012-.3625.275-.795.425-1.655.425h-.8138v-5.045h1.0188c2.53 0 3.2225 1.2063 3.6025 2.605l.1737-.0324-.045-2.9138m9.8488 0h-8.1788v.25c.6225 0 1.0613.0512 1.27.2425.2513.23.3113.6625.3113 1.21v7.76c0 .5463-.06.9788-.3113 1.2087-.2087.1913-.6475.2438-1.27.2438v.2488h5.1963V14.19c-.6838 0-1.1963-.0525-1.4263-.2437-.275-.23-.3425-.6626-.3425-1.2088v-3.755h.815c.86 0 1.2925.1425 1.655.4187.3013.23.54.7288.54 1.1813h.2175V7.035h-.2175c0 .4525-.2387.97-.54 1.2012-.3625.275-.795.425-1.655.425h-.815v-5.045h1.02c2.53 0 3.2213 1.2063 3.6025 2.605l.1738-.0324-.045-2.9138m11.0362 10.92c-.89-.1025-1.1612-.4063-1.565-1.4575l-3.65-9.7438h-.3862l-3.5725 9.535c-.4813 1.2588-.855 1.445-1.9338 1.6663v.2437h3.3613v-.2437c-.9688-.0588-1.4288-.4413-.9588-1.6662L42.09 10.4h3.6263l.8337 2.1837c.4013 1.0463.008 1.5438-1.015 1.6113v.2437h4.4775zM42.21 10.0587l1.6688-4.5412 1.7075 4.5412H42.21M61.8713 3.275H58.04v.25c.8438.075 1.2463.15 1.4663.5275.2512.43.3575 1.1625.3575 2.1313v5.36L53.55 3.275h-3.1462v.25c1.1725 0 1.7387.6563 1.7387 1.6138v6.4187c0 .9675-.0612 1.675-.3112 2.105-.2175.3713-.4425.4575-1.2313.5275v.2488h3.7925V14.19c-.8437-.0738-1.2462-.1512-1.4662-.5275-.2513-.43-.3575-1.1375-.3575-2.105V5.0163l7.4062 9.52h.315V6.1836c0-.9687.06-1.7012.3113-2.1312.2212-.3775.4262-.4525 1.27-.5275v-.25m11.2637.0001h-3.2737l-.002.25c1.0175.0312 1.3787.4088 1.015 1.1525l-2.2362 4.23-2.4363-4.2988c-.3638-.705.0375-1.0837 1.0575-1.0837l-.002-.25h-4.615l.002.25c.9.0637 1.1387.28 1.5012.9812L66.9981 9.61v3.1275c0 .5462-.065.9787-.3138 1.2087-.2112.1913-.67.2438-1.2912.2438v.2487h5.0537V14.19c-.6212 0-1.08-.0525-1.2888-.2437-.25-.23-.315-.6626-.315-1.2088V9.2787l2.5426-4.6325c.4325-.8237.85-1.05 1.7475-1.1212l.002-.25m15.4637 4.3838h-4.4675l-.002.2412c1.11.015 1.6863.4375 1.2675 1.3213-.3125.66-.6737 1.2775-1.0975 1.8575l-3.26-4.1775c1.9238-.9263 2.935-1.87 2.935-3.3663 0-1.0737-1.1287-2.2525-2.755-2.2525-1.68 0-3.145 1.3775-3.145 2.895 0 .9875.2775 1.6875 1.2313 3.0563-1.9038.6712-3.5438 2.2087-3.5438 3.9825 0 1.9987 1.5888 3.4237 3.7088 3.4237 1.5612 0 2.8712-.8287 3.945-1.9837l1.3312 1.7825h3.365l-.002-.2475c-.6038-.009-.8-.0637-1.175-.25-.455-.2288-.8512-.635-1.3313-1.2063l-1.0662-1.3675c.6188-.815 1.1587-1.685 1.715-2.4638.4263-.5987.8862-.8775 2.345-.99l.002-.255zM81.29 1.685c1.0338 0 1.645.7812 1.645 2.0312 0 1.1275-.8987 2.3813-2.155 2.8613-.945-1.3075-1.1562-2.1412-1.1562-2.9125 0-1.41.6663-1.98 1.6663-1.98m-3.6488 8.8325c0-1.4087.6538-2.4038 1.8825-2.9825l3.6338 4.8063c-.8526.8037-1.8213 1.3025-2.7188 1.3025-1.5675 0-2.7975-1.2388-2.7975-3.1263m26.4225-.2937l-.2263.0175c-.5225 2.4975-2.3612 4.0037-4.0475 4.0037-3.2212 0-5.2862-2.8612-5.2862-6.8675 0-4.005 1.7987-6.9462 4.985-6.9462 1.8462 0 3.725 1.4587 4.2587 3.825l.225-.0325L103.8575 0h-.2425c-.0737.6212-.465.9725-1.09.7325C101.6063.3812 100.5775.04 99.5013.04c-4.0288 0-7.4538 3.2938-7.4538 7.3375 0 4.045 3.3925 7.2613 7.4538 7.2613 1.7425 0 3.175-.3738 4.3637-1.2038l.1988-3.2112m1.7525-1.3663c0 3.1612 2.4725 5.7387 5.5862 5.7387 3.1125 0 5.5863-2.5775 5.5863-5.7387 0-3.1625-2.4738-5.7387-5.5863-5.7387-3.1137 0-5.5862 2.5762-5.5862 5.7387zm9.0012 0c0 3.1488-1.1637 5.4188-3.415 5.4188-2.2525 0-3.4162-2.27-3.4162-5.4188 0-3.1487 1.1637-5.4187 3.4162-5.4187 2.2513 0 3.415 2.27 3.415 5.4187m3.93 3.4288c.6313 0 1.1313.51 1.1313 1.155s-.5 1.155-1.1313 1.155c-.6312 0-1.13-.51-1.13-1.155s.4988-1.155 1.13-1.155"/></svg>