<svg xmlns="http://www.w3.org/2000/svg" width="24" height="24" viewBox="0 0 24 24" fill="none" xmlns:xlink="http://www.w3.org/1999/xlink">
  <path fill-rule="evenodd" clip-rule="evenodd" d="M7.875 22C8.91053 22 9.75 21.1605 9.75 20.125C9.75 19.0795 8.79105 18.125 7.875 18.125C6.95895 18.125 6 19.0795 6 20.125C6 21.1605 6.83947 22 7.875 22ZM17.875 22C18.9105 22 19.75 21.1605 19.75 20.125C19.75 19.0795 18.791 18.125 17.875 18.125C16.96 18.125 16 19.0795 16 20.125C16 21.1605 16.8395 22 17.875 22ZM5.24545 6.16656L19.4727 13.1581L17.875 14.5152L15.6955 13.0437L5.24545 6.16656Z" fill="#333333"/>
</svg>