<svg width="24" height="25" viewBox="0 0 24 25" fill="none" xmlns="http://www.w3.org/2000/svg">
<rect width="24" height="25" fill="white"/>
<path d="M1 3H23V12H1V3Z" fill="white" stroke="black" stroke-width="2"/>
<path d="M5.8196 7.10938H5.19744C5.18608 7.02888 5.16288 6.95739 5.12784 6.89489C5.0928 6.83144 5.04782 6.77746 4.9929 6.73295C4.93797 6.68845 4.87453 6.65436 4.80256 6.63068C4.73153 6.60701 4.65436 6.59517 4.57102 6.59517C4.42045 6.59517 4.2893 6.63258 4.17756 6.70739C4.06581 6.78125 3.97917 6.8892 3.91761 7.03125C3.85606 7.17235 3.82528 7.34375 3.82528 7.54545C3.82528 7.75284 3.85606 7.92708 3.91761 8.06818C3.98011 8.20928 4.06723 8.31581 4.17898 8.38778C4.29072 8.45975 4.41998 8.49574 4.56676 8.49574C4.64915 8.49574 4.72538 8.48485 4.79545 8.46307C4.86648 8.44129 4.92945 8.40956 4.98438 8.3679C5.0393 8.32528 5.08475 8.27367 5.12074 8.21307C5.15767 8.15246 5.18324 8.08333 5.19744 8.00568L5.8196 8.00852C5.8035 8.14205 5.76326 8.27083 5.69886 8.39489C5.63542 8.51799 5.54972 8.62831 5.44176 8.72585C5.33475 8.82244 5.20691 8.89915 5.05824 8.95597C4.91051 9.01184 4.74337 9.03977 4.55682 9.03977C4.29735 9.03977 4.06534 8.98106 3.8608 8.86364C3.6572 8.74621 3.49621 8.57623 3.37784 8.35369C3.26042 8.13116 3.2017 7.86174 3.2017 7.54545C3.2017 7.22822 3.26136 6.95833 3.38068 6.7358C3.5 6.51326 3.66193 6.34375 3.86648 6.22727C4.07102 6.10985 4.30114 6.05114 4.55682 6.05114C4.72538 6.05114 4.88163 6.07481 5.02557 6.12216C5.17045 6.16951 5.29877 6.23864 5.41051 6.32955C5.52225 6.41951 5.61316 6.52983 5.68324 6.66051C5.75426 6.79119 5.79972 6.94081 5.8196 7.10938ZM8.93395 7.54545C8.93395 7.86269 8.87382 8.13258 8.75355 8.35511C8.63423 8.57765 8.47135 8.74763 8.26491 8.86506C8.05942 8.98153 7.82836 9.03977 7.57173 9.03977C7.31321 9.03977 7.0812 8.98106 6.87571 8.86364C6.67022 8.74621 6.50781 8.57623 6.38849 8.35369C6.26918 8.13116 6.20952 7.86174 6.20952 7.54545C6.20952 7.22822 6.26918 6.95833 6.38849 6.7358C6.50781 6.51326 6.67022 6.34375 6.87571 6.22727C7.0812 6.10985 7.31321 6.05114 7.57173 6.05114C7.82836 6.05114 8.05942 6.10985 8.26491 6.22727C8.47135 6.34375 8.63423 6.51326 8.75355 6.7358C8.87382 6.95833 8.93395 7.22822 8.93395 7.54545ZM8.31037 7.54545C8.31037 7.33996 8.27959 7.16667 8.21804 7.02557C8.15743 6.88447 8.07173 6.77746 7.96094 6.70455C7.85014 6.63163 7.72041 6.59517 7.57173 6.59517C7.42306 6.59517 7.29332 6.63163 7.18253 6.70455C7.07173 6.77746 6.98556 6.88447 6.92401 7.02557C6.8634 7.16667 6.8331 7.33996 6.8331 7.54545C6.8331 7.75095 6.8634 7.92424 6.92401 8.06534C6.98556 8.20644 7.07173 8.31345 7.18253 8.38636C7.29332 8.45928 7.42306 8.49574 7.57173 8.49574C7.72041 8.49574 7.85014 8.45928 7.96094 8.38636C8.07173 8.31345 8.15743 8.20644 8.21804 8.06534C8.27959 7.92424 8.31037 7.75095 8.31037 7.54545ZM11.1864 6.09091H11.8015V7.98011C11.8015 8.19223 11.7508 8.37784 11.6495 8.53693C11.5491 8.69602 11.4085 8.82008 11.2276 8.90909C11.0468 8.99716 10.8361 9.04119 10.5955 9.04119C10.354 9.04119 10.1429 8.99716 9.962 8.90909C9.78113 8.82008 9.64051 8.69602 9.54013 8.53693C9.43975 8.37784 9.38956 8.19223 9.38956 7.98011V6.09091H10.0046V7.92756C10.0046 8.03835 10.0288 8.13684 10.0771 8.22301C10.1263 8.30919 10.1954 8.37689 10.2844 8.42614C10.3735 8.47538 10.4772 8.5 10.5955 8.5C10.7148 8.5 10.8185 8.47538 10.9066 8.42614C10.9956 8.37689 11.0643 8.30919 11.1126 8.22301C11.1618 8.13684 11.1864 8.03835 11.1864 7.92756V6.09091ZM12.3075 9V6.09091H13.4553C13.6759 6.09091 13.8639 6.13305 14.0192 6.21733C14.1745 6.30066 14.2929 6.41667 14.3743 6.56534C14.4567 6.71307 14.4979 6.88352 14.4979 7.0767C14.4979 7.26989 14.4562 7.44034 14.3729 7.58807C14.2895 7.7358 14.1688 7.85085 14.0107 7.93324C13.8535 8.01562 13.6631 8.05682 13.4396 8.05682H12.7081V7.56392H13.3402C13.4586 7.56392 13.5561 7.54356 13.6328 7.50284C13.7105 7.46117 13.7682 7.40388 13.8061 7.33097C13.8449 7.2571 13.8643 7.17235 13.8643 7.0767C13.8643 6.98011 13.8449 6.89583 13.8061 6.82386C13.7682 6.75095 13.7105 6.6946 13.6328 6.65483C13.5552 6.61411 13.4567 6.59375 13.3374 6.59375H12.9226V9H12.3075ZM17.5707 7.54545C17.5707 7.86269 17.5105 8.13258 17.3903 8.35511C17.271 8.57765 17.1081 8.74763 16.9016 8.86506C16.6961 8.98153 16.4651 9.03977 16.2085 9.03977C15.9499 9.03977 15.7179 8.98106 15.5124 8.86364C15.3069 8.74621 15.1445 8.57623 15.0252 8.35369C14.9059 8.13116 14.8462 7.86174 14.8462 7.54545C14.8462 7.22822 14.9059 6.95833 15.0252 6.7358C15.1445 6.51326 15.3069 6.34375 15.5124 6.22727C15.7179 6.10985 15.9499 6.05114 16.2085 6.05114C16.4651 6.05114 16.6961 6.10985 16.9016 6.22727C17.1081 6.34375 17.271 6.51326 17.3903 6.7358C17.5105 6.95833 17.5707 7.22822 17.5707 7.54545ZM16.9471 7.54545C16.9471 7.33996 16.9163 7.16667 16.8548 7.02557C16.7942 6.88447 16.7085 6.77746 16.5977 6.70455C16.4869 6.63163 16.3571 6.59517 16.2085 6.59517C16.0598 6.59517 15.93 6.63163 15.8192 6.70455C15.7085 6.77746 15.6223 6.88447 15.5607 7.02557C15.5001 7.16667 15.4698 7.33996 15.4698 7.54545C15.4698 7.75095 15.5001 7.92424 15.5607 8.06534C15.6223 8.20644 15.7085 8.31345 15.8192 8.38636C15.93 8.45928 16.0598 8.49574 16.2085 8.49574C16.3571 8.49574 16.4869 8.45928 16.5977 8.38636C16.7085 8.31345 16.7942 8.20644 16.8548 8.06534C16.9163 7.92424 16.9471 7.75095 16.9471 7.54545ZM20.4595 6.09091V9H19.9283L18.6626 7.16903H18.6413V9H18.0263V6.09091H18.5661L19.8217 7.92045H19.8473V6.09091H20.4595Z" fill="black"/>
</svg>
