<?xml version="1.0" encoding="UTF-8"?>
<!DOCTYPE svg PUBLIC "-//W3C//DTD SVG 1.1//EN" "http://www.w3.org/Graphics/SVG/1.1/DTD/svg11.dtd">
<svg xmlns="http://www.w3.org/2000/svg" version="1.1" width="400px" height="400px" style="shape-rendering:geometricPrecision; text-rendering:geometricPrecision; image-rendering:optimizeQuality; fill-rule:evenodd; clip-rule:evenodd" xmlns:xlink="http://www.w3.org/1999/xlink">
<g><path style="opacity:1" fill="#887a6e" d="M 140.5,63.5 C 141.978,63.238 143.311,63.5713 144.5,64.5C 143.135,65.941 141.635,67.2744 140,68.5C 139.722,67.5842 139.222,66.9175 138.5,66.5C 138.285,64.8212 138.952,63.8212 140.5,63.5 Z"/></g>
<g><path style="opacity:1" fill="#332726" d="M 140.5,63.5 C 152.993,62.34 165.66,62.1733 178.5,63C 179.648,67.4646 180.648,71.9646 181.5,76.5C 189.694,76.1312 198.027,75.7979 206.5,75.5C 207.339,76.6412 208.006,77.9745 208.5,79.5C 207.184,80.8066 206.184,82.3066 205.5,84C 206.738,83.9227 207.738,84.0894 208.5,84.5C 207.408,85.8309 206.074,86.6643 204.5,87C 205.386,88.9015 205.053,90.7349 203.5,92.5C 201.5,93.8333 199.5,95.1667 197.5,96.5C 198.167,99.1667 198.833,101.833 199.5,104.5C 198.658,108.161 197.158,111.494 195,114.5C 190.653,115.753 190.486,114.92 194.5,112C 193.773,110.601 193.273,109.101 193,107.5C 192.346,108.696 191.846,108.696 191.5,107.5C 192.428,106.232 192.595,104.899 192,103.5C 191.107,102.289 190.274,102.289 189.5,103.5C 190.97,105.482 190.636,107.148 188.5,108.5C 191.239,111.243 190.905,114.076 187.5,117C 188.584,119.825 189.751,119.992 191,117.5C 192.356,118.38 193.856,118.714 195.5,118.5C 195.578,121.487 194.411,122.153 192,120.5C 188.886,121.584 188.719,123.084 191.5,125C 190.795,126.422 190.461,127.755 190.5,129C 188.899,129.273 187.399,129.773 186,130.5C 186.195,128.874 186.195,127.207 186,125.5C 185.228,126.849 184.061,127.682 182.5,128C 183.893,129.171 184.727,130.671 185,132.5C 186.255,138.448 187.088,144.448 187.5,150.5C 186.833,152.833 186.167,155.167 185.5,157.5C 185.821,149.439 185.321,141.439 184,133.5C 183.19,131.694 182.024,130.194 180.5,129C 182.08,126.085 181.413,125.251 178.5,126.5C 176.531,124.941 174.698,123.274 173,121.5C 167.651,121.641 162.151,121.641 156.5,121.5C 156.44,120.957 156.107,120.624 155.5,120.5C 151.149,122.235 146.816,122.401 142.5,121C 144.715,119.956 147.048,119.29 149.5,119C 148.892,118.13 148.059,117.63 147,117.5C 143.895,118.367 140.728,118.701 137.5,118.5C 138.461,115.574 139.127,112.574 139.5,109.5C 143.135,109.344 143.468,108.178 140.5,106C 142.221,104.473 144.221,103.473 146.5,103C 144.888,102.28 143.388,102.446 142,103.5C 141.5,103 141,102.5 140.5,102C 143.346,100.6 143.679,99.1004 141.5,97.5C 143.917,96.9278 146.084,95.9278 148,94.5C 148.5,95 149,95.5 149.5,96C 147.813,97.913 147.313,100.08 148,102.5C 148.572,100.108 149.738,98.1082 151.5,96.5C 150.99,94.9121 149.99,93.7455 148.5,93C 150.698,91.1217 150.864,88.9551 149,86.5C 148.51,87.7932 148.343,89.1266 148.5,90.5C 145.402,90.4125 145.068,90.9125 147.5,92C 146.833,93 146.167,94 145.5,95C 143.236,95.2362 141.069,95.7362 139,96.5C 138.833,96.1667 138.667,95.8333 138.5,95.5C 140.585,94.4586 142.252,92.9586 143.5,91C 141.109,90.3086 141.109,89.3086 143.5,88C 142.167,87.3333 140.833,86.6667 139.5,86C 141.875,84.49 141.709,82.99 139,81.5C 137.832,82.5089 136.665,83.5089 135.5,84.5C 136.016,83.2418 135.35,82.2418 133.5,81.5C 135.969,80.8319 138.302,80.1653 140.5,79.5C 140.167,78.5 139.5,77.8333 138.5,77.5C 138.5,73.8333 138.5,70.1667 138.5,66.5C 139.222,66.9175 139.722,67.5842 140,68.5C 141.635,67.2744 143.135,65.941 144.5,64.5C 143.311,63.5713 141.978,63.238 140.5,63.5 Z"/></g>
<g><path style="opacity:0.949" fill="#d1bda9" d="M 134.5,77.5 C 135.833,77.5 137.167,77.5 138.5,77.5C 139.5,77.8333 140.167,78.5 140.5,79.5C 137.99,79.9465 135.99,79.2798 134.5,77.5 Z"/></g>
<g><path style="opacity:0.973" fill="#b8a490" d="M 101.5,79.5 C 101.833,79.5 102.167,79.5 102.5,79.5C 100.657,80.2829 98.6568,80.9495 96.5,81.5C 95.7025,81.9569 95.3691,82.6236 95.5,83.5C 95.6716,84.4916 95.3382,85.1583 94.5,85.5C 94.5,83.5 94.5,81.5 94.5,79.5C 96.8333,79.5 99.1667,79.5 101.5,79.5 Z"/></g>
<g><path style="opacity:0.896" fill="#5c4e48" d="M 261.5,67.5 C 260.392,86.4059 260.392,105.406 261.5,124.5C 259.672,110.349 258.338,95.8492 257.5,81C 258.107,77.8571 258.441,74.6905 258.5,71.5C 258.554,69.368 259.554,68.0347 261.5,67.5 Z"/></g>
<g><path style="opacity:1" fill="#503e3a" d="M 102.5,79.5 C 107.454,78.9426 110.121,79.2759 110.5,80.5C 109.882,85.3296 109.215,90.163 108.5,95C 110.135,98.016 109.635,100.516 107,102.5C 106.086,101.346 105.253,101.513 104.5,103C 106.058,103.21 107.391,103.71 108.5,104.5C 103.833,104.5 99.1667,104.5 94.5,104.5C 94.5,101.167 94.5,97.8333 94.5,94.5C 96.6393,96.1391 96.9726,98.1391 95.5,100.5C 95.5565,101.737 96.0565,102.737 97,103.5C 100.818,101.537 103.484,98.5368 105,94.5C 105.333,94.8333 105.667,95.1667 106,95.5C 106.607,92.7983 106.44,90.1316 105.5,87.5C 107.192,85.7952 108.525,83.7952 109.5,81.5C 108.311,80.5713 106.978,80.238 105.5,80.5C 105.5,81.5 105.5,82.5 105.5,83.5C 104.448,83.3505 103.448,83.5172 102.5,84C 103.516,84.5194 104.182,85.3527 104.5,86.5C 104.378,90.008 103.212,93.008 101,95.5C 100.821,93.5758 100.654,91.9091 100.5,90.5C 99.6667,92.5 98.8333,94.5 98,96.5C 97.6667,91.8333 97.3333,87.1667 97,82.5C 96.6174,83.056 96.1174,83.3893 95.5,83.5C 95.3691,82.6236 95.7025,81.9569 96.5,81.5C 98.6568,80.9495 100.657,80.2829 102.5,79.5 Z"/></g>
<g><path style="opacity:1" fill="#392a2a" d="M 94.5,94.5 C 94.5,91.5 94.5,88.5 94.5,85.5C 95.3382,85.1583 95.6716,84.4916 95.5,83.5C 96.1174,83.3893 96.6174,83.056 97,82.5C 97.3333,87.1667 97.6667,91.8333 98,96.5C 98.8333,94.5 99.6667,92.5 100.5,90.5C 100.654,91.9091 100.821,93.5758 101,95.5C 103.212,93.008 104.378,90.008 104.5,86.5C 104.182,85.3527 103.516,84.5194 102.5,84C 103.448,83.5172 104.448,83.3505 105.5,83.5C 105.5,82.5 105.5,81.5 105.5,80.5C 106.978,80.238 108.311,80.5713 109.5,81.5C 108.525,83.7952 107.192,85.7952 105.5,87.5C 106.44,90.1316 106.607,92.7983 106,95.5C 105.667,95.1667 105.333,94.8333 105,94.5C 103.484,98.5368 100.818,101.537 97,103.5C 96.0565,102.737 95.5565,101.737 95.5,100.5C 96.9726,98.1391 96.6393,96.1391 94.5,94.5 Z"/></g>
<g><path style="opacity:1" fill="#3f2e2e" d="M 134.5,77.5 C 135.99,79.2798 137.99,79.9465 140.5,79.5C 138.302,80.1653 135.969,80.8319 133.5,81.5C 135.35,82.2418 136.016,83.2418 135.5,84.5C 136.665,83.5089 137.832,82.5089 139,81.5C 141.709,82.99 141.875,84.49 139.5,86C 140.833,86.6667 142.167,87.3333 143.5,88C 141.109,89.3086 141.109,90.3086 143.5,91C 142.252,92.9586 140.585,94.4586 138.5,95.5C 138.667,95.8333 138.833,96.1667 139,96.5C 141.069,95.7362 143.236,95.2362 145.5,95C 146.167,94 146.833,93 147.5,92C 145.068,90.9125 145.402,90.4125 148.5,90.5C 148.343,89.1266 148.51,87.7932 149,86.5C 150.864,88.9551 150.698,91.1217 148.5,93C 149.99,93.7455 150.99,94.9121 151.5,96.5C 149.738,98.1082 148.572,100.108 148,102.5C 147.313,100.08 147.813,97.913 149.5,96C 149,95.5 148.5,95 148,94.5C 146.084,95.9278 143.917,96.9278 141.5,97.5C 143.679,99.1004 143.346,100.6 140.5,102C 141,102.5 141.5,103 142,103.5C 143.388,102.446 144.888,102.28 146.5,103C 144.221,103.473 142.221,104.473 140.5,106C 143.468,108.178 143.135,109.344 139.5,109.5C 139.127,112.574 138.461,115.574 137.5,118.5C 140.728,118.701 143.895,118.367 147,117.5C 148.059,117.63 148.892,118.13 149.5,119C 147.048,119.29 144.715,119.956 142.5,121C 146.816,122.401 151.149,122.235 155.5,120.5C 156.107,120.624 156.44,120.957 156.5,121.5C 151.237,122.142 146.571,124.142 142.5,127.5C 141.676,125.252 140.676,125.086 139.5,127C 139.957,127.414 140.291,127.914 140.5,128.5C 139.23,129.288 138.23,130.288 137.5,131.5C 137.203,134.559 135.87,137.059 133.5,139C 134.577,139.47 135.577,139.303 136.5,138.5C 135.373,140.998 134.706,143.664 134.5,146.5C 135.317,149.393 135.317,152.226 134.5,155C 135.044,156.585 135.711,158.085 136.5,159.5C 135.791,160.404 134.791,160.737 133.5,160.5C 133.378,156.162 133.045,155.828 132.5,159.5C 131.5,159.5 130.5,159.5 129.5,159.5C 128.134,159.074 128.134,156.407 129.5,151.5C 133.368,148.244 133.035,147.91 128.5,150.5C 126.012,149.975 123.679,149.142 121.5,148C 122.956,147.577 123.456,146.744 123,145.5C 118.682,148.333 114.682,147.999 111,144.5C 110.667,146.167 110.333,147.833 110,149.5C 108.412,144.536 108.245,139.536 109.5,134.5C 108.983,136.019 109.65,137.352 111.5,138.5C 110.975,139.192 110.308,139.692 109.5,140C 111.847,140.334 114.181,140.167 116.5,139.5C 116.33,138.178 116.663,137.011 117.5,136C 121.843,133.163 126.176,130.33 130.5,127.5C 129.242,128.016 128.242,127.35 127.5,125.5C 124.178,127.936 121.011,127.936 118,125.5C 114.97,126.051 111.97,127.384 109,129.5C 109.944,123.849 111.111,118.183 112.5,112.5C 112.833,111.167 113.167,109.833 113.5,108.5C 115.119,102.953 113.953,102.286 110,106.5C 109.722,105.584 109.222,104.918 108.5,104.5C 107.391,103.71 106.058,103.21 104.5,103C 105.253,101.513 106.086,101.346 107,102.5C 109.635,100.516 110.135,98.016 108.5,95C 109.215,90.163 109.882,85.3296 110.5,80.5C 110.121,79.2759 107.454,78.9426 102.5,79.5C 102.167,79.5 101.833,79.5 101.5,79.5C 112.35,78.7428 123.35,78.0761 134.5,77.5 Z"/></g>
<g><path style="opacity:1" fill="#131010" d="M 278.5,66.5 C 276.958,67.1635 275.291,67.8302 273.5,68.5C 274.242,69.2868 275.075,69.9535 276,70.5C 279.094,69.4009 282.26,68.9009 285.5,69C 281.118,70.1275 277.118,71.4608 273.5,73C 276.346,76.3102 278.679,79.3102 280.5,82C 277.941,84.9253 277.941,87.9253 280.5,91C 279.773,92.3988 279.273,93.8988 279,95.5C 278.667,94.8333 278.333,94.1667 278,93.5C 277.326,95.5165 276.159,97.1832 274.5,98.5C 275.025,99.1924 275.692,99.6924 276.5,100C 274.889,102.042 273.389,104.209 272,106.5C 272.333,104.5 272.667,102.5 273,100.5C 272.395,102.481 271.395,102.815 270,101.5C 270.16,104.509 268.993,106.675 266.5,108C 268.879,110.227 269.046,112.727 267,115.5C 266.349,113.765 266.515,112.098 267.5,110.5C 267.154,109.304 266.654,109.304 266,110.5C 264.983,116.568 263.65,122.568 262,128.5C 261.51,127.207 261.343,125.873 261.5,124.5C 260.392,105.406 260.392,86.4059 261.5,67.5C 267.121,66.6463 272.788,66.313 278.5,66.5 Z"/></g>
<g><path style="opacity:0.931" fill="#191414" d="M 113.5,108.5 C 111.605,109.973 109.939,111.64 108.5,113.5C 104.573,112.862 100.573,112.029 96.5,111C 94.9837,109.103 94.317,106.936 94.5,104.5C 99.1667,104.5 103.833,104.5 108.5,104.5C 109.222,104.918 109.722,105.584 110,106.5C 113.953,102.286 115.119,102.953 113.5,108.5 Z"/></g>
<g><path style="opacity:1" fill="#887869" d="M 113.5,108.5 C 113.167,109.833 112.833,111.167 112.5,112.5C 111.143,113.59 110.143,114.924 109.5,116.5C 109.591,114.302 108.925,113.969 107.5,115.5C 107.328,114.508 107.662,113.842 108.5,113.5C 109.939,111.64 111.605,109.973 113.5,108.5 Z"/></g>
<g><path style="opacity:1" fill="#100c0c" d="M 224.5,75.5 C 225.58,86.3498 225.413,97.3498 224,108.5C 221.544,110.321 218.711,110.988 215.5,110.5C 215.608,113.382 216.774,115.715 219,117.5C 220.548,126.874 221.048,136.207 220.5,145.5C 219.548,144.548 218.548,143.548 217.5,142.5C 218.5,141.667 219.5,140.833 220.5,140C 219.809,138.933 219.309,137.766 219,136.5C 218.717,139.742 217.883,140.076 216.5,137.5C 217.813,135.482 217.147,134.315 214.5,134C 218.272,132.611 218.272,131.611 214.5,131C 215.573,129.75 215.573,128.416 214.5,127C 215.022,126.05 215.689,125.216 216.5,124.5C 214.344,122.213 214.011,119.713 215.5,117C 213.82,116.966 212.32,116.799 211,116.5C 210.727,119.393 209.893,122.06 208.5,124.5C 208.939,126.104 209.606,127.604 210.5,129C 210.22,130.395 209.553,131.562 208.5,132.5C 208.358,130.043 208.025,127.376 207.5,124.5C 207.365,122.192 208.031,120.192 209.5,118.5C 208.817,115.539 207.984,115.205 207,117.5C 206.302,116.309 205.469,115.309 204.5,114.5C 205.496,114.586 206.329,114.252 207,113.5C 207.761,110.947 208.594,108.447 209.5,106C 208.833,104.667 207.833,103.667 206.5,103C 208.5,101.667 210.167,100 211.5,98C 213.313,97.3856 213.647,97.7189 212.5,99C 214.23,100.852 215.396,100.686 216,98.5C 216.615,100.116 217.615,101.449 219,102.5C 218.766,98.4715 218.433,94.1382 218,89.5C 218.928,86.9648 220.762,85.9648 223.5,86.5C 223.244,84.2075 223.577,82.0408 224.5,80C 220.862,80.6719 217.195,80.5052 213.5,79.5C 216.833,78.8333 220.167,78.1667 223.5,77.5C 223.863,76.8165 224.196,76.1499 224.5,75.5 Z"/></g>
<g><path style="opacity:0.782" fill="#090606" d="M 156.5,121.5 C 162.151,121.641 167.651,121.641 173,121.5C 174.698,123.274 176.531,124.941 178.5,126.5C 181.413,125.251 182.08,126.085 180.5,129C 182.024,130.194 183.19,131.694 184,133.5C 185.321,141.439 185.821,149.439 185.5,157.5C 185.341,161.674 183.675,165.008 180.5,167.5C 180.167,167.5 179.833,167.5 179.5,167.5C 181.159,159.962 182.159,152.295 182.5,144.5C 182.188,140.221 181.022,136.221 179,132.5C 167.464,124.173 156.298,124.507 145.5,133.5C 144.749,134.376 144.249,135.376 144,136.5C 140.594,147.452 141.594,158.119 147,168.5C 151.539,172.959 157.039,174.959 163.5,174.5C 162.489,176.199 161.155,177.699 159.5,179C 160.506,180.338 161.506,181.671 162.5,183C 160.692,185.518 159.692,188.351 159.5,191.5C 159.86,195.517 160.36,199.517 161,203.5C 164.022,204.237 167.022,203.904 170,202.5C 171.813,202.593 173.646,202.927 175.5,203.5C 182.031,202.682 188.531,201.682 195,200.5C 199.989,199.343 203.156,196.343 204.5,191.5C 205.258,192.811 206.258,193.311 207.5,193C 211.063,190.259 213.729,186.759 215.5,182.5C 215.376,181.893 215.043,181.56 214.5,181.5C 220.487,175.356 221.82,168.189 218.5,160C 219.883,155.255 220.55,150.422 220.5,145.5C 223.981,158.271 223.815,171.271 220,184.5C 215.161,189.672 209.994,194.505 204.5,199C 199.764,201.435 194.764,203.101 189.5,204C 180.314,205.003 171.147,206.17 162,207.5C 154.527,206.624 147.027,206.291 139.5,206.5C 138.517,205.15 137.184,204.15 135.5,203.5C 135.624,202.893 135.957,202.56 136.5,202.5C 139.552,204.918 142.552,204.918 145.5,202.5C 146.095,205.113 146.929,205.113 148,202.5C 148.308,203.308 148.808,203.975 149.5,204.5C 151.071,203.691 152.738,203.357 154.5,203.5C 154.255,194.328 153.255,185.328 151.5,176.5C 152.376,175.749 153.376,175.249 154.5,175C 151.901,174.231 149.401,174.398 147,175.5C 145.69,172.527 143.69,170.193 141,168.5C 140.517,167.552 140.351,166.552 140.5,165.5C 139.5,165.5 138.5,165.5 137.5,165.5C 137.795,163.265 137.461,161.265 136.5,159.5C 135.711,158.085 135.044,156.585 134.5,155C 135.317,152.226 135.317,149.393 134.5,146.5C 134.706,143.664 135.373,140.998 136.5,138.5C 137.872,137.112 138.872,135.445 139.5,133.5C 139.253,132.287 138.586,131.62 137.5,131.5C 138.23,130.288 139.23,129.288 140.5,128.5C 140.291,127.914 139.957,127.414 139.5,127C 140.676,125.086 141.676,125.252 142.5,127.5C 146.571,124.142 151.237,122.142 156.5,121.5 Z M 179.5,167.5 C 174.93,171.365 169.596,173.698 163.5,174.5C 157.039,174.959 151.539,172.959 147,168.5C 141.594,158.119 140.594,147.452 144,136.5C 144.249,135.376 144.749,134.376 145.5,133.5C 156.298,124.507 167.464,124.173 179,132.5C 181.022,136.221 182.188,140.221 182.5,144.5C 182.159,152.295 181.159,159.962 179.5,167.5 Z"/></g>
<g><path style="opacity:1" fill="#2d2121" d="M 206.5,75.5 C 212.306,75.1343 218.306,75.1343 224.5,75.5C 224.196,76.1499 223.863,76.8165 223.5,77.5C 220.167,78.1667 216.833,78.8333 213.5,79.5C 217.195,80.5052 220.862,80.6719 224.5,80C 223.577,82.0408 223.244,84.2075 223.5,86.5C 220.762,85.9648 218.928,86.9648 218,89.5C 218.433,94.1382 218.766,98.4715 219,102.5C 217.615,101.449 216.615,100.116 216,98.5C 215.396,100.686 214.23,100.852 212.5,99C 213.647,97.7189 213.313,97.3856 211.5,98C 210.167,100 208.5,101.667 206.5,103C 207.833,103.667 208.833,104.667 209.5,106C 208.594,108.447 207.761,110.947 207,113.5C 206.329,114.252 205.496,114.586 204.5,114.5C 203.005,114.415 202.005,115.081 201.5,116.5C 201.938,117.506 202.604,117.506 203.5,116.5C 204.287,117.242 204.953,118.075 205.5,119C 204.464,122.171 203.13,125.171 201.5,128C 202.308,128.308 202.975,128.808 203.5,129.5C 203.062,130.506 202.396,130.506 201.5,129.5C 200.03,133.068 200.364,136.401 202.5,139.5C 203.769,137.305 203.769,135.139 202.5,133C 202.833,132.833 203.167,132.667 203.5,132.5C 203.833,133.833 204.167,135.167 204.5,136.5C 203.63,139.186 203.13,141.853 203,144.5C 203.333,143.5 203.667,142.5 204,141.5C 204.17,143.715 204.837,145.715 206,147.5C 207.065,145.604 207.898,145.437 208.5,147C 207.37,148.76 206.37,150.593 205.5,152.5C 203.304,150.253 201.97,150.92 201.5,154.5C 203.199,154.66 204.866,154.494 206.5,154C 207.794,151.913 208.961,149.746 210,147.5C 211.008,147.982 212.175,148.148 213.5,148C 212.549,148.718 212.383,149.551 213,150.5C 214.246,149.228 215.413,148.895 216.5,149.5C 214.336,151.684 211.669,153.017 208.5,153.5C 209.025,154.192 209.692,154.692 210.5,155C 210.131,157.468 208.631,159.635 206,161.5C 205.308,160.975 204.808,160.308 204.5,159.5C 205.428,158.232 205.595,156.899 205,155.5C 203.763,160.328 200.596,162.494 195.5,162C 197.824,163.374 200.157,163.707 202.5,163C 201.833,165.667 201.167,168.333 200.5,171C 201.448,171.483 202.448,171.649 203.5,171.5C 203.247,169.173 203.914,167.173 205.5,165.5C 208.106,164.23 210.439,162.563 212.5,160.5C 213.769,162.695 213.769,164.861 212.5,167C 214.8,171.912 214.8,176.912 212.5,182C 212.667,182.833 212.833,183.667 213,184.5C 213.232,183.263 213.732,182.263 214.5,181.5C 215.043,181.56 215.376,181.893 215.5,182.5C 213.729,186.759 211.063,190.259 207.5,193C 206.258,193.311 205.258,192.811 204.5,191.5C 203.156,196.343 199.989,199.343 195,200.5C 188.531,201.682 182.031,202.682 175.5,203.5C 173.646,202.927 171.813,202.593 170,202.5C 167.022,203.904 164.022,204.237 161,203.5C 160.36,199.517 159.86,195.517 159.5,191.5C 159.692,188.351 160.692,185.518 162.5,183C 161.506,181.671 160.506,180.338 159.5,179C 161.155,177.699 162.489,176.199 163.5,174.5C 169.596,173.698 174.93,171.365 179.5,167.5C 179.833,167.5 180.167,167.5 180.5,167.5C 179.952,169.394 178.952,171.06 177.5,172.5C 178.79,173.408 180.123,173.241 181.5,172C 183.851,166.99 186.184,161.99 188.5,157C 187.713,154.901 187.38,152.734 187.5,150.5C 187.088,144.448 186.255,138.448 185,132.5C 184.727,130.671 183.893,129.171 182.5,128C 184.061,127.682 185.228,126.849 186,125.5C 186.195,127.207 186.195,128.874 186,130.5C 187.399,129.773 188.899,129.273 190.5,129C 190.461,127.755 190.795,126.422 191.5,125C 188.719,123.084 188.886,121.584 192,120.5C 194.411,122.153 195.578,121.487 195.5,118.5C 193.856,118.714 192.356,118.38 191,117.5C 189.751,119.992 188.584,119.825 187.5,117C 190.905,114.076 191.239,111.243 188.5,108.5C 190.636,107.148 190.97,105.482 189.5,103.5C 190.274,102.289 191.107,102.289 192,103.5C 192.595,104.899 192.428,106.232 191.5,107.5C 191.846,108.696 192.346,108.696 193,107.5C 193.273,109.101 193.773,110.601 194.5,112C 190.486,114.92 190.653,115.753 195,114.5C 197.158,111.494 198.658,108.161 199.5,104.5C 198.833,101.833 198.167,99.1667 197.5,96.5C 199.5,95.1667 201.5,93.8333 203.5,92.5C 205.053,90.7349 205.386,88.9015 204.5,87C 206.074,86.6643 207.408,85.8309 208.5,84.5C 207.738,84.0894 206.738,83.9227 205.5,84C 206.184,82.3066 207.184,80.8066 208.5,79.5C 208.006,77.9745 207.339,76.6412 206.5,75.5 Z"/></g>
<g><path style="opacity:0.756" fill="#060404" d="M 236.5,126.5 C 236.5,138.167 236.5,149.833 236.5,161.5C 238.527,161.662 240.527,161.495 242.5,161C 241.167,158.667 239.833,156.333 238.5,154C 239.152,151.91 239.319,149.743 239,147.5C 240.268,147.616 241.602,147.949 243,148.5C 242.892,153.28 243.725,157.614 245.5,161.5C 246.833,161.5 248.167,161.5 249.5,161.5C 253.167,161.5 256.833,161.5 260.5,161.5C 261.167,162.167 261.833,162.833 262.5,163.5C 262.451,176.342 262.784,189.176 263.5,202C 263.51,206.229 264.177,210.062 265.5,213.5C 268.167,214.167 270.833,214.833 273.5,215.5C 268.833,215.5 264.167,215.5 259.5,215.5C 258.976,199.505 258.643,183.505 258.5,167.5C 249.425,167.059 240.425,166.059 231.5,164.5C 231.5,152.833 231.5,141.167 231.5,129.5C 233.664,129.279 235.33,128.279 236.5,126.5 Z"/></g>
<g><path style="opacity:1" fill="#79675c" d="M 137.5,131.5 C 138.586,131.62 139.253,132.287 139.5,133.5C 138.872,135.445 137.872,137.112 136.5,138.5C 135.577,139.303 134.577,139.47 133.5,139C 135.87,137.059 137.203,134.559 137.5,131.5 Z"/></g>
<g><path style="opacity:1" fill="#ccbaa8" d="M 109.5,116.5 C 106.345,124.947 105.345,133.613 106.5,142.5C 105.833,143.5 105.167,144.5 104.5,145.5C 103.324,137.127 103.491,128.793 105,120.5C 105.757,118.685 106.59,117.019 107.5,115.5C 108.925,113.969 109.591,114.302 109.5,116.5 Z"/></g>
<g><path style="opacity:0.247" fill="#938071" d="M 106.5,142.5 C 107.162,146.157 107.829,149.824 108.5,153.5C 108.333,154.833 108.167,156.167 108,157.5C 107.583,156.244 106.75,155.577 105.5,155.5C 105.747,152.061 105.414,148.728 104.5,145.5C 105.167,144.5 105.833,143.5 106.5,142.5 Z"/></g>
<g><path style="opacity:1" fill="#362928" d="M 112.5,112.5 C 111.111,118.183 109.944,123.849 109,129.5C 111.97,127.384 114.97,126.051 118,125.5C 121.011,127.936 124.178,127.936 127.5,125.5C 128.242,127.35 129.242,128.016 130.5,127.5C 126.176,130.33 121.843,133.163 117.5,136C 116.663,137.011 116.33,138.178 116.5,139.5C 114.181,140.167 111.847,140.334 109.5,140C 110.308,139.692 110.975,139.192 111.5,138.5C 109.65,137.352 108.983,136.019 109.5,134.5C 108.245,139.536 108.412,144.536 110,149.5C 110.333,147.833 110.667,146.167 111,144.5C 114.682,147.999 118.682,148.333 123,145.5C 123.456,146.744 122.956,147.577 121.5,148C 123.679,149.142 126.012,149.975 128.5,150.5C 133.035,147.91 133.368,148.244 129.5,151.5C 128.134,156.407 128.134,159.074 129.5,159.5C 130.5,159.5 131.5,159.5 132.5,159.5C 133.045,155.828 133.378,156.162 133.5,160.5C 134.791,160.737 135.791,160.404 136.5,159.5C 137.461,161.265 137.795,163.265 137.5,165.5C 138.5,165.5 139.5,165.5 140.5,165.5C 140.351,166.552 140.517,167.552 141,168.5C 143.69,170.193 145.69,172.527 147,175.5C 149.401,174.398 151.901,174.231 154.5,175C 153.376,175.249 152.376,175.749 151.5,176.5C 153.255,185.328 154.255,194.328 154.5,203.5C 152.738,203.357 151.071,203.691 149.5,204.5C 148.808,203.975 148.308,203.308 148,202.5C 146.929,205.113 146.095,205.113 145.5,202.5C 142.552,204.918 139.552,204.918 136.5,202.5C 135.777,199.178 134.943,195.845 134,192.5C 133.502,195.482 133.335,198.482 133.5,201.5C 132.5,201.5 131.5,201.5 130.5,201.5C 130.666,192.827 130.5,184.16 130,175.5C 129.463,178.093 128.63,180.593 127.5,183C 128.426,186.139 128.592,189.306 128,192.5C 127.667,190.833 127.333,189.167 127,187.5C 124.457,190.199 123.79,190.199 125,187.5C 125.667,181.167 125.667,174.833 125,168.5C 123.63,177.542 122.797,177.209 122.5,167.5C 121.5,167.5 120.5,167.5 119.5,167.5C 119.167,170.833 118.833,174.167 118.5,177.5C 117.833,177.5 117.167,177.5 116.5,177.5C 116.766,173.395 116.266,169.395 115,165.5C 114.582,168.817 114.749,171.817 115.5,174.5C 113.777,176.868 113.11,179.534 113.5,182.5C 112.167,180.833 110.833,179.167 109.5,177.5C 109.339,172.404 108.339,167.738 106.5,163.5C 105.612,160.946 105.279,158.279 105.5,155.5C 106.75,155.577 107.583,156.244 108,157.5C 108.167,156.167 108.333,154.833 108.5,153.5C 107.829,149.824 107.162,146.157 106.5,142.5C 105.345,133.613 106.345,124.947 109.5,116.5C 110.143,114.924 111.143,113.59 112.5,112.5 Z"/></g>
<g><path style="opacity:1" fill="#241b1b" d="M 204.5,114.5 C 205.469,115.309 206.302,116.309 207,117.5C 207.984,115.205 208.817,115.539 209.5,118.5C 208.031,120.192 207.365,122.192 207.5,124.5C 208.025,127.376 208.358,130.043 208.5,132.5C 209.553,131.562 210.22,130.395 210.5,129C 209.606,127.604 208.939,126.104 208.5,124.5C 209.893,122.06 210.727,119.393 211,116.5C 212.32,116.799 213.82,116.966 215.5,117C 214.011,119.713 214.344,122.213 216.5,124.5C 215.689,125.216 215.022,126.05 214.5,127C 215.573,128.416 215.573,129.75 214.5,131C 218.272,131.611 218.272,132.611 214.5,134C 217.147,134.315 217.813,135.482 216.5,137.5C 217.883,140.076 218.717,139.742 219,136.5C 219.309,137.766 219.809,138.933 220.5,140C 219.5,140.833 218.5,141.667 217.5,142.5C 218.548,143.548 219.548,144.548 220.5,145.5C 220.55,150.422 219.883,155.255 218.5,160C 221.82,168.189 220.487,175.356 214.5,181.5C 213.732,182.263 213.232,183.263 213,184.5C 212.833,183.667 212.667,182.833 212.5,182C 214.8,176.912 214.8,171.912 212.5,167C 213.769,164.861 213.769,162.695 212.5,160.5C 210.439,162.563 208.106,164.23 205.5,165.5C 203.914,167.173 203.247,169.173 203.5,171.5C 202.448,171.649 201.448,171.483 200.5,171C 201.167,168.333 201.833,165.667 202.5,163C 200.157,163.707 197.824,163.374 195.5,162C 200.596,162.494 203.763,160.328 205,155.5C 205.595,156.899 205.428,158.232 204.5,159.5C 204.808,160.308 205.308,160.975 206,161.5C 208.631,159.635 210.131,157.468 210.5,155C 209.692,154.692 209.025,154.192 208.5,153.5C 211.669,153.017 214.336,151.684 216.5,149.5C 215.413,148.895 214.246,149.228 213,150.5C 212.383,149.551 212.549,148.718 213.5,148C 212.175,148.148 211.008,147.982 210,147.5C 208.961,149.746 207.794,151.913 206.5,154C 204.866,154.494 203.199,154.66 201.5,154.5C 201.97,150.92 203.304,150.253 205.5,152.5C 206.37,150.593 207.37,148.76 208.5,147C 207.898,145.437 207.065,145.604 206,147.5C 204.837,145.715 204.17,143.715 204,141.5C 203.667,142.5 203.333,143.5 203,144.5C 203.13,141.853 203.63,139.186 204.5,136.5C 204.167,135.167 203.833,133.833 203.5,132.5C 203.167,132.667 202.833,132.833 202.5,133C 203.769,135.139 203.769,137.305 202.5,139.5C 200.364,136.401 200.03,133.068 201.5,129.5C 202.396,130.506 203.062,130.506 203.5,129.5C 202.975,128.808 202.308,128.308 201.5,128C 203.13,125.171 204.464,122.171 205.5,119C 204.953,118.075 204.287,117.242 203.5,116.5C 202.604,117.506 201.938,117.506 201.5,116.5C 202.005,115.081 203.005,114.415 204.5,114.5 Z"/></g>
<g><path style="opacity:1" fill="#3f2e2e" d="M 244.5,125.5 C 243.653,126.966 242.32,127.8 240.5,128C 241.578,128.674 242.245,129.674 242.5,131C 243.143,140.876 244.809,150.543 247.5,160C 246.584,160.278 245.918,160.778 245.5,161.5C 243.725,157.614 242.892,153.28 243,148.5C 241.602,147.949 240.268,147.616 239,147.5C 239.319,149.743 239.152,151.91 238.5,154C 239.833,156.333 241.167,158.667 242.5,161C 240.527,161.495 238.527,161.662 236.5,161.5C 236.5,149.833 236.5,138.167 236.5,126.5C 239.054,125.612 241.721,125.279 244.5,125.5 Z"/></g>
<g><path style="opacity:1" fill="#a08d7c" d="M 187.5,150.5 C 187.38,152.734 187.713,154.901 188.5,157C 186.184,161.99 183.851,166.99 181.5,172C 180.123,173.241 178.79,173.408 177.5,172.5C 178.952,171.06 179.952,169.394 180.5,167.5C 183.675,165.008 185.341,161.674 185.5,157.5C 186.167,155.167 186.833,152.833 187.5,150.5 Z"/></g>
<g><path style="opacity:0.994" fill="#1b1515" d="M 299.5,103.5 C 301.649,139.212 302.982,175.045 303.5,211C 303.241,212.261 302.574,213.261 301.5,214C 296.146,214.391 290.812,214.891 285.5,215.5C 286.984,214.527 287.484,213.193 287,211.5C 286.444,213.595 285.944,213.762 285.5,212C 285.905,211.055 286.572,210.388 287.5,210C 286.5,209.667 285.5,209.333 284.5,209C 286.295,208.743 288.295,208.077 290.5,207C 288.459,205.259 286.292,205.092 284,206.5C 283.333,205.5 283.333,204.5 284,203.5C 284.718,204.451 285.551,204.617 286.5,204C 285.241,203.077 283.908,202.243 282.5,201.5C 283.588,197.614 284.421,197.614 285,201.5C 287.127,199.43 286.961,197.597 284.5,196C 284.82,194.347 285.82,193.347 287.5,193C 286.816,191.307 285.816,189.807 284.5,188.5C 284.968,186.866 285.968,185.7 287.5,185C 285.089,185.052 282.756,185.385 280.5,186C 282.527,184.604 282.86,182.938 281.5,181C 282.227,179.601 282.727,178.101 283,176.5C 283.333,177.167 283.667,177.833 284,178.5C 285.883,177.347 286.716,175.681 286.5,173.5C 285.448,173.649 284.448,173.483 283.5,173C 284.949,171.883 286.616,171.216 288.5,171C 286.239,170.761 284.239,170.594 282.5,170.5C 284.017,168.815 285.684,167.315 287.5,166C 286.552,165.517 285.552,165.351 284.5,165.5C 284.5,164.5 284.5,163.5 284.5,162.5C 286.199,162.66 287.866,162.494 289.5,162C 286.833,161 286.833,160 289.5,159C 286.534,151.775 285.034,144.275 285,136.5C 286.982,143.095 288.649,149.761 290,156.5C 290.271,151.47 290.771,146.47 291.5,141.5C 290.447,138.869 289.947,136.202 290,133.5C 292.011,137.567 293.011,141.9 293,146.5C 293.333,146.167 293.667,145.833 294,145.5C 294.219,146.938 294.719,148.271 295.5,149.5C 295.833,148.833 296.167,148.167 296.5,147.5C 294.691,142.977 293.858,138.31 294,133.5C 296.301,140.001 297.967,146.668 299,153.5C 299.719,148.799 299.553,144.133 298.5,139.5C 298.737,136.937 299.237,136.937 300,139.5C 300.157,136.28 299.657,133.113 298.5,130C 299.216,127.208 299.549,124.374 299.5,121.5C 295.993,120.994 292.826,121.66 290,123.5C 289.517,122.552 289.351,121.552 289.5,120.5C 298.868,122.801 301.868,119.467 298.5,110.5C 296.646,109.824 296.313,108.824 297.5,107.5C 298.192,108.025 298.692,108.692 299,109.5C 299.495,107.527 299.662,105.527 299.5,103.5 Z"/></g>
<g><path style="opacity:1" fill="#473733" d="M 262.5,163.5 C 264.479,179.799 265.479,196.465 265.5,213.5C 264.177,210.062 263.51,206.229 263.5,202C 262.784,189.176 262.451,176.342 262.5,163.5 Z"/></g>
<g><path style="opacity:0.635" fill="#cbb59f" d="M 106.5,163.5 C 108.339,167.738 109.339,172.404 109.5,177.5C 108.833,177.5 108.167,177.5 107.5,177.5C 106.686,172.881 106.353,168.214 106.5,163.5 Z"/></g>
<g><path style="opacity:1" fill="#281e1e" d="M 116.5,177.5 C 117.167,194.833 117.833,194.833 118.5,177.5C 118.833,174.167 119.167,170.833 119.5,167.5C 120.5,167.5 121.5,167.5 122.5,167.5C 122.797,177.209 123.63,177.542 125,168.5C 125.667,174.833 125.667,181.167 125,187.5C 123.79,190.199 124.457,190.199 127,187.5C 127.333,189.167 127.667,190.833 128,192.5C 128.592,189.306 128.426,186.139 127.5,183C 128.63,180.593 129.463,178.093 130,175.5C 130.5,184.16 130.666,192.827 130.5,201.5C 131.5,201.5 132.5,201.5 133.5,201.5C 133.335,198.482 133.502,195.482 134,192.5C 134.943,195.845 135.777,199.178 136.5,202.5C 135.957,202.56 135.624,202.893 135.5,203.5C 137.184,204.15 138.517,205.15 139.5,206.5C 128.695,204.345 120.362,198.679 114.5,189.5C 115.043,189.44 115.376,189.107 115.5,188.5C 114.253,186.677 113.586,184.677 113.5,182.5C 113.11,179.534 113.777,176.868 115.5,174.5C 114.749,171.817 114.582,168.817 115,165.5C 116.266,169.395 116.766,173.395 116.5,177.5 Z"/></g>
<g><path style="opacity:1" fill="#211a1a" d="M 299.5,103.5 C 299.662,105.527 299.495,107.527 299,109.5C 298.692,108.692 298.192,108.025 297.5,107.5C 296.313,108.824 296.646,109.824 298.5,110.5C 301.868,119.467 298.868,122.801 289.5,120.5C 289.351,121.552 289.517,122.552 290,123.5C 292.826,121.66 295.993,120.994 299.5,121.5C 299.549,124.374 299.216,127.208 298.5,130C 299.657,133.113 300.157,136.28 300,139.5C 299.237,136.937 298.737,136.937 298.5,139.5C 299.553,144.133 299.719,148.799 299,153.5C 297.967,146.668 296.301,140.001 294,133.5C 293.858,138.31 294.691,142.977 296.5,147.5C 296.167,148.167 295.833,148.833 295.5,149.5C 294.719,148.271 294.219,146.938 294,145.5C 293.667,145.833 293.333,146.167 293,146.5C 293.011,141.9 292.011,137.567 290,133.5C 289.947,136.202 290.447,138.869 291.5,141.5C 290.771,146.47 290.271,151.47 290,156.5C 288.649,149.761 286.982,143.095 285,136.5C 285.034,144.275 286.534,151.775 289.5,159C 286.833,160 286.833,161 289.5,162C 287.866,162.494 286.199,162.66 284.5,162.5C 284.5,163.5 284.5,164.5 284.5,165.5C 285.552,165.351 286.552,165.517 287.5,166C 285.684,167.315 284.017,168.815 282.5,170.5C 284.239,170.594 286.239,170.761 288.5,171C 286.616,171.216 284.949,171.883 283.5,173C 284.448,173.483 285.448,173.649 286.5,173.5C 286.716,175.681 285.883,177.347 284,178.5C 283.667,177.833 283.333,177.167 283,176.5C 282.727,178.101 282.227,179.601 281.5,181C 282.86,182.938 282.527,184.604 280.5,186C 282.756,185.385 285.089,185.052 287.5,185C 285.968,185.7 284.968,186.866 284.5,188.5C 285.816,189.807 286.816,191.307 287.5,193C 285.82,193.347 284.82,194.347 284.5,196C 286.961,197.597 287.127,199.43 285,201.5C 284.421,197.614 283.588,197.614 282.5,201.5C 283.908,202.243 285.241,203.077 286.5,204C 285.551,204.617 284.718,204.451 284,203.5C 283.333,204.5 283.333,205.5 284,206.5C 286.292,205.092 288.459,205.259 290.5,207C 288.295,208.077 286.295,208.743 284.5,209C 285.5,209.333 286.5,209.667 287.5,210C 286.572,210.388 285.905,211.055 285.5,212C 285.944,213.762 286.444,213.595 287,211.5C 287.484,213.193 286.984,214.527 285.5,215.5C 281.5,215.5 277.5,215.5 273.5,215.5C 270.833,214.833 268.167,214.167 265.5,213.5C 265.479,196.465 264.479,179.799 262.5,163.5C 261.833,162.833 261.167,162.167 260.5,161.5C 261.822,161.67 262.989,161.337 264,160.5C 264.299,157.213 264.966,153.88 266,150.5C 267.365,155.968 269.031,161.301 271,166.5C 271.667,161.167 272.333,161.167 273,166.5C 274.378,164.938 275.211,163.105 275.5,161C 272.568,151.059 270.735,140.892 270,130.5C 269.549,132.929 268.715,133.096 267.5,131C 270.385,129.067 271.052,126.567 269.5,123.5C 268.086,124.624 266.586,125.624 265,126.5C 264.882,129.371 264.216,132.038 263,134.5C 262.798,132.744 262.298,131.078 261.5,129.5C 260.728,132.135 260.562,134.801 261,137.5C 260.163,135.649 259.329,133.816 258.5,132C 261.059,124.961 260.559,124.795 257,131.5C 256.316,130.216 256.483,129.049 257.5,128C 256.737,127.056 255.737,126.556 254.5,126.5C 252.551,127.707 251.051,129.373 250,131.5C 250.195,129.874 250.195,128.207 250,126.5C 247.641,129.577 246.474,133.077 246.5,137C 246.818,144.06 248.151,150.894 250.5,157.5C 250.377,158.925 250.043,160.258 249.5,161.5C 248.167,161.5 246.833,161.5 245.5,161.5C 245.918,160.778 246.584,160.278 247.5,160C 244.809,150.543 243.143,140.876 242.5,131C 242.245,129.674 241.578,128.674 240.5,128C 242.32,127.8 243.653,126.966 244.5,125.5C 249.361,125.937 254.028,125.437 258.5,124C 257.971,109.8 257.304,95.4663 256.5,81C 256.328,77.5226 256.994,74.356 258.5,71.5C 258.441,74.6905 258.107,77.8571 257.5,81C 258.338,95.8492 259.672,110.349 261.5,124.5C 261.343,125.873 261.51,127.207 262,128.5C 263.65,122.568 264.983,116.568 266,110.5C 266.654,109.304 267.154,109.304 267.5,110.5C 266.515,112.098 266.349,113.765 267,115.5C 269.046,112.727 268.879,110.227 266.5,108C 268.993,106.675 270.16,104.509 270,101.5C 271.395,102.815 272.395,102.481 273,100.5C 272.667,102.5 272.333,104.5 272,106.5C 273.389,104.209 274.889,102.042 276.5,100C 275.692,99.6924 275.025,99.1924 274.5,98.5C 276.159,97.1832 277.326,95.5165 278,93.5C 278.333,94.1667 278.667,94.8333 279,95.5C 279.273,93.8988 279.773,92.3988 280.5,91C 277.941,87.9253 277.941,84.9253 280.5,82C 278.679,79.3102 276.346,76.3102 273.5,73C 277.118,71.4608 281.118,70.1275 285.5,69C 282.26,68.9009 279.094,69.4009 276,70.5C 275.075,69.9535 274.242,69.2868 273.5,68.5C 275.291,67.8302 276.958,67.1635 278.5,66.5C 285.401,65.5721 292.234,65.5721 299,66.5C 299.5,78.8288 299.667,91.1622 299.5,103.5 Z"/></g>
<g><path style="opacity:1" fill="#291f1f" d="M 260.5,161.5 C 256.833,161.5 253.167,161.5 249.5,161.5C 250.043,160.258 250.377,158.925 250.5,157.5C 248.151,150.894 246.818,144.06 246.5,137C 246.474,133.077 247.641,129.577 250,126.5C 250.195,128.207 250.195,129.874 250,131.5C 251.051,129.373 252.551,127.707 254.5,126.5C 255.737,126.556 256.737,127.056 257.5,128C 256.483,129.049 256.316,130.216 257,131.5C 260.559,124.795 261.059,124.961 258.5,132C 259.329,133.816 260.163,135.649 261,137.5C 260.562,134.801 260.728,132.135 261.5,129.5C 262.298,131.078 262.798,132.744 263,134.5C 264.216,132.038 264.882,129.371 265,126.5C 266.586,125.624 268.086,124.624 269.5,123.5C 271.052,126.567 270.385,129.067 267.5,131C 268.715,133.096 269.549,132.929 270,130.5C 270.735,140.892 272.568,151.059 275.5,161C 275.211,163.105 274.378,164.938 273,166.5C 272.333,161.167 271.667,161.167 271,166.5C 269.031,161.301 267.365,155.968 266,150.5C 264.966,153.88 264.299,157.213 264,160.5C 262.989,161.337 261.822,161.67 260.5,161.5 Z"/></g>
<g><path style="opacity:0.325" fill="#8b7565" d="M 107.5,177.5 C 108.167,177.5 108.833,177.5 109.5,177.5C 110.833,179.167 112.167,180.833 113.5,182.5C 113.586,184.677 114.253,186.677 115.5,188.5C 115.376,189.107 115.043,189.44 114.5,189.5C 111.329,185.994 108.996,181.994 107.5,177.5 Z"/></g>
<g><path style="opacity:1" fill="#453432" d="M 156.5,177.5 C 157.376,177.369 158.043,177.702 158.5,178.5C 157.59,186.795 157.59,195.128 158.5,203.5C 157.5,203.5 156.5,203.5 155.5,203.5C 154.778,195.173 154.611,186.84 155,178.5C 156.107,179.712 156.607,179.379 156.5,177.5 Z"/></g>
<g><path style="opacity:1" fill="#625046" d="M 145.5,202.5 C 144.011,195.901 143.511,189.235 144,182.5C 144.779,188.008 145.612,193.508 146.5,199C 146.486,200.385 146.152,201.551 145.5,202.5 Z"/></g>
<g><path style="opacity:1" fill="#6f6156" d="M 116.5,177.5 C 117.167,177.5 117.833,177.5 118.5,177.5C 117.833,194.833 117.167,194.833 116.5,177.5 Z"/></g>
<g><path style="opacity:0.945" fill="#c2ded9" d="M 154.5,223.5 C 154.629,225.216 154.962,226.883 155.5,228.5C 156.108,233.944 155.442,238.944 153.5,243.5C 155.835,231.427 152.168,221.927 142.5,215C 136.214,213.571 130.048,211.738 124,209.5C 120.19,210.744 116.356,211.911 112.5,213C 109.296,216.036 106.296,219.203 103.5,222.5C 103.167,222.5 102.833,222.5 102.5,222.5C 102.5,222.167 102.5,221.833 102.5,221.5C 104.628,218.87 106.961,216.37 109.5,214C 108.906,213.536 108.239,213.369 107.5,213.5C 108.987,212.196 110.654,211.03 112.5,210C 116.537,209.432 120.37,208.265 124,206.5C 129.849,207.871 135.682,209.371 141.5,211C 147.05,214.053 151.384,218.219 154.5,223.5 Z"/></g>
<g><path style="opacity:1" fill="#63cdc2" d="M 153.5,243.5 C 151.047,248.961 149.047,254.628 147.5,260.5C 146.861,259.903 146.528,259.07 146.5,258C 149.431,248.403 150.264,238.57 149,228.5C 148.751,227.376 148.251,226.376 147.5,225.5C 143.726,223.229 140.393,220.396 137.5,217C 133.033,216.735 128.699,215.902 124.5,214.5C 118.249,214.014 113.249,216.181 109.5,221C 107.655,222.128 105.655,222.628 103.5,222.5C 106.296,219.203 109.296,216.036 112.5,213C 116.356,211.911 120.19,210.744 124,209.5C 130.048,211.738 136.214,213.571 142.5,215C 152.168,221.927 155.835,231.427 153.5,243.5 Z"/></g>
<g><path style="opacity:1" fill="#231a1a" d="M 293.5,222.5 C 294.952,223.302 296.618,223.802 298.5,224C 297.667,224.833 296.833,225.667 296,226.5C 294.847,224.503 293.347,224.17 291.5,225.5C 289.167,228.5 286.833,231.5 284.5,234.5C 285.867,234.504 287.367,235.17 289,236.5C 289.333,236.167 289.667,235.833 290,235.5C 290.318,237.061 291.151,238.228 292.5,239C 291.185,240.395 291.519,241.395 293.5,242C 293.043,242.414 292.709,242.914 292.5,243.5C 293.154,245.115 293.654,246.782 294,248.5C 294.332,243.482 295.665,238.816 298,234.5C 297.919,239.448 297.753,244.448 297.5,249.5C 297.254,256.664 298.087,263.664 300,270.5C 300.831,277.524 300.664,284.524 299.5,291.5C 299.96,287.516 299.46,283.516 298,279.5C 296.538,281.988 295.538,284.655 295,287.5C 293.601,288.227 292.101,288.727 290.5,289C 293.6,291.886 293.6,294.22 290.5,296C 291.056,296.383 291.389,296.883 291.5,297.5C 290.167,297.167 288.833,296.833 287.5,296.5C 284.236,289.831 283.736,282.831 286,275.5C 289.311,272.405 290.478,268.738 289.5,264.5C 288.85,266.184 287.85,267.517 286.5,268.5C 286.33,267.178 286.663,266.011 287.5,265C 286.668,264.312 286.002,264.479 285.5,265.5C 281.982,271.892 279.148,278.558 277,285.5C 276.225,278.962 276.391,272.462 277.5,266C 277.333,265.5 277.167,265 277,264.5C 276.292,265.381 275.458,266.047 274.5,266.5C 272.689,268.385 271.522,270.719 271,273.5C 270.377,280.523 270.543,287.523 271.5,294.5C 269.5,294.5 267.5,294.5 265.5,294.5C 264.712,290.002 264.045,285.168 263.5,280C 263.547,274.694 264.047,269.527 265,264.5C 262.196,268.883 261.03,273.716 261.5,279C 261.484,283.942 262.151,288.776 263.5,293.5C 262.726,294.711 261.893,294.711 261,293.5C 260.667,291.833 260.333,290.167 260,288.5C 259.39,281.065 259.723,273.731 261,266.5C 258.342,274.846 257.842,283.346 259.5,292C 259.167,292.5 258.833,293 258.5,293.5C 255.365,283.517 256.032,273.85 260.5,264.5C 261.283,261.491 261.95,258.324 262.5,255C 261.99,253.174 261.156,253.007 260,254.5C 259.326,253.422 258.326,252.755 257,252.5C 253.65,252.946 250.483,253.612 247.5,254.5C 233.167,254.5 218.833,254.5 204.5,254.5C 204.5,254.167 204.5,253.833 204.5,253.5C 205.207,251.769 206.207,250.103 207.5,248.5C 206.418,248.251 205.085,248.085 203.5,248C 204.85,246.282 206.017,244.448 207,242.5C 211.46,244.633 215.96,244.466 220.5,242C 218.833,241.667 217.167,241.333 215.5,241C 218.546,238.267 220.88,234.934 222.5,231C 220.887,230.911 219.72,231.745 219,233.5C 218.667,233.167 218.333,232.833 218,232.5C 218.536,234.447 218.202,236.447 217,238.5C 214.928,234.358 215.095,230.358 217.5,226.5C 218.251,227.376 218.751,228.376 219,229.5C 219.249,228.376 219.749,227.376 220.5,226.5C 220.833,226.667 221.167,226.833 221.5,227C 220.755,229.725 221.755,229.725 224.5,227C 226.698,226.627 228.865,226.127 231,225.5C 234.097,225.429 237.264,225.595 240.5,226C 239.244,225.583 238.577,224.75 238.5,223.5C 256.754,222.608 275.088,222.275 293.5,222.5 Z"/></g>
<g><path style="opacity:0.869" fill="#65aea1" d="M 107.5,213.5 C 108.239,213.369 108.906,213.536 109.5,214C 106.961,216.37 104.628,218.87 102.5,221.5C 101.778,221.918 101.278,222.584 101,223.5C 99.7247,230.152 98.5581,236.818 97.5,243.5C 96.5091,239.555 96.1758,235.555 96.5,231.5C 97.2281,223.584 100.895,217.584 107.5,213.5 Z"/></g>
<g><path style="opacity:1" fill="#342726" d="M 238.5,223.5 C 238.577,224.75 239.244,225.583 240.5,226C 237.264,225.595 234.097,225.429 231,225.5C 228.865,226.127 226.698,226.627 224.5,227C 221.755,229.725 220.755,229.725 221.5,227C 221.167,226.833 220.833,226.667 220.5,226.5C 219.749,227.376 219.249,228.376 219,229.5C 218.751,228.376 218.251,227.376 217.5,226.5C 215.095,230.358 214.928,234.358 217,238.5C 218.202,236.447 218.536,234.447 218,232.5C 218.333,232.833 218.667,233.167 219,233.5C 219.72,231.745 220.887,230.911 222.5,231C 220.88,234.934 218.546,238.267 215.5,241C 217.167,241.333 218.833,241.667 220.5,242C 215.96,244.466 211.46,244.633 207,242.5C 206.017,244.448 204.85,246.282 203.5,248C 205.085,248.085 206.418,248.251 207.5,248.5C 206.207,250.103 205.207,251.769 204.5,253.5C 202.975,249.635 200.642,246.302 197.5,243.5C 194.786,238.816 190.786,236.149 185.5,235.5C 185.167,235.5 184.833,235.5 184.5,235.5C 175.729,232.488 168.896,235.155 164,243.5C 162.34,247.306 160.506,250.973 158.5,254.5C 156.5,254.5 154.5,254.5 152.5,254.5C 152.918,251.235 154.085,248.235 156,245.5C 156.818,239.651 156.652,233.985 155.5,228.5C 154.962,226.883 154.629,225.216 154.5,223.5C 182.38,223.125 210.38,223.125 238.5,223.5 Z"/></g>
<g><path style="opacity:1" fill="#3f9888" d="M 147.5,260.5 C 147.167,261.5 146.5,262.167 145.5,262.5C 143.5,263.833 141.5,263.833 139.5,262.5C 145.267,254.906 147.267,246.573 145.5,237.5C 145.675,235.379 145.341,233.379 144.5,231.5C 145.573,230.749 145.74,229.749 145,228.5C 137.979,221.128 129.479,218.295 119.5,220C 116.894,220.792 114.894,222.292 113.5,224.5C 111.629,224.859 110.129,225.859 109,227.5C 107.539,230.679 106.705,234.012 106.5,237.5C 105.677,240.977 105.177,244.644 105,248.5C 104.111,247.112 103.611,247.278 103.5,249C 104.348,251.77 104.681,254.603 104.5,257.5C 103.883,257.389 103.383,257.056 103,256.5C 101.689,252.042 100.522,247.542 99.5,243C 100.174,236.097 101.174,229.264 102.5,222.5C 102.833,222.5 103.167,222.5 103.5,222.5C 105.655,222.628 107.655,222.128 109.5,221C 113.249,216.181 118.249,214.014 124.5,214.5C 128.699,215.902 133.033,216.735 137.5,217C 140.393,220.396 143.726,223.229 147.5,225.5C 148.251,226.376 148.751,227.376 149,228.5C 150.264,238.57 149.431,248.403 146.5,258C 146.528,259.07 146.861,259.903 147.5,260.5 Z"/></g>
<g><path style="opacity:1" fill="#25211c" d="M 144.5,231.5 C 145.341,233.379 145.675,235.379 145.5,237.5C 144.541,241.664 141.874,243.998 137.5,244.5C 134.794,244.312 132.461,243.312 130.5,241.5C 130.048,238.797 129.381,236.13 128.5,233.5C 123.687,241.385 117.854,242.385 111,236.5C 109.773,231.938 110.607,227.938 113.5,224.5C 117.404,222.979 121.071,223.479 124.5,226C 125.861,227.584 126.528,229.418 126.5,231.5C 130.089,230.413 133.589,229.08 137,227.5C 140.329,227.413 142.829,228.746 144.5,231.5 Z"/></g>
<g><path style="opacity:1" fill="#c7bdb0" d="M 133.5,229.5 C 139.183,228.169 142.849,230.169 144.5,235.5C 142.084,242.805 137.918,244.138 132,239.5C 129.925,235.794 130.425,232.461 133.5,229.5 Z"/></g>
<g><path style="opacity:1" fill="#c8bfb4" d="M 115.5,225.5 C 120.955,224.888 124.288,227.222 125.5,232.5C 124.634,236.532 122.134,238.532 118,238.5C 112.793,237.774 110.793,234.774 112,229.5C 112.69,227.65 113.856,226.316 115.5,225.5 Z"/></g>
<g><path style="opacity:1" fill="#c9ad8e" d="M 144.5,231.5 C 142.829,228.746 140.329,227.413 137,227.5C 133.589,229.08 130.089,230.413 126.5,231.5C 126.528,229.418 125.861,227.584 124.5,226C 121.071,223.479 117.404,222.979 113.5,224.5C 114.894,222.292 116.894,220.792 119.5,220C 129.479,218.295 137.979,221.128 145,228.5C 145.74,229.749 145.573,230.749 144.5,231.5 Z"/></g>
<g><path style="opacity:1" fill="#c9a583" d="M 130.5,241.5 C 132.461,243.312 134.794,244.312 137.5,244.5C 137.67,245.822 137.337,246.989 136.5,248C 137.574,248.739 138.241,249.739 138.5,251C 137.577,253.94 136.577,256.773 135.5,259.5C 121.77,261.728 112.436,256.895 107.5,245C 108.744,244.544 109.577,245.044 110,246.5C 110.483,245.552 110.649,244.552 110.5,243.5C 114.911,243.979 119.078,243.312 123,241.5C 125.49,244.061 127.99,244.061 130.5,241.5 Z"/></g>
<g><path style="opacity:1" fill="#cdb59e" d="M 145.5,237.5 C 147.267,246.573 145.267,254.906 139.5,262.5C 139.167,262.5 138.833,262.5 138.5,262.5C 136.5,262.5 135.5,261.5 135.5,259.5C 136.577,256.773 137.577,253.94 138.5,251C 138.241,249.739 137.574,248.739 136.5,248C 137.337,246.989 137.67,245.822 137.5,244.5C 141.874,243.998 144.541,241.664 145.5,237.5 Z"/></g>
<g><path style="opacity:1" fill="#7a4014" d="M 184.5,235.5 C 181.102,235.18 177.768,235.513 174.5,236.5C 178.202,239.557 181.202,243.223 183.5,247.5C 182.698,251.394 181.198,255.061 179,258.5C 176.301,258.336 173.468,258.17 170.5,258C 167.382,255.885 164.048,255.385 160.5,256.5C 162.004,259.506 161.337,260.172 158.5,258.5C 158.5,258.167 158.5,257.833 158.5,257.5C 158.5,256.5 158.5,255.5 158.5,254.5C 160.506,250.973 162.34,247.306 164,243.5C 168.896,235.155 175.729,232.488 184.5,235.5 Z"/></g>
<g><path style="opacity:1" fill="#622305" d="M 184.5,235.5 C 184.833,235.5 185.167,235.5 185.5,235.5C 192.583,239.757 197.75,245.757 201,253.5C 201.667,255.833 201.667,258.167 201,260.5C 200.586,260.957 200.086,261.291 199.5,261.5C 197.626,259.183 195.626,257.016 193.5,255C 192.207,254.51 190.873,254.343 189.5,254.5C 189.657,253.127 189.49,251.793 189,250.5C 188.586,250.957 188.086,251.291 187.5,251.5C 186.591,249.625 185.257,248.292 183.5,247.5C 181.202,243.223 178.202,239.557 174.5,236.5C 177.768,235.513 181.102,235.18 184.5,235.5 Z"/></g>
<g><path style="opacity:1" fill="#ac8d6d" d="M 113.5,224.5 C 110.607,227.938 109.773,231.938 111,236.5C 117.854,242.385 123.687,241.385 128.5,233.5C 129.381,236.13 130.048,238.797 130.5,241.5C 127.99,244.061 125.49,244.061 123,241.5C 119.078,243.312 114.911,243.979 110.5,243.5C 110.649,244.552 110.483,245.552 110,246.5C 109.577,245.044 108.744,244.544 107.5,245C 112.436,256.895 121.77,261.728 135.5,259.5C 135.5,261.5 136.5,262.5 138.5,262.5C 138.158,263.338 137.492,263.672 136.5,263.5C 129.038,265.13 121.705,264.797 114.5,262.5C 113.287,262.747 112.62,263.414 112.5,264.5C 111.508,264.672 110.842,264.338 110.5,263.5C 110.5,263.167 110.5,262.833 110.5,262.5C 107.316,254.559 105.983,246.226 106.5,237.5C 106.705,234.012 107.539,230.679 109,227.5C 110.129,225.859 111.629,224.859 113.5,224.5 Z"/></g>
<g><path style="opacity:1" fill="#89c5bc" d="M 155.5,228.5 C 156.652,233.985 156.818,239.651 156,245.5C 154.085,248.235 152.918,251.235 152.5,254.5C 151.89,255.391 151.557,256.391 151.5,257.5C 150.167,258.5 148.833,259.5 147.5,260.5C 149.047,254.628 151.047,248.961 153.5,243.5C 155.442,238.944 156.108,233.944 155.5,228.5 Z"/></g>
<g><path style="opacity:1" fill="#457868" d="M 106.5,237.5 C 105.983,246.226 107.316,254.559 110.5,262.5C 107.784,262.614 105.784,261.614 104.5,259.5C 104.5,258.833 104.5,258.167 104.5,257.5C 104.681,254.603 104.348,251.77 103.5,249C 103.611,247.278 104.111,247.112 105,248.5C 105.177,244.644 105.677,240.977 106.5,237.5 Z"/></g>
<g><path style="opacity:1" fill="#7d6355" d="M 197.5,243.5 C 200.642,246.302 202.975,249.635 204.5,253.5C 204.5,253.833 204.5,254.167 204.5,254.5C 204.5,255.833 204.5,257.167 204.5,258.5C 204.5,260.5 204.5,262.5 204.5,264.5C 204.672,265.492 204.338,266.158 203.5,266.5C 203.666,262.486 203.499,258.486 203,254.5C 201.345,250.697 199.511,247.03 197.5,243.5 Z"/></g>
<g><path style="opacity:0.275" fill="#b1c5bc" d="M 102.5,221.5 C 102.5,221.833 102.5,222.167 102.5,222.5C 101.174,229.264 100.174,236.097 99.5,243C 100.522,247.542 101.689,252.042 103,256.5C 103.383,257.056 103.883,257.389 104.5,257.5C 104.5,258.167 104.5,258.833 104.5,259.5C 102.983,259.489 101.816,258.823 101,257.5C 99.5285,253.419 97.8618,249.419 96,245.5C 95.1849,240.648 95.3516,235.981 96.5,231.5C 96.1758,235.555 96.5091,239.555 97.5,243.5C 98.5581,236.818 99.7247,230.152 101,223.5C 101.278,222.584 101.778,221.918 102.5,221.5 Z"/></g>
<g><path style="opacity:0.84" fill="#000000" d="M 260.5,264.5 C 257.833,264.5 255.167,264.5 252.5,264.5C 236.5,264.5 220.5,264.5 204.5,264.5C 204.5,262.5 204.5,260.5 204.5,258.5C 222.167,258.5 239.833,258.5 257.5,258.5C 257.5,257.167 257.5,255.833 257.5,254.5C 254.167,254.5 250.833,254.5 247.5,254.5C 250.483,253.612 253.65,252.946 257,252.5C 258.326,252.755 259.326,253.422 260,254.5C 261.156,253.007 261.99,253.174 262.5,255C 261.95,258.324 261.283,261.491 260.5,264.5 Z"/></g>
<g><path style="opacity:0.85" fill="#040403" d="M 151.5,257.5 C 153.833,257.5 156.167,257.5 158.5,257.5C 158.5,257.833 158.5,258.167 158.5,258.5C 158.784,260.415 158.451,262.081 157.5,263.5C 153.298,263.817 149.298,263.483 145.5,262.5C 146.5,262.167 147.167,261.5 147.5,260.5C 148.833,259.5 150.167,258.5 151.5,257.5 Z"/></g>
<g><path style="opacity:1" fill="#68513d" d="M 136.5,263.5 C 137.167,264.167 137.833,264.833 138.5,265.5C 129.805,265.673 121.138,265.34 112.5,264.5C 112.62,263.414 113.287,262.747 114.5,262.5C 121.705,264.797 129.038,265.13 136.5,263.5 Z"/></g>
<g><path style="opacity:1" fill="#2a2220" d="M 138.5,262.5 C 138.833,262.5 139.167,262.5 139.5,262.5C 141.5,263.833 143.5,263.833 145.5,262.5C 149.298,263.483 153.298,263.817 157.5,263.5C 155.37,266.737 152.37,268.737 148.5,269.5C 145.598,268.216 142.598,267.216 139.5,266.5C 138.833,266.5 138.5,266.167 138.5,265.5C 137.833,264.833 137.167,264.167 136.5,263.5C 137.492,263.672 138.158,263.338 138.5,262.5 Z"/></g>
<g><path style="opacity:1" fill="#261d1d" d="M 204.5,264.5 C 220.5,264.5 236.5,264.5 252.5,264.5C 252.844,267.074 252.344,269.741 251,272.5C 250.225,279.038 250.391,285.538 251.5,292C 251.361,293.301 250.695,294.134 249.5,294.5C 246.671,285.427 247.004,276.427 250.5,267.5C 250,267.167 249.5,266.833 249,266.5C 247.523,267.444 246.523,268.777 246,270.5C 245.269,278.202 245.436,285.869 246.5,293.5C 241.833,293.5 237.167,293.5 232.5,293.5C 231.39,284.142 231.723,274.809 233.5,265.5C 231.5,265.5 229.5,265.5 227.5,265.5C 225.985,273.744 225.151,282.077 225,290.5C 224.667,290.833 224.333,291.167 224,291.5C 223.032,283.223 223.532,275.056 225.5,267C 225.167,266.5 224.833,266 224.5,265.5C 223.104,267.972 222.27,270.638 222,273.5C 221.667,279.833 221.333,286.167 221,292.5C 218.919,293.333 216.752,293.333 214.5,292.5C 214.334,286.824 214.501,281.157 215,275.5C 215.557,273.385 216.391,271.385 217.5,269.5C 217.174,265.845 215.174,265.011 211.5,267C 208.747,272.85 207.58,279.017 208,285.5C 209.207,279.799 210.54,274.132 212,268.5C 213.049,267.483 214.216,267.316 215.5,268C 214.44,270.737 213.606,273.57 213,276.5C 212.829,281.533 212.329,286.533 211.5,291.5C 210.522,291.977 209.689,292.643 209,293.5C 208.692,292.692 208.192,292.025 207.5,291.5C 206.264,292.246 204.93,292.579 203.5,292.5C 203.664,289.813 203.497,287.146 203,284.5C 202.461,287.529 201.794,290.529 201,293.5C 200.431,289.639 199.598,289.639 198.5,293.5C 197.833,293.167 197.167,292.833 196.5,292.5C 195.961,286.974 195.961,281.641 196.5,276.5C 199.637,273.701 201.971,270.368 203.5,266.5C 204.338,266.158 204.672,265.492 204.5,264.5 Z"/></g>
<g><path style="opacity:1" fill="#e6e6e6" d="M 110.5,263.5 C 110.842,264.338 111.508,264.672 112.5,264.5C 121.138,265.34 129.805,265.673 138.5,265.5C 138.5,266.167 138.833,266.5 139.5,266.5C 139.461,267.583 139.127,268.583 138.5,269.5C 139.167,270.167 139.833,270.833 140.5,271.5C 133.514,274.605 126.181,276.938 118.5,278.5C 112.737,275.074 108.404,270.407 105.5,264.5C 107.117,263.962 108.784,263.629 110.5,263.5 Z"/></g>
<g><path style="opacity:1" fill="#71330b" d="M 185.5,235.5 C 190.786,236.149 194.786,238.816 197.5,243.5C 199.511,247.03 201.345,250.697 203,254.5C 203.499,258.486 203.666,262.486 203.5,266.5C 201.971,270.368 199.637,273.701 196.5,276.5C 196.167,276.5 195.833,276.5 195.5,276.5C 192.081,277.374 188.748,278.54 185.5,280C 182.961,280.796 180.628,280.629 178.5,279.5C 179.5,279.5 180.5,279.5 181.5,279.5C 181.275,275.944 182.108,275.61 184,278.5C 184.5,278.333 185,278.167 185.5,278C 188.456,276.658 190.456,274.992 191.5,273C 189.381,271.221 187.381,269.388 185.5,267.5C 184.353,267.818 183.519,268.484 183,269.5C 183.218,267.413 183.051,265.413 182.5,263.5C 180.837,265.801 179.003,265.801 177,263.5C 175.691,265.891 174.691,265.891 174,263.5C 172.135,265.673 169.969,266.007 167.5,264.5C 166.058,266.316 165.558,268.316 166,270.5C 169.11,274.122 172.61,277.122 176.5,279.5C 173.422,279.38 170.755,278.38 168.5,276.5C 165.373,273.082 161.873,272.749 158,275.5C 157.075,274.953 156.242,274.287 155.5,273.5C 156.681,271.802 156.681,270.135 155.5,268.5C 153.484,273.224 151.151,277.391 148.5,281C 145.794,282.908 142.794,283.741 139.5,283.5C 139.33,282.178 139.663,281.011 140.5,280C 139.167,279.333 137.833,279.333 136.5,280C 131.671,282.916 127.004,286.082 122.5,289.5C 118.915,289.292 116.249,290.625 114.5,293.5C 113.167,292.833 112.167,291.833 111.5,290.5C 124.621,284.776 136.955,277.776 148.5,269.5C 152.37,268.737 155.37,266.737 157.5,263.5C 158.451,262.081 158.784,260.415 158.5,258.5C 161.337,260.172 162.004,259.506 160.5,256.5C 164.048,255.385 167.382,255.885 170.5,258C 173.468,258.17 176.301,258.336 179,258.5C 181.198,255.061 182.698,251.394 183.5,247.5C 185.257,248.292 186.591,249.625 187.5,251.5C 188.086,251.291 188.586,250.957 189,250.5C 189.49,251.793 189.657,253.127 189.5,254.5C 190.873,254.343 192.207,254.51 193.5,255C 195.626,257.016 197.626,259.183 199.5,261.5C 200.086,261.291 200.586,260.957 201,260.5C 201.667,258.167 201.667,255.833 201,253.5C 197.75,245.757 192.583,239.757 185.5,235.5 Z"/></g>
<g><path style="opacity:1" fill="#681f01" d="M 178.5,279.5 C 177.833,279.5 177.167,279.5 176.5,279.5C 172.61,277.122 169.11,274.122 166,270.5C 165.558,268.316 166.058,266.316 167.5,264.5C 169.969,266.007 172.135,265.673 174,263.5C 174.691,265.891 175.691,265.891 177,263.5C 179.003,265.801 180.837,265.801 182.5,263.5C 183.051,265.413 183.218,267.413 183,269.5C 183.519,268.484 184.353,267.818 185.5,267.5C 187.381,269.388 189.381,271.221 191.5,273C 190.456,274.992 188.456,276.658 185.5,278C 185,278.167 184.5,278.333 184,278.5C 182.108,275.61 181.275,275.944 181.5,279.5C 180.5,279.5 179.5,279.5 178.5,279.5 Z"/></g>
<g><path style="opacity:0.704" fill="#130f0e" d="M 291.5,297.5 C 291.389,296.883 291.056,296.383 290.5,296C 293.6,294.22 293.6,291.886 290.5,289C 292.101,288.727 293.601,288.227 295,287.5C 295.538,284.655 296.538,281.988 298,279.5C 299.46,283.516 299.96,287.516 299.5,291.5C 300.664,284.524 300.831,277.524 300,270.5C 298.087,263.664 297.254,256.664 297.5,249.5C 297.753,244.448 297.919,239.448 298,234.5C 295.665,238.816 294.332,243.482 294,248.5C 293.654,246.782 293.154,245.115 292.5,243.5C 292.709,242.914 293.043,242.414 293.5,242C 291.519,241.395 291.185,240.395 292.5,239C 291.151,238.228 290.318,237.061 290,235.5C 289.667,235.833 289.333,236.167 289,236.5C 287.367,235.17 285.867,234.504 284.5,234.5C 286.833,231.5 289.167,228.5 291.5,225.5C 293.347,224.17 294.847,224.503 296,226.5C 296.833,225.667 297.667,224.833 298.5,224C 296.618,223.802 294.952,223.302 293.5,222.5C 304.531,220.537 308.864,225.203 306.5,236.5C 305.42,254.019 304.087,271.519 302.5,289C 302.615,291.042 302.949,293.042 303.5,295C 303.095,295.945 302.428,296.612 301.5,297C 298.183,297.498 294.85,297.665 291.5,297.5 Z"/></g>
<g><path style="opacity:1" fill="#d1d1d1" d="M 105.5,264.5 C 108.404,270.407 112.737,275.074 118.5,278.5C 126.181,276.938 133.514,274.605 140.5,271.5C 139.833,270.833 139.167,270.167 138.5,269.5C 139.127,268.583 139.461,267.583 139.5,266.5C 142.598,267.216 145.598,268.216 148.5,269.5C 136.955,277.776 124.621,284.776 111.5,290.5C 102.639,287.181 95.472,289.514 90,297.5C 87.1457,295.491 83.979,294.158 80.5,293.5C 78.6453,293.728 77.8119,293.061 78,291.5C 83.3131,286.207 87.6464,280.207 91,273.5C 92.214,271.951 93.714,270.785 95.5,270C 93.563,269.878 92.2297,269.045 91.5,267.5C 95.7874,265.265 100.454,264.265 105.5,264.5 Z"/></g>
<g><path style="opacity:0.907" fill="#acabaa" d="M 91.5,267.5 C 92.2297,269.045 93.563,269.878 95.5,270C 93.714,270.785 92.214,271.951 91,273.5C 87.6464,280.207 83.3131,286.207 78,291.5C 77.8119,293.061 78.6453,293.728 80.5,293.5C 78.3598,296.165 75.8598,298.498 73,300.5C 70.0809,308.014 72.5809,311.68 80.5,311.5C 78.0472,312.785 75.5472,312.785 73,311.5C 71.022,312.906 68.8553,313.906 66.5,314.5C 67.5736,313.115 68.9069,311.949 70.5,311C 68.7948,309.137 67.7948,306.971 67.5,304.5C 68.8346,299.331 70.6679,294.331 73,289.5C 77.4866,284.524 81.4866,279.191 85,273.5C 87.0829,271.244 89.2496,269.244 91.5,267.5 Z"/></g>
<g><path style="opacity:1" fill="#211918" d="M 168.5,276.5 C 170.755,278.38 173.422,279.38 176.5,279.5C 177.167,279.5 177.833,279.5 178.5,279.5C 180.628,280.629 182.961,280.796 185.5,280C 188.748,278.54 192.081,277.374 195.5,276.5C 195.538,279.807 194.872,282.974 193.5,286C 194.233,287.766 194.567,289.599 194.5,291.5C 191.487,292.132 188.487,292.466 185.5,292.5C 183.647,291.811 182.481,290.478 182,288.5C 181.333,289.167 180.667,289.833 180,290.5C 176.927,289.383 173.76,289.216 170.5,290C 172.437,290.122 173.77,290.955 174.5,292.5C 171.455,292.508 168.455,292.841 165.5,293.5C 164.365,291.787 162.698,291.12 160.5,291.5C 160.802,294.059 160.468,296.393 159.5,298.5C 159.714,291.725 159.047,285.058 157.5,278.5C 157.918,277.778 158.584,277.278 159.5,277C 162.482,276.502 165.482,276.335 168.5,276.5 Z"/></g>
<g><path style="opacity:1" fill="#e0dfdf" d="M 149.5,282.5 C 151.482,284.597 152.482,287.264 152.5,290.5C 150.08,290.708 147.747,290.374 145.5,289.5C 143.04,291.096 140.374,292.262 137.5,293C 132.111,293.507 126.777,294.34 121.5,295.5C 122.348,297.409 122.682,299.409 122.5,301.5C 122.405,303.786 121.738,305.786 120.5,307.5C 120.167,307.5 119.833,307.5 119.5,307.5C 119.167,303.5 118.833,299.5 118.5,295.5C 118.414,294.504 118.748,293.671 119.5,293C 127.104,291.967 134.104,289.467 140.5,285.5C 143.594,284.787 146.594,283.787 149.5,282.5 Z"/></g>
<g><path style="opacity:1" fill="#41120b" d="M 140.5,285.5 C 134.104,289.467 127.104,291.967 119.5,293C 118.748,293.671 118.414,294.504 118.5,295.5C 117.167,294.833 115.833,294.167 114.5,293.5C 116.249,290.625 118.915,289.292 122.5,289.5C 125.02,288.768 127.354,287.602 129.5,286C 133.152,285.501 136.818,285.335 140.5,285.5 Z"/></g>
<g><path style="opacity:1" fill="#5b1d09" d="M 168.5,276.5 C 165.482,276.335 162.482,276.502 159.5,277C 158.584,277.278 157.918,277.778 157.5,278.5C 154.515,279.326 151.849,280.659 149.5,282.5C 146.594,283.787 143.594,284.787 140.5,285.5C 136.818,285.335 133.152,285.501 129.5,286C 127.354,287.602 125.02,288.768 122.5,289.5C 127.004,286.082 131.671,282.916 136.5,280C 137.833,279.333 139.167,279.333 140.5,280C 139.663,281.011 139.33,282.178 139.5,283.5C 142.794,283.741 145.794,282.908 148.5,281C 151.151,277.391 153.484,273.224 155.5,268.5C 156.681,270.135 156.681,271.802 155.5,273.5C 156.242,274.287 157.075,274.953 158,275.5C 161.873,272.749 165.373,273.082 168.5,276.5 Z"/></g>
<g><path style="opacity:1" fill="#b2b2b2" d="M 157.5,278.5 C 159.047,285.058 159.714,291.725 159.5,298.5C 159.5,299.167 159.5,299.833 159.5,300.5C 147.241,300.247 134.907,300.58 122.5,301.5C 122.682,299.409 122.348,297.409 121.5,295.5C 126.777,294.34 132.111,293.507 137.5,293C 140.374,292.262 143.04,291.096 145.5,289.5C 147.747,290.374 150.08,290.708 152.5,290.5C 152.482,287.264 151.482,284.597 149.5,282.5C 151.849,280.659 154.515,279.326 157.5,278.5 Z"/></g>
<g><path style="opacity:1" fill="#d5b792" d="M 111.5,290.5 C 112.167,291.833 113.167,292.833 114.5,293.5C 115.833,294.167 117.167,294.833 118.5,295.5C 118.833,299.5 119.167,303.5 119.5,307.5C 117.712,307.971 115.878,308.304 114,308.5C 110.749,306.776 107.249,305.776 103.5,305.5C 100.478,305.804 97.4781,306.304 94.5,307C 92.6298,309.04 90.6298,310.873 88.5,312.5C 87.7354,312.923 86.9021,313.257 86,313.5C 84.1997,312.68 82.3664,312.014 80.5,311.5C 72.5809,311.68 70.0809,308.014 73,300.5C 75.8598,298.498 78.3598,296.165 80.5,293.5C 83.979,294.158 87.1457,295.491 90,297.5C 95.472,289.514 102.639,287.181 111.5,290.5 Z"/></g>
<g><path style="opacity:0.213" fill="#010101" d="M 165.5,293.5 C 164.5,293.5 163.5,293.5 162.5,293.5C 162.274,296.249 162.607,298.916 163.5,301.5C 166.833,301.833 170.167,302.167 173.5,302.5C 214.486,300.806 255.486,300.306 296.5,301C 300.683,304.901 302.517,309.735 302,315.5C 317.566,325.763 317.066,335.263 300.5,344C 295.792,344.696 291.126,345.529 286.5,346.5C 249.979,346.667 213.312,346.334 176.5,345.5C 173.56,349.455 170.56,353.455 167.5,357.5C 164.133,359.578 160.466,360.911 156.5,361.5C 151.1,360.152 145.6,359.485 140,359.5C 121.161,360.654 102.328,360.487 83.5,359C 73.1184,359.21 64.2851,355.71 57,348.5C 57.5806,342.535 60.0806,337.368 64.5,333C 70.3222,330.545 76.3222,328.712 82.5,327.5C 81.8443,329.484 81.1776,331.484 80.5,333.5C 80.6082,334.442 80.9415,335.275 81.5,336C 80.2899,337.039 79.2899,338.206 78.5,339.5C 77.1667,340.167 76.1667,341.167 75.5,342.5C 73.7538,343.249 72.7538,344.583 72.5,346.5C 73.0234,349.567 74.5234,351.9 77,353.5C 77.9503,352.978 78.7836,352.311 79.5,351.5C 80.5237,352.853 81.857,353.52 83.5,353.5C 85.9128,355.051 88.5794,355.717 91.5,355.5C 93.258,355.123 94.9246,354.456 96.5,353.5C 99.757,354.551 103.09,355.218 106.5,355.5C 109.85,355.665 113.183,355.498 116.5,355C 117.056,354.617 117.389,354.117 117.5,353.5C 118.222,353.082 118.722,352.416 119,351.5C 119.497,348.854 119.664,346.187 119.5,343.5C 123.252,346.32 127.252,346.986 131.5,345.5C 133.027,345.573 134.027,344.906 134.5,343.5C 136.819,343.008 138.819,342.008 140.5,340.5C 142.074,338.898 142.741,336.898 142.5,334.5C 147.588,333.218 152.921,332.551 158.5,332.5C 166.51,332.7 174.51,333.034 182.5,333.5C 195.75,333.107 208.584,333.107 221,333.5C 227.585,333.205 233.918,332.205 240,330.5C 240.7,332.032 241.866,333.032 243.5,333.5C 251.467,333.671 259.467,333.337 267.5,332.5C 279.24,333.765 290.073,333.765 300,332.5C 299.862,330.51 299.362,328.51 298.5,326.5C 298.919,325.328 299.585,324.328 300.5,323.5C 300.154,322.304 299.654,322.304 299,323.5C 298.238,319.668 298.738,316.002 300.5,312.5C 298.907,307.224 295.573,305.557 290.5,307.5C 287.31,306.217 283.976,305.55 280.5,305.5C 257.675,307.644 234.842,307.977 212,306.5C 211.5,306.833 211,307.167 210.5,307.5C 218.078,308.99 225.412,309.323 232.5,308.5C 231.092,312.75 228.926,313.416 226,310.5C 225.055,310.905 224.388,311.572 224,312.5C 222.475,311.28 220.641,310.613 218.5,310.5C 214.524,310.323 211.691,311.99 210,315.5C 209.517,314.552 209.351,313.552 209.5,312.5C 206.22,311.631 202.887,310.964 199.5,310.5C 197.159,310.363 195.159,311.03 193.5,312.5C 193.279,311.265 192.612,310.265 191.5,309.5C 195.636,307.234 199.969,306.901 204.5,308.5C 205.833,308.167 207.167,307.833 208.5,307.5C 201.613,305.607 194.613,305.107 187.5,306C 186.333,306.5 185.5,307.333 185,308.5C 184.667,307.5 184.333,306.5 184,305.5C 177.17,306.298 170.337,306.631 163.5,306.5C 161.664,305.972 159.997,305.306 158.5,304.5C 158.833,303.167 159.167,301.833 159.5,300.5C 159.5,299.833 159.5,299.167 159.5,298.5C 160.468,296.393 160.802,294.059 160.5,291.5C 162.698,291.12 164.365,291.787 165.5,293.5 Z"/></g>
<g><path style="opacity:1" fill="#141010" d="M 252.5,264.5 C 255.167,264.5 257.833,264.5 260.5,264.5C 256.032,273.85 255.365,283.517 258.5,293.5C 258.833,293 259.167,292.5 259.5,292C 257.842,283.346 258.342,274.846 261,266.5C 259.723,273.731 259.39,281.065 260,288.5C 260.333,290.167 260.667,291.833 261,293.5C 261.893,294.711 262.726,294.711 263.5,293.5C 262.151,288.776 261.484,283.942 261.5,279C 261.03,273.716 262.196,268.883 265,264.5C 264.047,269.527 263.547,274.694 263.5,280C 264.045,285.168 264.712,290.002 265.5,294.5C 267.5,294.5 269.5,294.5 271.5,294.5C 270.543,287.523 270.377,280.523 271,273.5C 271.522,270.719 272.689,268.385 274.5,266.5C 272.305,275.757 271.972,285.091 273.5,294.5C 276.073,294.852 278.406,294.352 280.5,293C 279.833,292.667 279.167,292.333 278.5,292C 280.15,288.06 280.983,283.893 281,279.5C 283.253,275.925 285.087,272.259 286.5,268.5C 287.85,267.517 288.85,266.184 289.5,264.5C 290.478,268.738 289.311,272.405 286,275.5C 283.736,282.831 284.236,289.831 287.5,296.5C 274.651,296.365 261.984,295.698 249.5,294.5C 250.695,294.134 251.361,293.301 251.5,292C 250.391,285.538 250.225,279.038 251,272.5C 252.344,269.741 252.844,267.074 252.5,264.5 Z"/></g>
<g><path style="opacity:1" fill="#392a2a" d="M 286.5,268.5 C 285.087,272.259 283.253,275.925 281,279.5C 280.983,283.893 280.15,288.06 278.5,292C 279.167,292.333 279.833,292.667 280.5,293C 278.406,294.352 276.073,294.852 273.5,294.5C 271.972,285.091 272.305,275.757 274.5,266.5C 275.458,266.047 276.292,265.381 277,264.5C 277.167,265 277.333,265.5 277.5,266C 276.391,272.462 276.225,278.962 277,285.5C 279.148,278.558 281.982,271.892 285.5,265.5C 286.002,264.479 286.668,264.312 287.5,265C 286.663,266.011 286.33,267.178 286.5,268.5 Z"/></g>
<g><path style="opacity:0.614" fill="#110d0d" d="M 249.5,294.5 C 224.431,295.37 199.431,294.703 174.5,292.5C 173.77,290.955 172.437,290.122 170.5,290C 173.76,289.216 176.927,289.383 180,290.5C 180.667,289.833 181.333,289.167 182,288.5C 182.481,290.478 183.647,291.811 185.5,292.5C 188.487,292.466 191.487,292.132 194.5,291.5C 194.567,289.599 194.233,287.766 193.5,286C 194.872,282.974 195.538,279.807 195.5,276.5C 195.833,276.5 196.167,276.5 196.5,276.5C 195.961,281.641 195.961,286.974 196.5,292.5C 197.167,292.833 197.833,293.167 198.5,293.5C 199.598,289.639 200.431,289.639 201,293.5C 201.794,290.529 202.461,287.529 203,284.5C 203.497,287.146 203.664,289.813 203.5,292.5C 204.93,292.579 206.264,292.246 207.5,291.5C 208.192,292.025 208.692,292.692 209,293.5C 209.689,292.643 210.522,291.977 211.5,291.5C 212.329,286.533 212.829,281.533 213,276.5C 213.606,273.57 214.44,270.737 215.5,268C 214.216,267.316 213.049,267.483 212,268.5C 210.54,274.132 209.207,279.799 208,285.5C 207.58,279.017 208.747,272.85 211.5,267C 215.174,265.011 217.174,265.845 217.5,269.5C 216.391,271.385 215.557,273.385 215,275.5C 214.501,281.157 214.334,286.824 214.5,292.5C 216.752,293.333 218.919,293.333 221,292.5C 221.333,286.167 221.667,279.833 222,273.5C 222.27,270.638 223.104,267.972 224.5,265.5C 224.833,266 225.167,266.5 225.5,267C 223.532,275.056 223.032,283.223 224,291.5C 224.333,291.167 224.667,290.833 225,290.5C 225.151,282.077 225.985,273.744 227.5,265.5C 229.5,265.5 231.5,265.5 233.5,265.5C 231.723,274.809 231.39,284.142 232.5,293.5C 237.167,293.5 241.833,293.5 246.5,293.5C 245.436,285.869 245.269,278.202 246,270.5C 246.523,268.777 247.523,267.444 249,266.5C 249.5,266.833 250,267.167 250.5,267.5C 247.004,276.427 246.671,285.427 249.5,294.5 Z"/></g>
<g><path style="opacity:1" fill="#989898" d="M 159.5,300.5 C 159.167,301.833 158.833,303.167 158.5,304.5C 155.099,307.529 151.099,308.862 146.5,308.5C 146.768,310.099 146.434,311.432 145.5,312.5C 145.5,311.5 145.5,310.5 145.5,309.5C 140.305,309.179 135.305,309.513 130.5,310.5C 130.167,310.5 129.833,310.5 129.5,310.5C 126.797,308.89 123.797,307.89 120.5,307.5C 121.738,305.786 122.405,303.786 122.5,301.5C 134.907,300.58 147.241,300.247 159.5,300.5 Z"/></g>
<g><path style="opacity:1" fill="#302424" d="M 290.5,307.5 C 290.189,308.478 289.522,309.145 288.5,309.5C 286.538,308.366 284.538,308.366 282.5,309.5C 281.353,309.182 280.519,308.516 280,307.5C 273.375,309.6 266.542,310.6 259.5,310.5C 256.843,310.838 254.51,310.171 252.5,308.5C 245.803,309.83 239.137,309.83 232.5,308.5C 225.412,309.323 218.078,308.99 210.5,307.5C 211,307.167 211.5,306.833 212,306.5C 234.842,307.977 257.675,307.644 280.5,305.5C 283.976,305.55 287.31,306.217 290.5,307.5 Z"/></g>
<g><path style="opacity:1" fill="#d7d7d7" d="M 145.5,312.5 C 145.665,315.85 145.498,319.183 145,322.5C 144.184,323.823 143.017,324.489 141.5,324.5C 139.435,324.483 137.435,324.15 135.5,323.5C 133.814,319.467 132.147,315.467 130.5,311.5C 130.5,311.167 130.5,310.833 130.5,310.5C 135.305,309.513 140.305,309.179 145.5,309.5C 145.5,310.5 145.5,311.5 145.5,312.5 Z"/></g>
<g><path style="opacity:1" fill="#0f0c0c" d="M 267.5,332.5 C 268.602,330.908 267.935,330.075 265.5,330C 266.416,329.626 267.25,329.126 268,328.5C 269.903,328.694 271.737,328.694 273.5,328.5C 275.794,329.706 278.127,330.706 280.5,331.5C 278.948,328.345 278.115,325.011 278,321.5C 280.519,324.54 282.519,327.873 284,331.5C 284.692,330.975 285.192,330.308 285.5,329.5C 284.696,328.059 284.029,326.559 283.5,325C 285.197,322.37 286.031,319.536 286,316.5C 285,317.833 284,319.167 283,320.5C 282.355,319.354 281.522,318.354 280.5,317.5C 281.964,315.007 281.797,312.674 280,310.5C 279.882,313.371 279.216,316.038 278,318.5C 277.833,318 277.667,317.5 277.5,317C 278.547,315.422 278.547,313.922 277.5,312.5C 273.641,316.611 272.974,321.111 275.5,326C 275,326.5 274.5,327 274,327.5C 273.407,323.818 271.907,320.651 269.5,318C 270.547,316.422 270.547,314.922 269.5,313.5C 267.283,317.172 266.616,321.005 267.5,325C 266.668,325.688 266.002,325.521 265.5,324.5C 264.696,320.436 264.362,316.436 264.5,312.5C 263.343,314.678 262.01,316.678 260.5,318.5C 258.978,310.79 257.812,311.123 257,319.5C 256.808,317.423 256.308,315.423 255.5,313.5C 254.675,317.122 254.175,320.789 254,324.5C 253.501,320.179 253.334,315.846 253.5,311.5C 255.735,311.795 257.735,311.461 259.5,310.5C 266.542,310.6 273.375,309.6 280,307.5C 280.519,308.516 281.353,309.182 282.5,309.5C 284.538,308.366 286.538,308.366 288.5,309.5C 289.522,309.145 290.189,308.478 290.5,307.5C 295.573,305.557 298.907,307.224 300.5,312.5C 298.738,316.002 298.238,319.668 299,323.5C 299.654,322.304 300.154,322.304 300.5,323.5C 299.585,324.328 298.919,325.328 298.5,326.5C 299.362,328.51 299.862,330.51 300,332.5C 290.073,333.765 279.24,333.765 267.5,332.5 Z"/></g>
<g><path style="opacity:1" fill="#21635f" d="M 103.5,305.5 C 100.847,308.097 101.014,310.431 104,312.5C 105.137,316.463 104.303,319.796 101.5,322.5C 101.171,317.425 98.6708,315.758 94,317.5C 93.7506,320.177 92.7506,322.51 91,324.5C 90.1923,326.579 90.359,328.579 91.5,330.5C 93.7105,331.123 95.7105,332.123 97.5,333.5C 98.2082,331.255 99.2082,329.255 100.5,327.5C 100.343,328.873 100.51,330.207 101,331.5C 101.383,330.944 101.883,330.611 102.5,330.5C 105.223,332.188 108.223,333.688 111.5,335C 112.267,336.47 112.933,337.97 113.5,339.5C 110.998,339.251 108.498,338.917 106,338.5C 103.558,338.482 101.392,339.149 99.5,340.5C 98.6993,338.958 98.366,337.292 98.5,335.5C 94.6613,333.833 90.6613,333.333 86.5,334C 85.6634,335.011 85.33,336.178 85.5,337.5C 86.791,337.263 87.791,337.596 88.5,338.5C 86.5992,338.567 84.7659,338.233 83,337.5C 81.5936,338.414 80.0936,339.08 78.5,339.5C 79.2899,338.206 80.2899,337.039 81.5,336C 80.9415,335.275 80.6082,334.442 80.5,333.5C 81.1776,331.484 81.8443,329.484 82.5,327.5C 84.0507,325.087 84.7174,322.421 84.5,319.5C 85.1667,319.5 85.5,319.167 85.5,318.5C 87.0248,316.784 88.0248,314.784 88.5,312.5C 90.6298,310.873 92.6298,309.04 94.5,307C 97.4781,306.304 100.478,305.804 103.5,305.5 Z"/></g>
<g><path style="opacity:1" fill="#1c1616" d="M 232.5,308.5 C 239.137,309.83 245.803,309.83 252.5,308.5C 254.51,310.171 256.843,310.838 259.5,310.5C 257.735,311.461 255.735,311.795 253.5,311.5C 253.334,315.846 253.501,320.179 254,324.5C 254.175,320.789 254.675,317.122 255.5,313.5C 256.308,315.423 256.808,317.423 257,319.5C 257.812,311.123 258.978,310.79 260.5,318.5C 262.01,316.678 263.343,314.678 264.5,312.5C 264.362,316.436 264.696,320.436 265.5,324.5C 266.002,325.521 266.668,325.688 267.5,325C 266.616,321.005 267.283,317.172 269.5,313.5C 270.547,314.922 270.547,316.422 269.5,318C 271.907,320.651 273.407,323.818 274,327.5C 274.5,327 275,326.5 275.5,326C 272.974,321.111 273.641,316.611 277.5,312.5C 278.547,313.922 278.547,315.422 277.5,317C 277.667,317.5 277.833,318 278,318.5C 279.216,316.038 279.882,313.371 280,310.5C 281.797,312.674 281.964,315.007 280.5,317.5C 281.522,318.354 282.355,319.354 283,320.5C 284,319.167 285,317.833 286,316.5C 286.031,319.536 285.197,322.37 283.5,325C 284.029,326.559 284.696,328.059 285.5,329.5C 285.192,330.308 284.692,330.975 284,331.5C 282.519,327.873 280.519,324.54 278,321.5C 278.115,325.011 278.948,328.345 280.5,331.5C 278.127,330.706 275.794,329.706 273.5,328.5C 271.737,328.694 269.903,328.694 268,328.5C 267.25,329.126 266.416,329.626 265.5,330C 267.935,330.075 268.602,330.908 267.5,332.5C 259.467,333.337 251.467,333.671 243.5,333.5C 241.866,333.032 240.7,332.032 240,330.5C 233.918,332.205 227.585,333.205 221,333.5C 208.584,333.107 195.75,333.107 182.5,333.5C 182.369,332.761 182.536,332.094 183,331.5C 186.114,333.179 188.281,332.345 189.5,329C 188.873,326.865 188.373,324.698 188,322.5C 187.5,323 187,323.5 186.5,324C 187.869,326.239 187.369,328.073 185,329.5C 184.316,328.216 184.483,327.049 185.5,326C 184.672,325.085 183.672,324.419 182.5,324C 183.711,322.156 185.044,321.322 186.5,321.5C 186.354,319.685 186.188,317.685 186,315.5C 186.414,315.957 186.914,316.291 187.5,316.5C 189.494,314.083 191.327,314.083 193,316.5C 193.49,315.207 193.657,313.873 193.5,312.5C 195.159,311.03 197.159,310.363 199.5,310.5C 202.887,310.964 206.22,311.631 209.5,312.5C 209.351,313.552 209.517,314.552 210,315.5C 211.691,311.99 214.524,310.323 218.5,310.5C 220.641,310.613 222.475,311.28 224,312.5C 224.388,311.572 225.055,310.905 226,310.5C 228.926,313.416 231.092,312.75 232.5,308.5 Z"/></g>
<g><path style="opacity:1" fill="#298986" d="M 129.5,310.5 C 129.833,310.5 130.167,310.5 130.5,310.5C 130.5,310.833 130.5,311.167 130.5,311.5C 130.116,313.293 128.95,314.293 127,314.5C 124.566,313.678 122.066,313.344 119.5,313.5C 118.155,319.709 116.489,325.875 114.5,332C 115.985,334.652 117.985,336.818 120.5,338.5C 120.443,339.609 120.11,340.609 119.5,341.5C 117.421,341.029 115.421,340.363 113.5,339.5C 112.933,337.97 112.267,336.47 111.5,335C 108.223,333.688 105.223,332.188 102.5,330.5C 103.714,323.346 106.381,316.846 110.5,311C 116.825,310.5 123.158,310.334 129.5,310.5 Z"/></g>
<g><path style="opacity:1" fill="#0d3b39" d="M 103.5,305.5 C 107.249,305.776 110.749,306.776 114,308.5C 115.878,308.304 117.712,307.971 119.5,307.5C 119.833,307.5 120.167,307.5 120.5,307.5C 123.797,307.89 126.797,308.89 129.5,310.5C 123.158,310.334 116.825,310.5 110.5,311C 106.381,316.846 103.714,323.346 102.5,330.5C 101.883,330.611 101.383,330.944 101,331.5C 100.51,330.207 100.343,328.873 100.5,327.5C 100.629,325.784 100.962,324.117 101.5,322.5C 104.303,319.796 105.137,316.463 104,312.5C 101.014,310.431 100.847,308.097 103.5,305.5 Z"/></g>
<g><path style="opacity:1" fill="#30291e" d="M 80.5,311.5 C 82.3664,312.014 84.1997,312.68 86,313.5C 86.9021,313.257 87.7354,312.923 88.5,312.5C 88.0248,314.784 87.0248,316.784 85.5,318.5C 84.8333,318.5 84.5,318.833 84.5,319.5C 74.3087,323.262 64.642,328.096 55.5,334C 47.8586,336.946 44.3586,334.446 45,326.5C 51.8608,321.823 59.0275,317.823 66.5,314.5C 68.8553,313.906 71.022,312.906 73,311.5C 75.5472,312.785 78.0472,312.785 80.5,311.5 Z"/></g>
<g><path style="opacity:1" fill="#48d3cc" d="M 130.5,311.5 C 132.147,315.467 133.814,319.467 135.5,323.5C 136.777,325.148 137.777,326.982 138.5,329C 137.833,329.333 137.167,329.667 136.5,330C 138.141,333.335 139.475,336.835 140.5,340.5C 138.819,342.008 136.819,343.008 134.5,343.5C 133.883,343.389 133.383,343.056 133,342.5C 131.927,338.916 131.26,335.25 131,331.5C 129.289,329.044 127.956,326.377 127,323.5C 126.311,324.357 125.478,325.023 124.5,325.5C 123.865,329.023 122.865,332.356 121.5,335.5C 120.89,336.391 120.557,337.391 120.5,338.5C 117.985,336.818 115.985,334.652 114.5,332C 116.489,325.875 118.155,319.709 119.5,313.5C 122.066,313.344 124.566,313.678 127,314.5C 128.95,314.293 130.116,313.293 130.5,311.5 Z"/></g>
<g><path style="opacity:1" fill="#2a201f" d="M 158.5,304.5 C 159.997,305.306 161.664,305.972 163.5,306.5C 170.337,306.631 177.17,306.298 184,305.5C 184.333,306.5 184.667,307.5 185,308.5C 185.5,307.333 186.333,306.5 187.5,306C 194.613,305.107 201.613,305.607 208.5,307.5C 207.167,307.833 205.833,308.167 204.5,308.5C 199.969,306.901 195.636,307.234 191.5,309.5C 192.612,310.265 193.279,311.265 193.5,312.5C 193.657,313.873 193.49,315.207 193,316.5C 191.327,314.083 189.494,314.083 187.5,316.5C 186.914,316.291 186.414,315.957 186,315.5C 186.188,317.685 186.354,319.685 186.5,321.5C 185.044,321.322 183.711,322.156 182.5,324C 183.672,324.419 184.672,325.085 185.5,326C 184.483,327.049 184.316,328.216 185,329.5C 187.369,328.073 187.869,326.239 186.5,324C 187,323.5 187.5,323 188,322.5C 188.373,324.698 188.873,326.865 189.5,329C 188.281,332.345 186.114,333.179 183,331.5C 182.536,332.094 182.369,332.761 182.5,333.5C 174.51,333.034 166.51,332.7 158.5,332.5C 152.921,332.551 147.588,333.218 142.5,334.5C 142.658,331.098 142.324,327.764 141.5,324.5C 143.017,324.489 144.184,323.823 145,322.5C 145.498,319.183 145.665,315.85 145.5,312.5C 146.434,311.432 146.768,310.099 146.5,308.5C 151.099,308.862 155.099,307.529 158.5,304.5 Z"/></g>
<g><path style="opacity:1" fill="#26958d" d="M 101.5,322.5 C 100.962,324.117 100.629,325.784 100.5,327.5C 99.2082,329.255 98.2082,331.255 97.5,333.5C 95.7105,332.123 93.7105,331.123 91.5,330.5C 90.359,328.579 90.1923,326.579 91,324.5C 92.7506,322.51 93.7506,320.177 94,317.5C 98.6708,315.758 101.171,317.425 101.5,322.5 Z"/></g>
<g><path style="opacity:1" fill="#459f9b" d="M 135.5,323.5 C 137.435,324.15 139.435,324.483 141.5,324.5C 142.324,327.764 142.658,331.098 142.5,334.5C 142.741,336.898 142.074,338.898 140.5,340.5C 139.475,336.835 138.141,333.335 136.5,330C 137.167,329.667 137.833,329.333 138.5,329C 137.777,326.982 136.777,325.148 135.5,323.5 Z"/></g>
<g><path style="opacity:1" fill="#289999" d="M 134.5,343.5 C 134.027,344.906 133.027,345.573 131.5,345.5C 129.801,345.66 128.134,345.494 126.5,345C 125.413,341.493 124.247,337.993 123,334.5C 122.617,335.056 122.117,335.389 121.5,335.5C 122.865,332.356 123.865,329.023 124.5,325.5C 125.478,325.023 126.311,324.357 127,323.5C 127.956,326.377 129.289,329.044 131,331.5C 131.26,335.25 131.927,338.916 133,342.5C 133.383,343.056 133.883,343.389 134.5,343.5 Z"/></g>
<g><path style="opacity:1" fill="#1a3737" d="M 99.5,340.5 C 98.8333,341.5 98.1667,342.5 97.5,343.5C 96.0779,343.75 95.0779,344.583 94.5,346C 95.3366,347.011 95.67,348.178 95.5,349.5C 94.5,349.5 93.5,349.5 92.5,349.5C 92.5,347.833 92.5,346.167 92.5,344.5C 93.4015,340.759 92.0681,338.759 88.5,338.5C 87.791,337.596 86.791,337.263 85.5,337.5C 85.33,336.178 85.6634,335.011 86.5,334C 90.6613,333.333 94.6613,333.833 98.5,335.5C 98.366,337.292 98.6993,338.958 99.5,340.5 Z"/></g>
<g><path style="opacity:1" fill="#1c5b5b" d="M 131.5,345.5 C 127.252,346.986 123.252,346.32 119.5,343.5C 119.5,342.833 119.5,342.167 119.5,341.5C 120.11,340.609 120.443,339.609 120.5,338.5C 120.557,337.391 120.89,336.391 121.5,335.5C 122.117,335.389 122.617,335.056 123,334.5C 124.247,337.993 125.413,341.493 126.5,345C 128.134,345.494 129.801,345.66 131.5,345.5 Z"/></g>
<g><path style="opacity:1" fill="#839398" d="M 113.5,339.5 C 115.421,340.363 117.421,341.029 119.5,341.5C 119.5,342.167 119.5,342.833 119.5,343.5C 119.664,346.187 119.497,348.854 119,351.5C 118.722,352.416 118.222,353.082 117.5,353.5C 118.376,350.201 118.543,346.868 118,343.5C 116.489,346.796 115.323,350.129 114.5,353.5C 112.265,353.795 110.265,353.461 108.5,352.5C 115.134,352.323 115.134,351.823 108.5,351C 107.627,349.955 106.627,349.122 105.5,348.5C 106.66,347.735 107.66,346.735 108.5,345.5C 108.291,344.914 107.957,344.414 107.5,344C 104.183,343.502 100.85,343.335 97.5,343.5C 98.1667,342.5 98.8333,341.5 99.5,340.5C 101.392,339.149 103.558,338.482 106,338.5C 108.498,338.917 110.998,339.251 113.5,339.5 Z"/></g>
<g><path style="opacity:1" fill="#848e91" d="M 88.5,338.5 C 92.0681,338.759 93.4015,340.759 92.5,344.5C 90.7041,345.793 89.0375,347.293 87.5,349C 86.552,349.483 85.552,349.649 84.5,349.5C 84.6495,348.448 84.4828,347.448 84,346.5C 81.2809,347.444 78.4475,347.777 75.5,347.5C 75.5,345.833 75.5,344.167 75.5,342.5C 76.1667,341.167 77.1667,340.167 78.5,339.5C 80.0936,339.08 81.5936,338.414 83,337.5C 84.7659,338.233 86.5992,338.567 88.5,338.5 Z"/></g>
<g><path style="opacity:1" fill="#b0b4b7" d="M 97.5,343.5 C 100.85,343.335 104.183,343.502 107.5,344C 107.957,344.414 108.291,344.914 108.5,345.5C 107.66,346.735 106.66,347.735 105.5,348.5C 102.833,348.5 100.167,348.5 97.5,348.5C 97.5,346.833 97.5,345.167 97.5,343.5 Z"/></g>
<g><path style="opacity:1" fill="#656a69" d="M 75.5,342.5 C 75.5,344.167 75.5,345.833 75.5,347.5C 78.4475,347.777 81.2809,347.444 84,346.5C 84.4828,347.448 84.6495,348.448 84.5,349.5C 85.552,349.649 86.552,349.483 87.5,349C 89.0375,347.293 90.7041,345.793 92.5,344.5C 92.5,346.167 92.5,347.833 92.5,349.5C 93.5,349.5 94.5,349.5 95.5,349.5C 95.67,348.178 95.3366,347.011 94.5,346C 95.0779,344.583 96.0779,343.75 97.5,343.5C 97.5,345.167 97.5,346.833 97.5,348.5C 100.167,348.5 102.833,348.5 105.5,348.5C 106.627,349.122 107.627,349.955 108.5,351C 115.134,351.823 115.134,352.323 108.5,352.5C 106.801,352.34 105.134,352.506 103.5,353C 104.942,353.377 105.942,354.21 106.5,355.5C 103.09,355.218 99.757,354.551 96.5,353.5C 94.9246,354.456 93.258,355.123 91.5,355.5C 91.6107,354.883 91.944,354.383 92.5,354C 90.1526,353.564 87.8193,353.064 85.5,352.5C 84.5836,352.543 83.9169,352.876 83.5,353.5C 81.857,353.52 80.5237,352.853 79.5,351.5C 78.7836,352.311 77.9503,352.978 77,353.5C 74.5234,351.9 73.0234,349.567 72.5,346.5C 72.7538,344.583 73.7538,343.249 75.5,342.5 Z"/></g>
<g><path style="opacity:1" fill="#b8b9b1" d="M 83.5,353.5 C 83.9169,352.876 84.5836,352.543 85.5,352.5C 87.8193,353.064 90.1526,353.564 92.5,354C 91.944,354.383 91.6107,354.883 91.5,355.5C 88.5794,355.717 85.9128,355.051 83.5,353.5 Z"/></g>
<g><path style="opacity:1" fill="#c5cecf" d="M 117.5,353.5 C 117.389,354.117 117.056,354.617 116.5,355C 113.183,355.498 109.85,355.665 106.5,355.5C 105.942,354.21 104.942,353.377 103.5,353C 105.134,352.506 106.801,352.34 108.5,352.5C 110.265,353.461 112.265,353.795 114.5,353.5C 115.323,350.129 116.489,346.796 118,343.5C 118.543,346.868 118.376,350.201 117.5,353.5 Z"/></g>
</svg>
