<svg width="25" height="24" viewBox="0 0 25 24" fill="none" xmlns="http://www.w3.org/2000/svg">
<g>
<path d="M12.8235 23.7462C9.81821 23.7462 6.80861 23.7101 3.80259 23.7601C2.18903 23.7872 0.692106 22.649 0.840224 20.6859C1.06777 17.6665 3.05842 15.1235 6.01292 14.145C6.73018 13.9023 7.48368 13.7756 8.24329 13.77C11.3037 13.7645 14.3648 13.7471 17.4252 13.7735C21.2176 13.8061 24.4376 16.7172 24.7911 20.3741C24.8419 20.8949 24.8698 21.4109 24.7009 21.9171C24.3317 23.0247 23.302 23.7428 22.0591 23.7428C18.9808 23.7478 15.9023 23.749 12.8235 23.7462ZM12.8357 22.0796H21.9668C22.7396 22.0796 23.1424 21.6872 23.1117 20.9338C23.1005 20.5879 23.0572 20.2437 22.9822 19.9053C22.3639 17.2373 20.0362 15.4318 17.2134 15.4276C14.3388 15.423 11.4644 15.423 8.59033 15.4276C8.28726 15.4284 7.98443 15.4442 7.68301 15.4749C4.89237 15.7568 2.61407 18.1699 2.55396 20.9081C2.53679 21.6963 2.92104 22.0789 3.73104 22.0789L12.8357 22.0796Z" fill="#BBBBBB"/>
<path d="M6.83594 6.27651C6.83594 3.08212 9.52068 0.464118 12.805 0.458562C13.5966 0.454895 14.3811 0.603284 15.1134 0.895178C15.8456 1.18707 16.5111 1.6167 17.0714 2.15931C17.6318 2.70192 18.076 3.34678 18.3784 4.05674C18.6809 4.7667 18.8355 5.52772 18.8335 6.29595C18.8335 9.47297 16.1352 12.1028 12.878 12.1007C9.51924 12.0986 6.83665 9.51325 6.83594 6.27651ZM17.1191 6.28206C17.1126 3.99044 15.1957 2.11964 12.8501 2.12242C12.2841 2.12095 11.7235 2.22822 11.2004 2.43805C10.6774 2.64789 10.2023 2.95614 9.80256 3.34502C9.40285 3.7339 9.08642 4.19572 8.87151 4.70386C8.6566 5.212 8.54746 5.7564 8.55039 6.30567C8.55039 8.59105 10.4953 10.4473 12.8744 10.4382C15.2079 10.4299 17.1262 8.55146 17.1191 6.28206Z" fill="#BBBBBB"/>
</g>
</svg>