<svg class="svg-icon" style="width: 1em;height: 1em;vertical-align: middle;fill: currentColor;overflow: hidden;" viewBox="0 0 1024 1024" version="1.1" xmlns="http://www.w3.org/2000/svg"><path d="M784 158H672v-16c0-26.47-21.53-48-48-48H400c-26.47 0-48 21.53-48 48v16H240c-26.47 0-48 21.53-48 48v672c0 26.47 21.53 48 48 48h544c26.47 0 48-21.53 48-48V206c0-26.47-21.53-48-48-48z m-368 0h192v64H416v-64z m352 704H256V222h96v16c0 26.47 21.53 48 48 48h224c26.47 0 48-21.53 48-48v-16h96v640z"  /><path d="M352 446h192c17.67 0 32-14.33 32-32s-14.33-32-32-32H352c-17.67 0-32 14.33-32 32s14.33 32 32 32zM352 542c-17.67 0-32 14.33-32 32s14.33 32 32 32h320c17.67 0 32-14.33 32-32s-14.33-32-32-32H352zM608 702H352c-17.67 0-32 14.33-32 32s14.33 32 32 32h256c17.67 0 32-14.33 32-32s-14.33-32-32-32z"  /></svg>